<svg width="960" height="580" viewBox="0 0 960 580" fill="none" xmlns="http://www.w3.org/2000/svg">
<g filter="url(#filter0_d_1107_29)">
<rect x="30" y="30" width="900" height="520" rx="10" fill="white"/>
</g>
<path d="M184.828 194.724H179.516C179.364 193.853 179.085 193.081 178.678 192.409C178.271 191.727 177.764 191.15 177.158 190.676C176.552 190.203 175.861 189.848 175.084 189.611C174.317 189.365 173.489 189.241 172.598 189.241C171.017 189.241 169.615 189.639 168.394 190.435C167.172 191.221 166.216 192.376 165.525 193.901C164.833 195.416 164.488 197.267 164.488 199.455C164.488 201.68 164.833 203.555 165.525 205.08C166.225 206.595 167.182 207.741 168.394 208.517C169.615 209.284 171.012 209.668 172.584 209.668C173.455 209.668 174.27 209.554 175.027 209.327C175.794 209.09 176.481 208.744 177.087 208.29C177.703 207.835 178.219 207.277 178.635 206.614C179.061 205.951 179.355 205.193 179.516 204.341L184.828 204.369C184.63 205.752 184.199 207.049 183.536 208.261C182.882 209.473 182.025 210.544 180.965 211.472C179.904 212.39 178.664 213.11 177.243 213.631C175.823 214.142 174.246 214.398 172.513 214.398C169.956 214.398 167.674 213.806 165.667 212.622C163.659 211.438 162.078 209.729 160.922 207.494C159.767 205.259 159.189 202.58 159.189 199.455C159.189 196.32 159.772 193.64 160.936 191.415C162.101 189.18 163.687 187.471 165.695 186.287C167.703 185.103 169.975 184.511 172.513 184.511C174.132 184.511 175.638 184.739 177.03 185.193C178.422 185.648 179.663 186.315 180.752 187.196C181.841 188.067 182.736 189.137 183.436 190.406C184.147 191.666 184.611 193.105 184.828 194.724ZM194.569 201.216V214H189.427V184.909H194.456V195.889H194.711C195.223 194.658 196.013 193.687 197.083 192.977C198.163 192.258 199.536 191.898 201.203 191.898C202.718 191.898 204.039 192.215 205.166 192.849C206.293 193.484 207.164 194.412 207.779 195.634C208.404 196.855 208.717 198.347 208.717 200.108V214H203.575V200.903C203.575 199.436 203.196 198.295 202.439 197.48C201.69 196.656 200.639 196.244 199.285 196.244C198.376 196.244 197.562 196.443 196.842 196.841C196.132 197.229 195.573 197.793 195.166 198.531C194.768 199.27 194.569 200.165 194.569 201.216ZM220.237 214.44C218.854 214.44 217.609 214.194 216.501 213.702C215.403 213.2 214.531 212.461 213.887 211.486C213.253 210.51 212.936 209.308 212.936 207.878C212.936 206.647 213.163 205.629 213.618 204.824C214.072 204.019 214.692 203.375 215.478 202.892C216.264 202.409 217.15 202.045 218.135 201.798C219.129 201.543 220.156 201.358 221.217 201.244C222.495 201.112 223.532 200.993 224.328 200.889C225.123 200.776 225.701 200.605 226.061 200.378C226.43 200.141 226.615 199.777 226.615 199.284V199.199C226.615 198.129 226.297 197.3 225.663 196.713C225.029 196.126 224.115 195.832 222.922 195.832C221.662 195.832 220.663 196.107 219.924 196.656C219.195 197.205 218.703 197.854 218.447 198.602L213.646 197.92C214.025 196.595 214.65 195.487 215.521 194.597C216.392 193.697 217.458 193.025 218.717 192.58C219.976 192.125 221.368 191.898 222.893 191.898C223.944 191.898 224.991 192.021 226.032 192.267C227.074 192.513 228.026 192.92 228.887 193.489C229.749 194.047 230.44 194.81 230.961 195.776C231.492 196.741 231.757 197.949 231.757 199.398V214H226.814V211.003H226.643C226.331 211.609 225.89 212.177 225.322 212.707C224.763 213.228 224.058 213.65 223.206 213.972C222.363 214.284 221.373 214.44 220.237 214.44ZM221.572 210.662C222.604 210.662 223.499 210.458 224.257 210.051C225.014 209.634 225.597 209.085 226.004 208.403C226.421 207.722 226.629 206.978 226.629 206.173V203.602C226.468 203.735 226.193 203.858 225.805 203.972C225.426 204.085 225 204.185 224.527 204.27C224.053 204.355 223.584 204.431 223.12 204.497C222.656 204.563 222.254 204.62 221.913 204.668C221.146 204.772 220.459 204.942 219.853 205.179C219.247 205.416 218.769 205.747 218.419 206.173C218.068 206.59 217.893 207.13 217.893 207.793C217.893 208.74 218.239 209.455 218.93 209.938C219.621 210.42 220.502 210.662 221.572 210.662ZM242.069 184.909V214H236.927V184.909H242.069ZM252.499 184.909V214H247.357V184.909H252.499ZM267.446 214.426C265.258 214.426 263.369 213.972 261.778 213.062C260.197 212.144 258.98 210.847 258.127 209.17C257.275 207.485 256.849 205.501 256.849 203.219C256.849 200.974 257.275 199.005 258.127 197.31C258.989 195.605 260.192 194.279 261.735 193.332C263.279 192.376 265.092 191.898 267.176 191.898C268.52 191.898 269.789 192.116 270.983 192.551C272.185 192.977 273.246 193.64 274.164 194.54C275.092 195.439 275.822 196.585 276.352 197.977C276.882 199.36 277.147 201.008 277.147 202.92V204.497H259.264V201.031H272.218C272.209 200.046 271.996 199.17 271.579 198.403C271.163 197.627 270.58 197.016 269.832 196.571C269.093 196.126 268.232 195.903 267.247 195.903C266.196 195.903 265.272 196.159 264.477 196.67C263.681 197.172 263.061 197.835 262.616 198.659C262.181 199.473 261.958 200.368 261.949 201.344V204.369C261.949 205.638 262.181 206.727 262.645 207.636C263.109 208.536 263.757 209.227 264.591 209.71C265.424 210.184 266.399 210.42 267.517 210.42C268.265 210.42 268.942 210.316 269.548 210.108C270.154 209.89 270.68 209.573 271.125 209.156C271.57 208.74 271.906 208.223 272.133 207.608L276.934 208.148C276.631 209.417 276.054 210.525 275.201 211.472C274.359 212.409 273.279 213.138 271.963 213.659C270.646 214.17 269.141 214.426 267.446 214.426ZM286.64 201.216V214H281.498V192.182H286.412V195.889H286.668C287.17 194.668 287.97 193.697 289.069 192.977C290.176 192.258 291.545 191.898 293.174 191.898C294.679 191.898 295.991 192.22 297.108 192.864C298.235 193.508 299.106 194.44 299.722 195.662C300.347 196.884 300.655 198.366 300.645 200.108V214H295.503V200.903C295.503 199.445 295.124 198.304 294.367 197.48C293.619 196.656 292.582 196.244 291.256 196.244C290.356 196.244 289.556 196.443 288.855 196.841C288.164 197.229 287.62 197.793 287.222 198.531C286.834 199.27 286.64 200.165 286.64 201.216ZM315.361 222.636C313.515 222.636 311.928 222.385 310.603 221.884C309.277 221.391 308.212 220.728 307.407 219.895C306.602 219.062 306.043 218.138 305.73 217.125L310.361 216.003C310.569 216.429 310.873 216.85 311.27 217.267C311.668 217.693 312.203 218.044 312.875 218.318C313.557 218.602 314.414 218.744 315.446 218.744C316.905 218.744 318.112 218.389 319.069 217.679C320.025 216.978 320.503 215.823 320.503 214.213V210.08H320.248C319.982 210.61 319.594 211.154 319.083 211.713C318.581 212.272 317.913 212.741 317.08 213.119C316.256 213.498 315.219 213.688 313.969 213.688C312.293 213.688 310.773 213.295 309.409 212.509C308.055 211.713 306.976 210.529 306.171 208.957C305.375 207.376 304.978 205.397 304.978 203.02C304.978 200.624 305.375 198.602 306.171 196.955C306.976 195.297 308.06 194.043 309.424 193.19C310.787 192.329 312.307 191.898 313.983 191.898C315.262 191.898 316.313 192.116 317.137 192.551C317.97 192.977 318.633 193.493 319.125 194.099C319.618 194.696 319.992 195.259 320.248 195.79H320.532V192.182H325.603V214.355C325.603 216.221 325.158 217.764 324.267 218.986C323.377 220.207 322.16 221.121 320.617 221.727C319.073 222.333 317.321 222.636 315.361 222.636ZM315.404 209.653C316.493 209.653 317.421 209.388 318.188 208.858C318.955 208.328 319.537 207.565 319.935 206.571C320.333 205.577 320.532 204.384 320.532 202.991C320.532 201.618 320.333 200.416 319.935 199.384C319.547 198.351 318.969 197.551 318.202 196.983C317.444 196.405 316.512 196.116 315.404 196.116C314.258 196.116 313.301 196.415 312.534 197.011C311.767 197.608 311.19 198.427 310.801 199.469C310.413 200.501 310.219 201.675 310.219 202.991C310.219 204.327 310.413 205.496 310.801 206.5C311.199 207.494 311.782 208.271 312.549 208.83C313.325 209.379 314.277 209.653 315.404 209.653ZM340.532 214.426C338.344 214.426 336.455 213.972 334.864 213.062C333.283 212.144 332.066 210.847 331.213 209.17C330.361 207.485 329.935 205.501 329.935 203.219C329.935 200.974 330.361 199.005 331.213 197.31C332.075 195.605 333.278 194.279 334.821 193.332C336.365 192.376 338.178 191.898 340.262 191.898C341.606 191.898 342.875 192.116 344.069 192.551C345.271 192.977 346.332 193.64 347.25 194.54C348.178 195.439 348.908 196.585 349.438 197.977C349.968 199.36 350.233 201.008 350.233 202.92V204.497H332.35V201.031H345.304C345.295 200.046 345.082 199.17 344.665 198.403C344.248 197.627 343.666 197.016 342.918 196.571C342.179 196.126 341.318 195.903 340.333 195.903C339.282 195.903 338.358 196.159 337.563 196.67C336.767 197.172 336.147 197.835 335.702 198.659C335.266 199.473 335.044 200.368 335.034 201.344V204.369C335.034 205.638 335.266 206.727 335.73 207.636C336.194 208.536 336.843 209.227 337.676 209.71C338.51 210.184 339.485 210.42 340.603 210.42C341.351 210.42 342.028 210.316 342.634 210.108C343.24 209.89 343.766 209.573 344.211 209.156C344.656 208.74 344.992 208.223 345.219 207.608L350.02 208.148C349.717 209.417 349.14 210.525 348.287 211.472C347.444 212.409 346.365 213.138 345.049 213.659C343.732 214.17 342.227 214.426 340.532 214.426Z" fill="black"/>
<path d="M133.246 288.248H148.219V290.686H133.246V288.248ZM131.015 295.148H150.289V297.655H131.015V295.148ZM139.088 289.352H142.147V295.953H139.088V289.352ZM133.246 280.198H148.058V282.659H136.305V289.306H133.246V280.198ZM163.558 284.246H168.526V286.707H163.558V284.246ZM166.916 278.772H169.975V294.297H166.916V278.772ZM155.922 297.241H170.458V299.679H155.922V297.241ZM155.922 292.986H158.981V298.69H155.922V292.986ZM157.072 281.555H159.556V282.889C159.556 286.891 157.67 290.594 153.576 291.951L152.035 289.513C155.554 288.363 157.072 285.58 157.072 282.889V281.555ZM157.716 281.555H160.177V282.889C160.177 285.373 161.626 288.018 164.984 289.145L163.489 291.537C159.533 290.226 157.716 286.684 157.716 282.889V281.555ZM152.863 280.198H164.317V282.613H152.863V280.198ZM182.946 279.048C187.799 279.048 190.651 280.336 190.651 282.682C190.651 285.028 187.799 286.316 182.946 286.316C178.07 286.316 175.241 285.028 175.241 282.682C175.241 280.336 178.07 279.048 182.946 279.048ZM182.946 281.279C179.864 281.279 178.415 281.739 178.415 282.682C178.415 283.671 179.864 284.085 182.946 284.085C186.028 284.085 187.477 283.671 187.477 282.682C187.477 281.739 186.028 281.279 182.946 281.279ZM173.309 287.305H192.56V289.72H173.309V287.305ZM175.517 290.916H190.237V296.39H178.553V298.276H175.54V294.274H187.224V293.193H175.517V290.916ZM175.54 297.609H190.789V299.909H175.54V297.609ZM202.61 286.27H217.238V288.708H202.61V286.27ZM200.172 290.801H219.469V293.262H200.172V290.801ZM208.222 292.227H211.258V300.024H208.222V292.227ZM202.61 279.876H217.031V282.314H205.738V287.443H202.61V279.876ZM236.096 278.726H239.155V300.093H236.096V278.726ZM232.6 283.257H236.602V285.718H232.6V283.257ZM222.066 292.848H223.745C226.896 292.848 229.518 292.779 232.577 292.319L232.83 294.803C229.702 295.286 226.988 295.355 223.745 295.355H222.066V292.848ZM222.02 280.52H231.542V288.777H225.102V293.4H222.066V286.362H228.529V282.958H222.02V280.52ZM232.554 289.053H236.556V291.514H232.554V289.053ZM247.64 290.755H250.699V299.403H247.64V290.755ZM257.461 278.749H260.543V300.047H257.461V278.749ZM242.787 292.043L242.419 289.559C246.375 289.559 251.596 289.536 256.127 288.915L256.288 291.146C251.642 291.974 246.674 292.043 242.787 292.043ZM253.206 293.078H258.082V295.378H253.206V293.078ZM249.319 279.623C252.447 279.623 254.724 281.417 254.724 283.993C254.724 286.592 252.447 288.363 249.319 288.363C246.145 288.363 243.891 286.592 243.891 283.993C243.891 281.417 246.145 279.623 249.319 279.623ZM249.319 281.923C247.801 281.923 246.743 282.705 246.743 283.993C246.743 285.304 247.801 286.04 249.319 286.04C250.791 286.04 251.849 285.304 251.849 283.993C251.849 282.705 250.791 281.923 249.319 281.923ZM277.309 278.749H280.345V300.047H277.309V278.749ZM279.655 287.052H283.427V289.605H279.655V287.052ZM263.555 281.9H275.952V284.338H263.555V281.9ZM269.788 285.534C272.893 285.534 275.193 287.65 275.193 290.617C275.193 293.584 272.893 295.7 269.788 295.7C266.683 295.7 264.383 293.584 264.383 290.617C264.383 287.65 266.683 285.534 269.788 285.534ZM269.788 288.018C268.339 288.018 267.304 288.984 267.304 290.617C267.304 292.25 268.339 293.216 269.788 293.216C271.237 293.216 272.272 292.25 272.272 290.617C272.272 288.984 271.237 288.018 269.788 288.018ZM268.247 279.094H271.306V282.82H268.247V279.094ZM289.934 282.107H292.372V284.499C292.372 289.421 290.371 294.228 286.369 296.045L284.644 293.63C288.209 292.043 289.934 288.11 289.934 284.499V282.107ZM290.624 282.107H293.039V284.499C293.039 287.949 294.741 291.629 298.306 293.101L296.65 295.516C292.602 293.768 290.624 289.237 290.624 284.499V282.107ZM285.495 280.796H297.432V283.303H285.495V280.796ZM299.41 278.749H302.492V300.047H299.41V278.749ZM317.487 279.761C320.753 279.761 323.168 281.831 323.168 284.729C323.168 287.65 320.753 289.72 317.487 289.72C314.244 289.72 311.806 287.65 311.806 284.729C311.806 281.831 314.244 279.761 317.487 279.761ZM317.487 282.245C315.946 282.245 314.773 283.188 314.773 284.729C314.773 286.293 315.946 287.236 317.487 287.236C319.051 287.236 320.224 286.293 320.224 284.729C320.224 283.188 319.051 282.245 317.487 282.245ZM325.376 278.749H328.435V289.237H325.376V278.749ZM327.216 283.165H331.264V285.649H327.216V283.165ZM313.554 297.057H314.727C316.59 297.057 318.223 296.919 319.787 296.39L320.247 298.782C318.476 299.403 316.82 299.495 314.727 299.495H313.554V297.057ZM313.554 291.284H316.521V297.793H313.554V291.284ZM319.488 291.353H330.137V293.538H319.488V291.353ZM324.824 294.067C327.239 294.067 328.918 295.24 328.918 297.08C328.918 298.92 327.239 300.07 324.824 300.07C322.386 300.07 320.707 298.92 320.707 297.08C320.707 295.24 322.386 294.067 324.824 294.067ZM324.824 296.16C323.996 296.16 323.421 296.459 323.421 297.08C323.421 297.701 323.996 298 324.824 298C325.606 298 326.204 297.701 326.204 297.08C326.204 296.459 325.606 296.16 324.824 296.16ZM323.352 289.835H326.319V292.986H323.352V289.835ZM335.218 284.499H349.984V286.914H335.218V284.499ZM332.826 289.122H352.123V291.56H332.826V289.122ZM335.218 279.508H338.254V285.695H335.218V279.508ZM335.011 297.149H350.099V299.587H335.011V297.149ZM335.011 293.262H338.07V297.793H335.011V293.262ZM360.863 288.041H362.68C367.073 288.041 369.626 287.995 372.547 287.512L372.846 289.881C369.856 290.387 367.165 290.433 362.68 290.433H360.863V288.041ZM360.863 279.968H371.098V282.383H363.899V289.03H360.863V279.968ZM362.956 283.993H370.477V286.362H362.956V283.993ZM374.318 278.772H377.4V291.399H374.318V278.772ZM363.232 292.273H377.4V299.817H363.232V292.273ZM374.387 294.665H366.222V297.402H374.387V294.665Z" fill="black"/>
<path d="M127.303 376.545V379.911H126.158V376.545H127.303ZM129.675 376.545V379.911H128.53V376.545H129.675ZM131.156 379.786H141.816V380.657H131.156V379.786ZM132.144 375.717H135.264V376.588H132.144V375.717ZM134.9 375.717H135.953V376.055C135.953 376.705 135.953 378.148 135.407 380.111L134.354 379.981C134.9 378.031 134.9 376.731 134.9 376.055V375.717ZM136.746 375.717H139.918V376.588H136.746V375.717ZM139.437 375.717H140.49V376.224C140.49 376.991 140.49 378.33 140.022 380.163L138.969 380.007C139.437 378.213 139.437 376.978 139.437 376.224V375.717ZM132.495 381.892H140.516V382.724H133.574V386.247H132.495V381.892ZM132.495 386.026H140.594V386.858H132.495V386.026ZM133.119 383.946H140.217V384.752H133.119V383.946ZM151.162 375.262H152.241V381.19H151.162V375.262ZM151.942 377.693H153.983V378.59H151.942V377.693ZM143.687 375.769H144.766V380.28H143.687V375.769ZM143.687 379.708H144.61C146.287 379.708 148.042 379.591 149.953 379.201L150.083 380.098C148.107 380.501 146.352 380.618 144.61 380.618H143.687V379.708ZM144.779 381.749H152.241V384.648H145.871V386.429H144.805V383.816H151.175V382.62H144.779V381.749ZM144.805 385.987H152.67V386.858H144.805V385.987ZM165.248 375.509H166.249V386.429H165.248V375.509ZM165.833 380.046H168.004V380.93H165.833V380.046ZM158.865 383.062H159.333C159.788 383.062 160.555 383.049 161.465 382.828L161.556 383.725C160.581 383.959 159.827 383.959 159.333 383.959H158.865V383.062ZM158.865 376.731H161.374V377.615H159.866V383.569H158.865V376.731ZM161.881 383.062H162.375C162.999 383.062 163.818 383.036 164.715 382.789L164.819 383.686C163.857 383.946 163.051 383.959 162.375 383.959H161.881V383.062ZM161.881 376.731H164.468V377.615H162.869V383.53H161.881V376.731ZM167.627 375.262H168.654V387.014H167.627V375.262ZM178.637 375.262H179.703V387.014H178.637V375.262ZM179.365 380.098H181.458V381.008H179.365V380.098ZM173.008 376.523H173.996C173.996 379.357 173.398 382.1 171.292 384.375L170.421 383.764C172.358 381.749 173.008 379.305 173.008 376.64V376.523ZM170.798 376.523H173.411V377.42H170.798V376.523ZM176.206 376.523H177.207C177.207 379.37 176.804 382.594 174.646 385.155L173.775 384.557C175.764 382.256 176.206 379.344 176.206 376.627V376.523ZM174.373 376.523H176.648V377.42H174.373V376.523ZM185.552 376.939H186.423V378.85C186.423 381.333 184.928 383.829 183.056 384.752L182.432 383.894C184.135 383.088 185.552 380.878 185.552 378.85V376.939ZM185.76 376.939H186.631V378.85C186.631 380.839 188.048 382.867 189.777 383.608L189.166 384.466C187.268 383.582 185.76 381.294 185.76 378.85V376.939ZM182.822 376.458H189.387V377.368H182.822V376.458ZM190.973 375.262H192.052V387.014H190.973V375.262ZM195.834 378.785H203.816V379.669H195.834V378.785ZM194.391 381.242H205.051V382.126H194.391V381.242ZM195.834 375.691H196.9V379.227H195.834V375.691ZM195.756 385.844H203.881V386.728H195.756V385.844ZM195.756 383.296H196.822V386.078H195.756V383.296ZM217.838 375.262H218.917V382.828H217.838V375.262ZM218.618 378.525H220.659V379.422H218.618V378.525ZM215.225 382.932C217.604 382.932 219.047 383.673 219.047 384.96C219.047 386.247 217.604 386.988 215.225 386.988C212.859 386.988 211.403 386.247 211.403 384.96C211.403 383.673 212.859 382.932 215.225 382.932ZM215.225 383.764C213.509 383.764 212.469 384.206 212.469 384.96C212.469 385.727 213.509 386.156 215.225 386.156C216.954 386.156 217.994 385.727 217.994 384.96C217.994 384.206 216.954 383.764 215.225 383.764ZM209.83 376.588H216.772V377.446H209.83V376.588ZM213.301 378.044C214.978 378.044 216.109 378.85 216.109 380.111C216.109 381.385 214.978 382.191 213.301 382.191C211.611 382.191 210.48 381.385 210.48 380.111C210.48 378.85 211.611 378.044 213.301 378.044ZM213.301 378.863C212.222 378.863 211.507 379.357 211.507 380.111C211.507 380.878 212.222 381.372 213.301 381.372C214.354 381.372 215.082 380.878 215.082 380.111C215.082 379.357 214.354 378.863 213.301 378.863ZM212.755 375.158H213.834V377.069H212.755V375.158ZM224.61 375.873H225.507V377.069C225.507 379.331 224.233 381.203 222.27 381.97L221.698 381.099C223.466 380.449 224.61 378.863 224.61 377.069V375.873ZM224.805 375.873H225.689V377.147C225.689 378.733 226.859 380.202 228.549 380.787L227.977 381.632C226.092 380.93 224.805 379.188 224.805 377.147V375.873ZM229.797 375.262H230.876V382.386H229.797V375.262ZM230.577 378.291H232.618V379.201H230.577V378.291ZM227.132 382.711C229.537 382.711 230.993 383.504 230.993 384.856C230.993 386.208 229.537 386.988 227.132 386.988C224.727 386.988 223.271 386.208 223.271 384.856C223.271 383.504 224.727 382.711 227.132 382.711ZM227.132 383.569C225.39 383.569 224.324 384.037 224.324 384.856C224.324 385.675 225.39 386.143 227.132 386.143C228.874 386.143 229.94 385.675 229.94 384.856C229.94 384.037 228.874 383.569 227.132 383.569ZM241.92 380.904H242.986V382.698H241.92V380.904ZM238.566 375.444H239.632V376.536H245.313V375.444H246.392V379.318H238.566V375.444ZM239.632 377.368V378.486H245.313V377.368H239.632ZM237.149 380.28H247.77V381.151H237.149V380.28ZM238.436 382.295H246.418V384.908H239.528V386.364H238.462V384.128H245.352V383.114H238.436V382.295ZM238.462 386.052H246.769V386.884H238.462V386.052ZM257.064 375.249H258.156V387.014H257.064V375.249ZM257.857 380.02H260.028V380.917H257.857V380.02ZM254.061 376.523H255.114C255.114 379.864 253.58 382.88 249.784 384.791L249.186 383.959C252.436 382.308 254.061 379.799 254.061 376.692V376.523ZM249.732 376.523H254.62V377.407H249.732V376.523ZM262.523 378.525H270.492V379.409H262.523V378.525ZM262.523 375.496H263.589V378.915H262.523V375.496ZM261.08 380.774H271.701V381.645H261.08V380.774ZM266.371 382.698C268.88 382.698 270.401 383.465 270.401 384.843C270.401 386.195 268.88 386.975 266.371 386.975C263.862 386.975 262.341 386.195 262.341 384.843C262.341 383.465 263.862 382.698 266.371 382.698ZM266.371 383.543C264.538 383.543 263.433 384.011 263.433 384.843C263.433 385.649 264.538 386.117 266.371 386.117C268.217 386.117 269.309 385.649 269.309 384.843C269.309 384.011 268.217 383.543 266.371 383.543ZM281.073 375.275H282.152V384.089H281.073V375.275ZM281.814 379.123H283.894V380.033H281.814V379.123ZM273.065 376.692H280.007V377.563H273.065V376.692ZM276.536 378.213C278.2 378.213 279.344 379.084 279.344 380.41C279.344 381.723 278.2 382.594 276.536 382.594C274.859 382.594 273.715 381.723 273.715 380.41C273.715 379.084 274.859 378.213 276.536 378.213ZM276.536 379.058C275.47 379.058 274.742 379.591 274.742 380.41C274.742 381.216 275.47 381.749 276.536 381.749C277.589 381.749 278.317 381.216 278.317 380.41C278.317 379.591 277.589 379.058 276.536 379.058ZM275.99 375.262H277.069V377.147H275.99V375.262ZM274.833 385.87H282.685V386.754H274.833V385.87ZM274.833 383.387H275.912V386.247H274.833V383.387ZM297.019 375.262H298.098V383.218H297.019V375.262ZM294.497 378.577H297.24V379.461H294.497V378.577ZM293.327 376.185H294.458C294.458 379.227 292.456 381.385 289.089 382.477L288.634 381.619C291.611 380.683 293.327 378.915 293.327 376.614V376.185ZM289.193 376.185H294.094V377.069H289.193V376.185ZM293.769 382.204H294.692V382.737C294.692 384.986 292.638 386.507 290.285 386.988L289.856 386.13C291.936 385.753 293.769 384.453 293.769 382.737V382.204ZM293.925 382.204H294.848V382.737C294.848 384.427 296.655 385.727 298.748 386.104L298.293 386.962C295.953 386.494 293.925 384.973 293.925 382.737V382.204ZM308.991 375.249H310.057V387.027H308.991V375.249ZM306.456 379.968H309.303V380.865H306.456V379.968ZM303.388 378.057H304.246V379.058C304.246 381.541 302.881 383.829 301.022 384.752L300.411 383.92C302.14 383.088 303.388 381.086 303.388 379.058V378.057ZM303.596 378.057H304.441V379.058C304.441 380.995 305.728 382.906 307.457 383.699L306.859 384.531C304.974 383.66 303.596 381.463 303.596 379.058V378.057ZM300.736 377.303H307.054V378.174H300.736V377.303ZM303.375 375.47H304.454V377.784H303.375V375.47ZM314.346 382.815H322.016V386.858H314.346V382.815ZM320.963 383.673H315.399V385.987H320.963V383.673ZM320.937 375.275H322.016V382.165H320.937V375.275ZM318.753 377.888H321.288V378.772H318.753V377.888ZM312.838 380.813H313.735C315.724 380.813 317.206 380.761 318.987 380.475L319.078 381.359C317.245 381.645 315.763 381.697 313.735 381.697H312.838V380.813ZM312.812 375.86H318.025V379.136H313.904V381.463H312.838V378.304H316.959V376.731H312.812V375.86ZM329.056 380.566H337.194V381.463H329.056V380.566ZM327.756 384.505H338.403V385.402H327.756V384.505ZM329.056 376.289H330.135V380.969H329.056V376.289ZM348.256 375.262H349.335V387.014H348.256V375.262ZM345.955 378.434H348.711V379.318H345.955V378.434ZM345.214 381.567H348.594V382.451H345.214V381.567ZM342.198 376.536H343.199C343.199 379.331 342.549 382.087 340.443 384.336L339.598 383.712C341.496 381.723 342.198 379.292 342.198 376.64V376.536ZM340.001 376.536H342.614V377.42H340.001V376.536ZM345.357 376.536H346.358C346.358 379.331 345.929 382.594 343.797 385.129L342.913 384.544C344.863 382.243 345.357 379.331 345.357 376.627V376.536ZM343.563 376.536H345.812V377.42H343.563V376.536ZM348.256 375.262H349.335V387.014H348.256V375.262ZM354.794 376.549H355.691V377.745C355.691 379.903 354.365 381.71 352.389 382.425L351.83 381.567C353.598 380.943 354.794 379.422 354.794 377.745V376.549ZM355.002 376.549H355.899V377.745C355.899 379.331 357.121 380.761 358.863 381.346L358.304 382.191C356.354 381.528 355.002 379.812 355.002 377.745V376.549ZM352.116 376.237H358.551V377.108H352.116V376.237ZM360.215 375.275H361.307V383.868H360.215V375.275ZM353.754 385.87H361.658V386.754H353.754V385.87ZM353.754 383.062H354.82V386.26H353.754V383.062ZM371.576 375.249H372.668V387.027H371.576V375.249ZM372.408 379.89H374.592V380.8H372.408V379.89ZM364.127 383.192H365.05C367.221 383.192 368.742 383.114 370.497 382.789L370.614 383.699C368.807 384.037 367.26 384.102 365.05 384.102H364.127V383.192ZM364.127 376.393H369.587V377.277H365.193V383.595H364.127V376.393ZM376.779 386.088C376.527 386.088 376.31 385.998 376.128 385.82C375.947 385.638 375.856 385.42 375.856 385.164C375.856 384.912 375.947 384.697 376.128 384.518C376.31 384.337 376.527 384.246 376.779 384.246C377.032 384.246 377.249 384.337 377.43 384.518C377.612 384.697 377.703 384.912 377.703 385.164C377.703 385.334 377.659 385.489 377.573 385.631C377.49 385.769 377.379 385.88 377.241 385.963C377.102 386.046 376.949 386.088 376.779 386.088ZM379.457 376.545V379.911H378.312V376.545H379.457ZM381.83 376.545V379.911H380.685V376.545H381.83ZM199.73 396.673V397.873H195.538V396.673H199.73ZM212.752 392.545V402H211.441L206.635 395.066H206.547V402H205.121V392.545H206.441L211.251 399.489H211.339V392.545H212.752ZM217.778 402.143C217.079 402.143 216.478 401.994 215.973 401.695C215.471 401.394 215.083 400.971 214.81 400.426C214.539 399.878 214.403 399.236 214.403 398.501C214.403 397.774 214.539 397.134 214.81 396.58C215.083 396.026 215.465 395.594 215.954 395.283C216.447 394.972 217.022 394.817 217.681 394.817C218.081 394.817 218.469 394.883 218.844 395.015C219.22 395.148 219.557 395.355 219.855 395.638C220.154 395.922 220.389 396.289 220.562 396.742C220.734 397.191 220.82 397.737 220.82 398.381V398.87H215.184V397.836H219.468C219.468 397.473 219.394 397.151 219.246 396.871C219.098 396.588 218.891 396.365 218.623 396.202C218.358 396.039 218.047 395.957 217.69 395.957C217.302 395.957 216.964 396.052 216.675 396.243C216.388 396.431 216.167 396.677 216.01 396.982C215.856 397.283 215.779 397.611 215.779 397.965V398.773C215.779 399.247 215.862 399.65 216.028 399.983C216.198 400.315 216.433 400.569 216.735 400.744C217.036 400.917 217.389 401.003 217.792 401.003C218.053 401.003 218.292 400.966 218.507 400.892C218.723 400.815 218.909 400.701 219.066 400.55C219.223 400.4 219.343 400.213 219.426 399.992L220.733 400.227C220.628 400.612 220.44 400.949 220.169 401.238C219.902 401.525 219.565 401.748 219.158 401.908C218.755 402.065 218.295 402.143 217.778 402.143ZM223.732 392.545V402H222.352V392.545H223.732ZM230.903 396.64L229.652 396.862C229.599 396.702 229.516 396.549 229.402 396.405C229.291 396.26 229.141 396.142 228.95 396.049C228.759 395.957 228.521 395.911 228.234 395.911C227.843 395.911 227.517 395.999 227.256 396.174C226.994 396.346 226.863 396.569 226.863 396.843C226.863 397.08 226.951 397.271 227.126 397.416C227.302 397.56 227.585 397.679 227.976 397.771L229.102 398.03C229.755 398.181 230.241 398.413 230.561 398.727C230.881 399.041 231.041 399.449 231.041 399.95C231.041 400.375 230.918 400.754 230.672 401.086C230.429 401.415 230.089 401.674 229.652 401.862C229.218 402.049 228.714 402.143 228.142 402.143C227.348 402.143 226.7 401.974 226.198 401.635C225.697 401.294 225.389 400.809 225.275 400.181L226.609 399.978C226.692 400.326 226.863 400.589 227.122 400.767C227.38 400.943 227.717 401.031 228.133 401.031C228.585 401.031 228.947 400.937 229.218 400.749C229.488 400.558 229.624 400.326 229.624 400.052C229.624 399.83 229.541 399.644 229.375 399.493C229.211 399.342 228.961 399.229 228.622 399.152L227.422 398.888C226.76 398.738 226.271 398.498 225.954 398.168C225.64 397.839 225.483 397.422 225.483 396.917C225.483 396.499 225.6 396.132 225.834 395.819C226.068 395.505 226.391 395.26 226.803 395.085C227.216 394.906 227.688 394.817 228.22 394.817C228.987 394.817 229.59 394.983 230.03 395.315C230.47 395.645 230.761 396.086 230.903 396.64ZM235.546 402.143C234.881 402.143 234.301 401.991 233.805 401.686C233.31 401.381 232.925 400.955 232.651 400.407C232.377 399.859 232.24 399.219 232.24 398.487C232.24 397.751 232.377 397.108 232.651 396.557C232.925 396.006 233.31 395.578 233.805 395.274C234.301 394.969 234.881 394.817 235.546 394.817C236.21 394.817 236.791 394.969 237.286 395.274C237.782 395.578 238.166 396.006 238.44 396.557C238.714 397.108 238.851 397.751 238.851 398.487C238.851 399.219 238.714 399.859 238.44 400.407C238.166 400.955 237.782 401.381 237.286 401.686C236.791 401.991 236.21 402.143 235.546 402.143ZM235.55 400.984C235.981 400.984 236.338 400.871 236.621 400.643C236.904 400.415 237.114 400.112 237.249 399.733C237.388 399.355 237.457 398.938 237.457 398.482C237.457 398.03 237.388 397.614 237.249 397.236C237.114 396.854 236.904 396.548 236.621 396.317C236.338 396.086 235.981 395.971 235.55 395.971C235.116 395.971 234.756 396.086 234.47 396.317C234.187 396.548 233.976 396.854 233.838 397.236C233.702 397.614 233.634 398.03 233.634 398.482C233.634 398.938 233.702 399.355 233.838 399.733C233.976 400.112 234.187 400.415 234.47 400.643C234.756 400.871 235.116 400.984 235.55 400.984ZM241.772 397.79V402H240.392V394.909H241.717V396.063H241.804C241.968 395.688 242.223 395.386 242.571 395.158C242.922 394.931 243.363 394.817 243.896 394.817C244.379 394.817 244.802 394.918 245.165 395.121C245.528 395.321 245.81 395.62 246.01 396.017C246.21 396.414 246.31 396.905 246.31 397.49V402H244.93V397.656C244.93 397.142 244.796 396.74 244.528 396.451C244.26 396.159 243.893 396.012 243.425 396.012C243.105 396.012 242.82 396.082 242.571 396.22C242.325 396.359 242.129 396.562 241.984 396.83C241.843 397.094 241.772 397.414 241.772 397.79ZM251.713 392.545H253.444L256.454 399.895H256.564L259.574 392.545H261.306V402H259.948V395.158H259.861L257.072 401.986H255.946L253.157 395.154H253.07V402H251.713V392.545ZM265.332 402.157C264.883 402.157 264.477 402.074 264.114 401.908C263.75 401.738 263.463 401.494 263.25 401.174C263.041 400.854 262.936 400.461 262.936 399.996C262.936 399.596 263.013 399.267 263.167 399.009C263.321 398.75 263.529 398.545 263.79 398.395C264.052 398.244 264.344 398.13 264.668 398.053C264.991 397.976 265.32 397.917 265.655 397.877C266.08 397.828 266.425 397.788 266.69 397.757C266.954 397.724 267.147 397.67 267.267 397.596C267.387 397.522 267.447 397.402 267.447 397.236V397.203C267.447 396.8 267.333 396.488 267.105 396.266C266.88 396.045 266.545 395.934 266.099 395.934C265.634 395.934 265.268 396.037 265 396.243C264.735 396.446 264.552 396.673 264.451 396.922L263.153 396.626C263.307 396.196 263.532 395.848 263.827 395.583C264.126 395.315 264.469 395.121 264.857 395.001C265.245 394.878 265.652 394.817 266.08 394.817C266.363 394.817 266.663 394.851 266.98 394.918C267.3 394.983 267.599 395.103 267.876 395.278C268.156 395.454 268.385 395.705 268.564 396.031C268.742 396.354 268.832 396.774 268.832 397.291V402H267.484V401.031H267.428C267.339 401.209 267.205 401.384 267.027 401.557C266.848 401.729 266.619 401.872 266.339 401.986C266.059 402.1 265.723 402.157 265.332 402.157ZM265.632 401.049C266.014 401.049 266.34 400.974 266.611 400.823C266.885 400.672 267.093 400.475 267.234 400.232C267.379 399.986 267.451 399.723 267.451 399.442V398.528C267.402 398.578 267.307 398.624 267.165 398.667C267.027 398.707 266.868 398.742 266.69 398.773C266.511 398.801 266.337 398.827 266.168 398.852C265.999 398.873 265.857 398.892 265.743 398.907C265.475 398.941 265.231 398.998 265.009 399.078C264.791 399.158 264.615 399.273 264.483 399.424C264.354 399.572 264.289 399.769 264.289 400.015C264.289 400.357 264.415 400.615 264.668 400.79C264.92 400.963 265.242 401.049 265.632 401.049ZM272.05 397.79V402H270.67V394.909H271.995V396.063H272.083C272.246 395.688 272.501 395.386 272.849 395.158C273.2 394.931 273.642 394.817 274.174 394.817C274.657 394.817 275.08 394.918 275.444 395.121C275.807 395.321 276.088 395.62 276.288 396.017C276.488 396.414 276.588 396.905 276.588 397.49V402H275.208V397.656C275.208 397.142 275.074 396.74 274.806 396.451C274.539 396.159 274.171 396.012 273.703 396.012C273.383 396.012 273.098 396.082 272.849 396.22C272.603 396.359 272.407 396.562 272.263 396.83C272.121 397.094 272.05 397.414 272.05 397.79ZM281.094 402.138C280.522 402.138 280.011 401.992 279.561 401.7C279.115 401.404 278.764 400.984 278.509 400.44C278.257 399.892 278.13 399.235 278.13 398.468C278.13 397.702 278.258 397.047 278.513 396.502C278.772 395.957 279.126 395.54 279.575 395.251C280.025 394.961 280.534 394.817 281.103 394.817C281.543 394.817 281.897 394.891 282.165 395.038C282.436 395.183 282.645 395.352 282.793 395.546C282.944 395.74 283.061 395.911 283.144 396.059H283.227V392.545H284.607V402H283.259V400.897H283.144C283.061 401.047 282.941 401.22 282.784 401.414C282.63 401.608 282.417 401.777 282.147 401.922C281.876 402.066 281.525 402.138 281.094 402.138ZM281.399 400.961C281.796 400.961 282.131 400.857 282.405 400.647C282.682 400.435 282.891 400.141 283.033 399.766C283.178 399.39 283.25 398.953 283.25 398.455C283.25 397.962 283.179 397.531 283.038 397.162C282.896 396.793 282.688 396.505 282.414 396.299C282.141 396.092 281.802 395.989 281.399 395.989C280.983 395.989 280.637 396.097 280.36 396.312C280.083 396.528 279.874 396.822 279.732 397.194C279.594 397.567 279.525 397.987 279.525 398.455C279.525 398.929 279.595 399.355 279.737 399.733C279.878 400.112 280.088 400.412 280.365 400.634C280.645 400.852 280.989 400.961 281.399 400.961ZM289.633 402.143C288.935 402.143 288.333 401.994 287.828 401.695C287.327 401.394 286.939 400.971 286.665 400.426C286.394 399.878 286.259 399.236 286.259 398.501C286.259 397.774 286.394 397.134 286.665 396.58C286.939 396.026 287.321 395.594 287.81 395.283C288.302 394.972 288.878 394.817 289.536 394.817C289.937 394.817 290.324 394.883 290.7 395.015C291.075 395.148 291.412 395.355 291.711 395.638C292.009 395.922 292.245 396.289 292.417 396.742C292.59 397.191 292.676 397.737 292.676 398.381V398.87H287.039V397.836H291.323C291.323 397.473 291.249 397.151 291.101 396.871C290.954 396.588 290.746 396.365 290.478 396.202C290.214 396.039 289.903 395.957 289.546 395.957C289.158 395.957 288.819 396.052 288.53 396.243C288.244 396.431 288.022 396.677 287.865 396.982C287.711 397.283 287.634 397.611 287.634 397.965V398.773C287.634 399.247 287.718 399.65 287.884 399.983C288.053 400.315 288.289 400.569 288.59 400.744C288.892 400.917 289.244 401.003 289.647 401.003C289.909 401.003 290.147 400.966 290.363 400.892C290.578 400.815 290.764 400.701 290.921 400.55C291.078 400.4 291.198 400.213 291.282 399.992L292.588 400.227C292.483 400.612 292.296 400.949 292.025 401.238C291.757 401.525 291.42 401.748 291.014 401.908C290.611 402.065 290.15 402.143 289.633 402.143ZM295.588 392.545V402H294.207V392.545H295.588ZM299.508 402.157C299.059 402.157 298.652 402.074 298.289 401.908C297.926 401.738 297.638 401.494 297.426 401.174C297.217 400.854 297.112 400.461 297.112 399.996C297.112 399.596 297.189 399.267 297.343 399.009C297.497 398.75 297.705 398.545 297.966 398.395C298.228 398.244 298.52 398.13 298.843 398.053C299.166 397.976 299.496 397.917 299.831 397.877C300.256 397.828 300.601 397.788 300.865 397.757C301.13 397.724 301.322 397.67 301.442 397.596C301.562 397.522 301.622 397.402 301.622 397.236V397.203C301.622 396.8 301.509 396.488 301.281 396.266C301.056 396.045 300.721 395.934 300.274 395.934C299.81 395.934 299.443 396.037 299.176 396.243C298.911 396.446 298.728 396.673 298.626 396.922L297.329 396.626C297.483 396.196 297.708 395.848 298.003 395.583C298.302 395.315 298.645 395.121 299.033 395.001C299.42 394.878 299.828 394.817 300.256 394.817C300.539 394.817 300.839 394.851 301.156 394.918C301.476 394.983 301.775 395.103 302.052 395.278C302.332 395.454 302.561 395.705 302.74 396.031C302.918 396.354 303.007 396.774 303.007 397.291V402H301.659V401.031H301.604C301.515 401.209 301.381 401.384 301.202 401.557C301.024 401.729 300.795 401.872 300.514 401.986C300.234 402.1 299.899 402.157 299.508 402.157ZM299.808 401.049C300.19 401.049 300.516 400.974 300.787 400.823C301.061 400.672 301.268 400.475 301.41 400.232C301.555 399.986 301.627 399.723 301.627 399.442V398.528C301.578 398.578 301.482 398.624 301.341 398.667C301.202 398.707 301.044 398.742 300.865 398.773C300.687 398.801 300.513 398.827 300.344 398.852C300.174 398.873 300.033 398.892 299.919 398.907C299.651 398.941 299.407 398.998 299.185 399.078C298.966 399.158 298.791 399.273 298.659 399.424C298.529 399.572 298.465 399.769 298.465 400.015C298.465 400.357 298.591 400.615 298.843 400.79C299.096 400.963 299.417 401.049 299.808 401.049ZM312.464 397.407V398.602H308.272V397.407H312.464Z" fill="#8F8F8F"/>
<defs>
<filter id="filter0_d_1107_29" x="0" y="0" width="960" height="580" filterUnits="userSpaceOnUse" color-interpolation-filters="sRGB">
<feFlood flood-opacity="0" result="BackgroundImageFix"/>
<feColorMatrix in="SourceAlpha" type="matrix" values="0 0 0 0 0 0 0 0 0 0 0 0 0 0 0 0 0 0 127 0" result="hardAlpha"/>
<feOffset/>
<feGaussianBlur stdDeviation="15"/>
<feComposite in2="hardAlpha" operator="out"/>
<feColorMatrix type="matrix" values="0 0 0 0 0 0 0 0 0 0 0 0 0 0 0 0 0 0 0.15 0"/>
<feBlend mode="normal" in2="BackgroundImageFix" result="effect1_dropShadow_1107_29"/>
<feBlend mode="normal" in="SourceGraphic" in2="effect1_dropShadow_1107_29" result="shape"/>
</filter>
</defs>
</svg>
