<svg width="960" height="580" viewBox="0 0 960 580" fill="none" xmlns="http://www.w3.org/2000/svg">
<g filter="url(#filter0_d_1075_26)">
<rect x="30" y="30" width="900" height="520" rx="10" fill="white"/>
</g>
<path d="M184.828 194.724H179.516C179.364 193.853 179.085 193.081 178.678 192.409C178.271 191.727 177.764 191.15 177.158 190.676C176.552 190.203 175.861 189.848 175.084 189.611C174.317 189.365 173.489 189.241 172.598 189.241C171.017 189.241 169.615 189.639 168.394 190.435C167.172 191.221 166.216 192.376 165.525 193.901C164.833 195.416 164.488 197.267 164.488 199.455C164.488 201.68 164.833 203.555 165.525 205.08C166.225 206.595 167.182 207.741 168.394 208.517C169.615 209.284 171.012 209.668 172.584 209.668C173.455 209.668 174.27 209.554 175.027 209.327C175.794 209.09 176.481 208.744 177.087 208.29C177.703 207.835 178.219 207.277 178.635 206.614C179.061 205.951 179.355 205.193 179.516 204.341L184.828 204.369C184.63 205.752 184.199 207.049 183.536 208.261C182.882 209.473 182.025 210.544 180.965 211.472C179.904 212.39 178.664 213.11 177.243 213.631C175.823 214.142 174.246 214.398 172.513 214.398C169.956 214.398 167.674 213.806 165.667 212.622C163.659 211.438 162.078 209.729 160.922 207.494C159.767 205.259 159.189 202.58 159.189 199.455C159.189 196.32 159.772 193.64 160.936 191.415C162.101 189.18 163.687 187.471 165.695 186.287C167.703 185.103 169.975 184.511 172.513 184.511C174.132 184.511 175.638 184.739 177.03 185.193C178.422 185.648 179.663 186.315 180.752 187.196C181.841 188.067 182.736 189.137 183.436 190.406C184.147 191.666 184.611 193.105 184.828 194.724ZM194.569 201.216V214H189.427V184.909H194.456V195.889H194.711C195.223 194.658 196.013 193.687 197.083 192.977C198.163 192.258 199.536 191.898 201.203 191.898C202.718 191.898 204.039 192.215 205.166 192.849C206.293 193.484 207.164 194.412 207.779 195.634C208.404 196.855 208.717 198.347 208.717 200.108V214H203.575V200.903C203.575 199.436 203.196 198.295 202.439 197.48C201.69 196.656 200.639 196.244 199.285 196.244C198.376 196.244 197.562 196.443 196.842 196.841C196.132 197.229 195.573 197.793 195.166 198.531C194.768 199.27 194.569 200.165 194.569 201.216ZM220.237 214.44C218.854 214.44 217.609 214.194 216.501 213.702C215.403 213.2 214.531 212.461 213.887 211.486C213.253 210.51 212.936 209.308 212.936 207.878C212.936 206.647 213.163 205.629 213.618 204.824C214.072 204.019 214.692 203.375 215.478 202.892C216.264 202.409 217.15 202.045 218.135 201.798C219.129 201.543 220.156 201.358 221.217 201.244C222.495 201.112 223.532 200.993 224.328 200.889C225.123 200.776 225.701 200.605 226.061 200.378C226.43 200.141 226.615 199.777 226.615 199.284V199.199C226.615 198.129 226.297 197.3 225.663 196.713C225.029 196.126 224.115 195.832 222.922 195.832C221.662 195.832 220.663 196.107 219.924 196.656C219.195 197.205 218.703 197.854 218.447 198.602L213.646 197.92C214.025 196.595 214.65 195.487 215.521 194.597C216.392 193.697 217.458 193.025 218.717 192.58C219.976 192.125 221.368 191.898 222.893 191.898C223.944 191.898 224.991 192.021 226.032 192.267C227.074 192.513 228.026 192.92 228.887 193.489C229.749 194.047 230.44 194.81 230.961 195.776C231.492 196.741 231.757 197.949 231.757 199.398V214H226.814V211.003H226.643C226.331 211.609 225.89 212.177 225.322 212.707C224.763 213.228 224.058 213.65 223.206 213.972C222.363 214.284 221.373 214.44 220.237 214.44ZM221.572 210.662C222.604 210.662 223.499 210.458 224.257 210.051C225.014 209.634 225.597 209.085 226.004 208.403C226.421 207.722 226.629 206.978 226.629 206.173V203.602C226.468 203.735 226.193 203.858 225.805 203.972C225.426 204.085 225 204.185 224.527 204.27C224.053 204.355 223.584 204.431 223.12 204.497C222.656 204.563 222.254 204.62 221.913 204.668C221.146 204.772 220.459 204.942 219.853 205.179C219.247 205.416 218.769 205.747 218.419 206.173C218.068 206.59 217.893 207.13 217.893 207.793C217.893 208.74 218.239 209.455 218.93 209.938C219.621 210.42 220.502 210.662 221.572 210.662ZM242.069 184.909V214H236.927V184.909H242.069ZM252.499 184.909V214H247.357V184.909H252.499ZM267.446 214.426C265.258 214.426 263.369 213.972 261.778 213.062C260.197 212.144 258.98 210.847 258.127 209.17C257.275 207.485 256.849 205.501 256.849 203.219C256.849 200.974 257.275 199.005 258.127 197.31C258.989 195.605 260.192 194.279 261.735 193.332C263.279 192.376 265.092 191.898 267.176 191.898C268.52 191.898 269.789 192.116 270.983 192.551C272.185 192.977 273.246 193.64 274.164 194.54C275.092 195.439 275.822 196.585 276.352 197.977C276.882 199.36 277.147 201.008 277.147 202.92V204.497H259.264V201.031H272.218C272.209 200.046 271.996 199.17 271.579 198.403C271.163 197.627 270.58 197.016 269.832 196.571C269.093 196.126 268.232 195.903 267.247 195.903C266.196 195.903 265.272 196.159 264.477 196.67C263.681 197.172 263.061 197.835 262.616 198.659C262.181 199.473 261.958 200.368 261.949 201.344V204.369C261.949 205.638 262.181 206.727 262.645 207.636C263.109 208.536 263.757 209.227 264.591 209.71C265.424 210.184 266.399 210.42 267.517 210.42C268.265 210.42 268.942 210.316 269.548 210.108C270.154 209.89 270.68 209.573 271.125 209.156C271.57 208.74 271.906 208.223 272.133 207.608L276.934 208.148C276.631 209.417 276.054 210.525 275.201 211.472C274.359 212.409 273.279 213.138 271.963 213.659C270.646 214.17 269.141 214.426 267.446 214.426ZM286.64 201.216V214H281.498V192.182H286.412V195.889H286.668C287.17 194.668 287.97 193.697 289.069 192.977C290.176 192.258 291.545 191.898 293.174 191.898C294.679 191.898 295.991 192.22 297.108 192.864C298.235 193.508 299.106 194.44 299.722 195.662C300.347 196.884 300.655 198.366 300.645 200.108V214H295.503V200.903C295.503 199.445 295.124 198.304 294.367 197.48C293.619 196.656 292.582 196.244 291.256 196.244C290.356 196.244 289.556 196.443 288.855 196.841C288.164 197.229 287.62 197.793 287.222 198.531C286.834 199.27 286.64 200.165 286.64 201.216ZM315.361 222.636C313.515 222.636 311.928 222.385 310.603 221.884C309.277 221.391 308.212 220.728 307.407 219.895C306.602 219.062 306.043 218.138 305.73 217.125L310.361 216.003C310.569 216.429 310.873 216.85 311.27 217.267C311.668 217.693 312.203 218.044 312.875 218.318C313.557 218.602 314.414 218.744 315.446 218.744C316.905 218.744 318.112 218.389 319.069 217.679C320.025 216.978 320.503 215.823 320.503 214.213V210.08H320.248C319.982 210.61 319.594 211.154 319.083 211.713C318.581 212.272 317.913 212.741 317.08 213.119C316.256 213.498 315.219 213.688 313.969 213.688C312.293 213.688 310.773 213.295 309.409 212.509C308.055 211.713 306.976 210.529 306.171 208.957C305.375 207.376 304.978 205.397 304.978 203.02C304.978 200.624 305.375 198.602 306.171 196.955C306.976 195.297 308.06 194.043 309.424 193.19C310.787 192.329 312.307 191.898 313.983 191.898C315.262 191.898 316.313 192.116 317.137 192.551C317.97 192.977 318.633 193.493 319.125 194.099C319.618 194.696 319.992 195.259 320.248 195.79H320.532V192.182H325.603V214.355C325.603 216.221 325.158 217.764 324.267 218.986C323.377 220.207 322.16 221.121 320.617 221.727C319.073 222.333 317.321 222.636 315.361 222.636ZM315.404 209.653C316.493 209.653 317.421 209.388 318.188 208.858C318.955 208.328 319.537 207.565 319.935 206.571C320.333 205.577 320.532 204.384 320.532 202.991C320.532 201.618 320.333 200.416 319.935 199.384C319.547 198.351 318.969 197.551 318.202 196.983C317.444 196.405 316.512 196.116 315.404 196.116C314.258 196.116 313.301 196.415 312.534 197.011C311.767 197.608 311.19 198.427 310.801 199.469C310.413 200.501 310.219 201.675 310.219 202.991C310.219 204.327 310.413 205.496 310.801 206.5C311.199 207.494 311.782 208.271 312.549 208.83C313.325 209.379 314.277 209.653 315.404 209.653ZM340.532 214.426C338.344 214.426 336.455 213.972 334.864 213.062C333.283 212.144 332.066 210.847 331.213 209.17C330.361 207.485 329.935 205.501 329.935 203.219C329.935 200.974 330.361 199.005 331.213 197.31C332.075 195.605 333.278 194.279 334.821 193.332C336.365 192.376 338.178 191.898 340.262 191.898C341.606 191.898 342.875 192.116 344.069 192.551C345.271 192.977 346.332 193.64 347.25 194.54C348.178 195.439 348.908 196.585 349.438 197.977C349.968 199.36 350.233 201.008 350.233 202.92V204.497H332.35V201.031H345.304C345.295 200.046 345.082 199.17 344.665 198.403C344.248 197.627 343.666 197.016 342.918 196.571C342.179 196.126 341.318 195.903 340.333 195.903C339.282 195.903 338.358 196.159 337.563 196.67C336.767 197.172 336.147 197.835 335.702 198.659C335.266 199.473 335.044 200.368 335.034 201.344V204.369C335.034 205.638 335.266 206.727 335.73 207.636C336.194 208.536 336.843 209.227 337.676 209.71C338.51 210.184 339.485 210.42 340.603 210.42C341.351 210.42 342.028 210.316 342.634 210.108C343.24 209.89 343.766 209.573 344.211 209.156C344.656 208.74 344.992 208.223 345.219 207.608L350.02 208.148C349.717 209.417 349.14 210.525 348.287 211.472C347.444 212.409 346.365 213.138 345.049 213.659C343.732 214.17 342.227 214.426 340.532 214.426Z" fill="black"/>
<path d="M61.4546 295.44H77.8546V296.78H61.4546V295.44ZM62.9746 289.18H67.7746V290.52H62.9746V289.18ZM67.2146 289.18H68.8346V289.7C68.8346 290.7 68.8346 292.92 67.9946 295.94L66.3746 295.74C67.2146 292.74 67.2146 290.74 67.2146 289.7V289.18ZM70.0546 289.18H74.9346V290.52H70.0546V289.18ZM74.1946 289.18H75.8146V289.96C75.8146 291.14 75.8146 293.2 75.0946 296.02L73.4746 295.78C74.1946 293.02 74.1946 291.12 74.1946 289.96V289.18ZM63.5146 298.68H75.8546V299.96H65.1746V305.38H63.5146V298.68ZM63.5146 305.04H75.9746V306.32H63.5146V305.04ZM64.4746 301.84H75.3946V303.08H64.4746V301.84ZM81.933 299.08H83.493V301.34H86.653V299.08H88.193V306.32H81.933V299.08ZM83.493 302.58V305.02H86.653V302.58H83.493ZM91.693 298.98H92.973V300.48C92.973 302.94 91.733 305.42 89.233 306.48L88.393 305.22C90.573 304.3 91.693 302.32 91.693 300.48V298.98ZM92.033 298.98H93.313V300.48C93.313 302.42 94.433 304.38 96.613 305.22L95.773 306.48C93.253 305.44 92.033 303.04 92.033 300.48V298.98ZM88.953 292.72H93.813V294.1H88.953V292.72ZM84.793 289.28C87.493 289.28 89.453 290.96 89.453 293.44C89.453 295.9 87.493 297.6 84.793 297.6C82.093 297.6 80.133 295.9 80.133 293.44C80.133 290.96 82.093 289.28 84.793 289.28ZM84.793 290.66C83.013 290.66 81.733 291.8 81.733 293.44C81.733 295.06 83.013 296.22 84.793 296.22C86.573 296.22 87.853 295.06 87.853 293.44C87.853 291.8 86.573 290.66 84.793 290.66ZM93.073 288.48H94.733V298.06H93.073V288.48ZM100.471 293.9H112.751V295.26H100.471V293.9ZM98.2515 297.68H114.651V299.04H98.2515V297.68ZM100.471 289.14H102.111V294.58H100.471V289.14ZM100.351 304.76H112.851V306.12H100.351V304.76ZM100.351 300.84H101.991V305.12H100.351V300.84ZM126.503 289.5H127.883V291.36C127.883 294.86 125.903 297.72 122.803 298.88L121.943 297.52C124.703 296.54 126.503 294.12 126.503 291.36V289.5ZM126.803 289.5H128.163V291.3C128.163 293.86 129.923 296.12 132.563 297.04L131.663 298.34C128.743 297.24 126.803 294.58 126.803 291.3V289.5ZM135.163 288.48H136.823V299.18H135.163V288.48ZM130.883 299.7C134.603 299.7 136.903 300.96 136.903 303.12C136.903 305.28 134.603 306.52 130.883 306.52C127.143 306.52 124.843 305.28 124.843 303.12C124.843 300.96 127.143 299.7 130.883 299.7ZM130.883 301.02C128.163 301.02 126.503 301.8 126.503 303.12C126.503 304.44 128.163 305.22 130.883 305.22C133.603 305.22 135.263 304.44 135.263 303.12C135.263 301.8 133.603 301.02 130.883 301.02ZM131.243 292.3H135.523V293.68H131.243V292.3ZM148.461 299.88C152.301 299.88 154.761 301.14 154.761 303.22C154.761 305.28 152.301 306.52 148.461 306.52C144.601 306.52 142.161 305.28 142.161 303.22C142.161 301.14 144.601 299.88 148.461 299.88ZM148.461 301.18C145.621 301.18 143.801 301.96 143.801 303.22C143.801 304.46 145.621 305.24 148.461 305.24C151.301 305.24 153.101 304.46 153.101 303.22C153.101 301.96 151.301 301.18 148.461 301.18ZM142.301 289.38H153.941V290.74H142.301V289.38ZM140.361 296.9H156.681V298.24H140.361V296.9ZM147.061 293.42H148.701V297.28H147.061V293.42ZM152.981 289.38H154.601V290.92C154.601 292.38 154.601 293.84 154.121 295.72L152.481 295.52C152.981 293.66 152.981 292.34 152.981 290.92V289.38ZM159.56 290.46H167.74V291.8H159.56V290.46ZM162.38 295.62H164.02V301.74H162.38V295.62ZM167.06 290.46H168.68V291.42C168.68 292.9 168.68 295.26 168.16 298.62L166.52 298.46C167.06 295.2 167.06 292.88 167.06 291.42V290.46ZM170.96 288.48H172.6V306.56H170.96V288.48ZM172.16 296.04H175.5V297.44H172.16V296.04ZM158.76 302.62L158.56 301.22C161.84 301.22 166.2 301.16 169.86 300.7L169.94 301.92C166.2 302.52 161.96 302.6 158.76 302.62ZM186.991 289.5H188.371V291.36C188.371 294.86 186.391 297.72 183.291 298.88L182.431 297.52C185.191 296.54 186.991 294.12 186.991 291.36V289.5ZM187.291 289.5H188.651V291.3C188.651 293.86 190.411 296.12 193.051 297.04L192.151 298.34C189.231 297.24 187.291 294.58 187.291 291.3V289.5ZM195.651 288.48H197.311V299.18H195.651V288.48ZM191.371 299.7C195.091 299.7 197.391 300.96 197.391 303.12C197.391 305.28 195.091 306.52 191.371 306.52C187.631 306.52 185.331 305.28 185.331 303.12C185.331 300.96 187.631 299.7 191.371 299.7ZM191.371 301.02C188.651 301.02 186.991 301.8 186.991 303.12C186.991 304.44 188.651 305.22 191.371 305.22C194.091 305.22 195.751 304.44 195.751 303.12C195.751 301.8 194.091 301.02 191.371 301.02ZM191.731 292.3H196.011V293.68H191.731V292.3ZM205.29 290.42H206.65V291.88C206.65 295.2 204.65 297.98 201.61 299.08L200.77 297.76C203.49 296.8 205.29 294.46 205.29 291.88V290.42ZM205.59 290.42H206.95V291.86C206.95 294.22 208.67 296.34 211.33 297.22L210.53 298.52C207.51 297.52 205.59 294.94 205.59 291.86V290.42ZM201.27 289.82H210.93V291.18H201.27V289.82ZM213.21 288.48H214.87V299.38H213.21V288.48ZM214.41 293.06H217.55V294.46H214.41V293.06ZM209.11 299.86C212.79 299.86 215.05 301.08 215.05 303.18C215.05 305.3 212.79 306.52 209.11 306.52C205.43 306.52 203.17 305.3 203.17 303.18C203.17 301.08 205.43 299.86 209.11 299.86ZM209.11 301.2C206.43 301.2 204.79 301.92 204.79 303.18C204.79 304.46 206.43 305.22 209.11 305.22C211.79 305.22 213.43 304.46 213.43 303.18C213.43 301.92 211.79 301.2 209.11 301.2ZM227.408 288.78C231.388 288.78 233.768 289.9 233.768 291.92C233.768 293.94 231.388 295.06 227.408 295.06C223.408 295.06 221.048 293.94 221.048 291.92C221.048 289.9 223.408 288.78 227.408 288.78ZM227.408 290.04C224.448 290.04 222.748 290.72 222.748 291.92C222.748 293.12 224.448 293.8 227.408 293.8C230.348 293.8 232.048 293.12 232.048 291.92C232.048 290.72 230.348 290.04 227.408 290.04ZM219.228 296.26H235.568V297.6H219.228V296.26ZM221.208 299.14H233.488V303.22H222.888V305.42H221.248V302.02H231.848V300.42H221.208V299.14ZM221.248 305.06H234.028V306.36H221.248V305.06ZM245.019 289.22H257.179V295.38H245.019V289.22ZM255.539 290.56H246.639V294.04H255.539V290.56ZM242.919 297.64H259.259V298.98H242.919V297.64ZM250.279 295.02H251.919V298.14H250.279V295.02ZM244.739 300.84H257.239V306.56H255.579V302.2H244.739V300.84ZM265.858 298.28H267.518V303.44H265.858V298.28ZM271.438 298.28H273.078V303.44H271.438V298.28ZM261.338 303H277.718V304.38H261.338V303ZM262.758 290.14H276.178V291.5H262.758V290.14ZM262.798 297.38H276.158V298.72H262.798V297.38ZM265.578 291.24H267.238V297.66H265.578V291.24ZM271.738 291.24H273.378V297.66H271.738V291.24ZM279.736 302.96H296.116V304.34H279.736V302.96ZM287.056 299.08H288.716V303.54H287.056V299.08ZM281.716 289.82H294.096V295.3H283.416V298.92H281.776V293.96H292.456V291.16H281.716V289.82ZM281.776 298.22H294.516V299.58H281.776V298.22ZM315.668 288.48H317.328V306.56H315.668V288.48ZM316.928 295.9H320.288V297.3H316.928V295.9ZM303.328 291.36H313.988V292.72H303.328V291.36ZM308.728 294.22C311.288 294.22 313.128 295.94 313.128 298.38C313.128 300.82 311.288 302.54 308.728 302.54C306.188 302.54 304.328 300.82 304.328 298.38C304.328 295.94 306.188 294.22 308.728 294.22ZM308.728 295.6C307.088 295.6 305.908 296.74 305.908 298.38C305.908 300 307.088 301.16 308.728 301.16C310.368 301.16 311.548 300 311.548 298.38C311.548 296.74 310.368 295.6 308.728 295.6ZM307.868 288.7H309.528V291.98H307.868V288.7ZM324.026 293.9H336.306V295.26H324.026V293.9ZM321.806 297.68H338.206V299.04H321.806V297.68ZM324.026 289.14H325.666V294.58H324.026V289.14ZM323.906 304.76H336.406V306.12H323.906V304.76ZM323.906 300.84H325.546V305.12H323.906V300.84ZM345.498 298.84H361.898V300.2H345.498V298.84ZM352.818 299.68H354.458V306.56H352.818V299.68ZM353.658 289.2C357.438 289.2 359.978 290.74 359.978 293.16C359.978 295.58 357.438 297.12 353.658 297.12C349.898 297.12 347.338 295.58 347.338 293.16C347.338 290.74 349.898 289.2 353.658 289.2ZM353.658 290.54C350.898 290.54 349.018 291.56 349.018 293.16C349.018 294.76 350.898 295.78 353.658 295.78C356.418 295.78 358.278 294.76 358.278 293.16C358.278 291.56 356.418 290.54 353.658 290.54ZM377.076 288.46H378.736V306.58H377.076V288.46ZM364.956 300.84H366.456C369.476 300.84 372.176 300.72 375.376 300.2L375.556 301.56C372.276 302.1 369.556 302.22 366.456 302.22H364.956V300.84ZM364.916 290.16H373.276V296.62H366.616V301.36H364.956V295.26H371.596V291.52H364.916V290.16ZM400.286 295.185H398.07C397.985 294.711 397.827 294.295 397.595 293.935C397.363 293.575 397.079 293.269 396.742 293.018C396.406 292.768 396.03 292.578 395.613 292.45C395.201 292.322 394.763 292.259 394.299 292.259C393.461 292.259 392.711 292.469 392.048 292.891C391.39 293.312 390.869 293.93 390.485 294.744C390.106 295.559 389.917 296.553 389.917 297.727C389.917 298.911 390.106 299.91 390.485 300.724C390.869 301.539 391.392 302.154 392.055 302.571C392.718 302.988 393.463 303.196 394.292 303.196C394.751 303.196 395.187 303.134 395.599 303.011C396.016 302.884 396.392 302.696 396.728 302.45C397.064 302.204 397.348 301.903 397.58 301.548C397.817 301.188 397.981 300.777 398.07 300.312L400.286 300.32C400.168 301.035 399.938 301.693 399.597 302.294C399.261 302.891 398.828 303.407 398.298 303.842C397.772 304.273 397.171 304.607 396.494 304.844C395.817 305.08 395.078 305.199 394.278 305.199C393.018 305.199 391.896 304.901 390.911 304.304C389.927 303.703 389.15 302.843 388.582 301.726C388.018 300.608 387.737 299.276 387.737 297.727C387.737 296.174 388.021 294.841 388.589 293.729C389.157 292.611 389.934 291.754 390.919 291.158C391.903 290.556 393.023 290.256 394.278 290.256C395.05 290.256 395.769 290.367 396.437 290.589C397.109 290.807 397.713 291.129 398.248 291.555C398.783 291.977 399.226 292.493 399.576 293.104C399.927 293.71 400.163 294.403 400.286 295.185ZM414.653 290.455V305H412.635L405.242 294.332H405.107V305H402.912V290.455H404.944L412.344 301.136H412.479V290.455H414.653ZM425.787 294.276C425.711 293.603 425.399 293.082 424.85 292.713C424.3 292.339 423.609 292.152 422.776 292.152C422.179 292.152 421.663 292.247 421.227 292.436C420.792 292.621 420.453 292.876 420.212 293.203C419.975 293.525 419.857 293.892 419.857 294.304C419.857 294.65 419.937 294.948 420.098 295.199C420.264 295.45 420.479 295.661 420.744 295.831C421.014 295.997 421.303 296.136 421.611 296.25C421.919 296.359 422.215 296.449 422.499 296.52L423.919 296.889C424.383 297.003 424.859 297.157 425.347 297.351C425.834 297.545 426.287 297.801 426.703 298.118C427.12 298.435 427.456 298.828 427.712 299.297C427.972 299.766 428.102 300.327 428.102 300.98C428.102 301.804 427.889 302.536 427.463 303.175C427.042 303.814 426.429 304.318 425.624 304.688C424.824 305.057 423.855 305.241 422.719 305.241C421.63 305.241 420.688 305.069 419.892 304.723C419.097 304.377 418.474 303.887 418.024 303.253C417.575 302.614 417.326 301.856 417.279 300.98H419.48C419.523 301.506 419.693 301.944 419.992 302.294C420.295 302.64 420.681 302.898 421.149 303.068C421.623 303.234 422.141 303.317 422.705 303.317C423.325 303.317 423.877 303.22 424.36 303.026C424.847 302.827 425.231 302.552 425.51 302.202C425.789 301.847 425.929 301.432 425.929 300.959C425.929 300.528 425.806 300.175 425.56 299.901C425.318 299.626 424.989 299.399 424.573 299.219C424.161 299.039 423.694 298.88 423.173 298.743L421.455 298.274C420.29 297.957 419.367 297.491 418.685 296.875C418.008 296.259 417.669 295.445 417.669 294.432C417.669 293.594 417.896 292.862 418.351 292.237C418.806 291.612 419.421 291.127 420.198 290.781C420.974 290.431 421.85 290.256 422.825 290.256C423.81 290.256 424.679 290.429 425.432 290.774C426.19 291.12 426.786 291.596 427.222 292.202C427.657 292.803 427.885 293.494 427.904 294.276H425.787ZM432.327 293.9H444.607V295.26H432.327V293.9ZM430.107 297.68H446.507V299.04H430.107V297.68ZM432.327 289.14H433.967V294.58H432.327V289.14ZM432.207 304.76H444.707V306.12H432.207V304.76ZM432.207 300.84H433.847V305.12H432.207V300.84ZM120.146 320.92H132.566V322.28H120.146V320.92ZM118.086 326.9H134.466V328.3H118.086V326.9ZM125.406 321.5H127.066V327.46H125.406V321.5ZM120.146 313.92H132.386V315.28H121.806V321.52H120.146V313.92ZM146.064 317.46H150.624V318.82H146.064V317.46ZM149.684 312.5H151.344V325.74H149.684V312.5ZM139.804 328.8H151.844V330.16H139.804V328.8ZM139.804 324.58H141.464V329.5H139.804V324.58ZM141.084 314.74H142.444V316.2C142.444 319.48 140.404 322.32 137.384 323.44L136.524 322.12C139.224 321.16 141.084 318.76 141.084 316.2V314.74ZM141.404 314.74H142.744V316.18C142.744 318.52 144.504 320.8 147.124 321.72L146.284 323.02C143.344 321.96 141.404 319.24 141.404 316.18V314.74ZM137.044 313.96H146.704V315.3H137.044V313.96ZM163.043 312.78C167.023 312.78 169.403 313.9 169.403 315.92C169.403 317.94 167.023 319.06 163.043 319.06C159.043 319.06 156.683 317.94 156.683 315.92C156.683 313.9 159.043 312.78 163.043 312.78ZM163.043 314.04C160.083 314.04 158.383 314.72 158.383 315.92C158.383 317.12 160.083 317.8 163.043 317.8C165.983 317.8 167.683 317.12 167.683 315.92C167.683 314.72 165.983 314.04 163.043 314.04ZM154.863 320.26H171.203V321.6H154.863V320.26ZM156.843 323.14H169.123V327.22H158.523V329.42H156.883V326.02H167.483V324.42H156.843V323.14ZM156.883 329.06H169.663V330.36H156.883V329.06ZM180.814 319.2H192.894V320.56H180.814V319.2ZM178.554 322.9H194.954V324.28H178.554V322.9ZM185.874 323.66H187.514V330.5H185.874V323.66ZM180.814 313.54H192.654V314.9H182.494V319.86H180.814V313.54ZM210.173 312.46H211.833V330.58H210.173V312.46ZM206.613 316.6H210.613V317.96H206.613V316.6ZM197.633 324.98H198.973C201.773 324.98 204.073 324.9 206.833 324.46L206.993 325.84C204.153 326.28 201.833 326.38 198.973 326.38H197.633V324.98ZM197.593 314.1H205.493V320.58H199.273V325.3H197.633V319.22H203.853V315.48H197.593V314.1ZM206.493 321.54H210.493V322.9H206.493V321.54ZM220.271 322.58H221.911V330H220.271V322.58ZM228.551 312.48H230.211V330.58H228.551V312.48ZM215.511 323.4L215.291 322C218.711 322 223.251 321.98 227.171 321.42L227.271 322.66C223.231 323.34 218.871 323.4 215.511 323.4ZM224.451 324.82H228.971V326.12H224.451V324.82ZM221.191 313.38C223.851 313.38 225.711 314.8 225.711 316.94C225.711 319.08 223.851 320.5 221.191 320.5C218.491 320.5 216.651 319.08 216.651 316.94C216.651 314.8 218.491 313.38 221.191 313.38ZM221.191 314.66C219.431 314.66 218.191 315.6 218.191 316.94C218.191 318.3 219.431 319.22 221.191 319.22C222.911 319.22 224.151 318.3 224.151 316.94C224.151 315.6 222.911 314.66 221.191 314.66ZM246.01 312.48H247.67V330.56H246.01V312.48ZM247.27 319.9H250.63V321.3H247.27V319.9ZM233.67 315.36H244.33V316.72H233.67V315.36ZM239.07 318.22C241.63 318.22 243.47 319.94 243.47 322.38C243.47 324.82 241.63 326.54 239.07 326.54C236.53 326.54 234.67 324.82 234.67 322.38C234.67 319.94 236.53 318.22 239.07 318.22ZM239.07 319.6C237.43 319.6 236.25 320.74 236.25 322.38C236.25 324 237.43 325.16 239.07 325.16C240.71 325.16 241.89 324 241.89 322.38C241.89 320.74 240.71 319.6 239.07 319.6ZM238.21 312.7H239.87V315.98H238.21V312.7ZM256.948 315.06H258.288V318C258.288 321.82 255.988 325.66 253.108 327.08L252.148 325.76C254.768 324.52 256.948 321.12 256.948 318V315.06ZM257.268 315.06H258.608V318C258.608 321.06 260.788 324.18 263.448 325.32L262.508 326.64C259.588 325.28 257.268 321.76 257.268 318V315.06ZM252.748 314.32H262.848V315.72H252.748V314.32ZM265.288 312.48H266.948V330.56H265.288V312.48ZM280.839 313.5C283.539 313.5 285.519 315.22 285.519 317.68C285.519 320.14 283.539 321.86 280.839 321.86C278.159 321.86 276.179 320.14 276.179 317.68C276.179 315.22 278.159 313.5 280.839 313.5ZM280.839 314.86C279.119 314.86 277.799 316.04 277.799 317.68C277.799 319.32 279.119 320.5 280.839 320.5C282.599 320.5 283.919 319.32 283.919 317.68C283.919 316.04 282.599 314.86 280.839 314.86ZM288.219 312.48H289.879V321.48H288.219V312.48ZM289.159 316.54H292.559V317.9H289.159V316.54ZM277.739 328.72H278.599C279.679 328.72 281.419 328.62 282.959 328.1L283.239 329.44C281.499 330 279.839 330.08 278.599 330.08H277.739V328.72ZM277.739 323.44H279.359V329.2H277.739V323.44ZM282.579 323.56H291.659V324.8H282.579V323.56ZM287.139 325.44C289.099 325.44 290.479 326.42 290.479 327.98C290.479 329.56 289.099 330.54 287.139 330.54C285.159 330.54 283.779 329.56 283.779 327.98C283.779 326.42 285.159 325.44 287.139 325.44ZM287.139 326.62C286.019 326.62 285.259 327.16 285.259 327.98C285.259 328.82 286.019 329.36 287.139 329.36C288.219 329.36 288.999 328.82 288.999 327.98C288.999 327.16 288.219 326.62 287.139 326.62ZM286.319 321.94H287.939V324.52H286.319V321.94ZM296.458 317.9H308.738V319.26H296.458V317.9ZM294.238 321.68H310.638V323.04H294.238V321.68ZM296.458 313.14H298.098V318.58H296.458V313.14ZM296.338 328.76H308.838V330.12H296.338V328.76ZM296.338 324.84H297.978V329.12H296.338V324.84ZM318.989 320.84H320.449C324.349 320.84 326.489 320.76 329.029 320.32L329.209 321.64C326.589 322.1 324.389 322.16 320.449 322.16H318.989V320.84ZM318.989 313.58H327.589V314.92H320.629V321.52H318.989V313.58ZM320.089 317.14H327.089V318.48H320.089V317.14ZM331.089 312.5H332.769V323.26H331.089V312.5ZM321.089 324.16H332.769V330.32H321.089V324.16ZM331.129 325.5H322.709V328.98H331.129V325.5ZM349.488 312.48H351.168V322.18H349.488V312.48ZM339.508 323.08H341.148V325.28H349.528V323.08H351.168V330.32H339.508V323.08ZM341.148 326.6V328.98H349.528V326.6H341.148ZM341.468 313.34C344.208 313.34 346.168 315.04 346.168 317.5C346.168 319.98 344.208 321.68 341.468 321.68C338.728 321.68 336.748 319.98 336.748 317.5C336.748 315.04 338.728 313.34 341.468 313.34ZM341.468 314.72C339.668 314.72 338.368 315.86 338.368 317.5C338.368 319.14 339.668 320.28 341.468 320.28C343.268 320.28 344.568 319.14 344.568 317.5C344.568 315.86 343.268 314.72 341.468 314.72ZM367.886 312.48H369.546V330.56H367.886V312.48ZM355.886 314.24H357.526V325.44H355.886V314.24ZM355.886 324.46H357.366C360.106 324.46 362.966 324.26 366.026 323.62L366.226 325.04C363.086 325.68 360.226 325.9 357.366 325.9H355.886V324.46ZM385.365 312.46H387.045V330.58H385.365V312.46ZM386.645 319.6H390.005V321H386.645V319.6ZM373.905 324.68H375.325C378.665 324.68 381.005 324.56 383.705 324.06L383.885 325.46C381.105 325.98 378.725 326.08 375.325 326.08H373.905V324.68ZM373.905 314.22H382.305V315.58H375.545V325.3H373.905V314.22ZM393.37 329.135C392.981 329.135 392.648 328.998 392.368 328.723C392.089 328.444 391.949 328.107 391.949 327.714C391.949 327.326 392.089 326.995 392.368 326.72C392.648 326.441 392.981 326.301 393.37 326.301C393.758 326.301 394.092 326.441 394.371 326.72C394.65 326.995 394.79 327.326 394.79 327.714C394.79 327.975 394.724 328.214 394.591 328.432C394.463 328.645 394.293 328.815 394.08 328.943C393.867 329.071 393.63 329.135 393.37 329.135Z" fill="black"/>
<path d="M127.303 376.545V379.911H126.158V376.545H127.303ZM129.675 376.545V379.911H128.53V376.545H129.675ZM131.156 379.786H141.816V380.657H131.156V379.786ZM132.144 375.717H135.264V376.588H132.144V375.717ZM134.9 375.717H135.953V376.055C135.953 376.705 135.953 378.148 135.407 380.111L134.354 379.981C134.9 378.031 134.9 376.731 134.9 376.055V375.717ZM136.746 375.717H139.918V376.588H136.746V375.717ZM139.437 375.717H140.49V376.224C140.49 376.991 140.49 378.33 140.022 380.163L138.969 380.007C139.437 378.213 139.437 376.978 139.437 376.224V375.717ZM132.495 381.892H140.516V382.724H133.574V386.247H132.495V381.892ZM132.495 386.026H140.594V386.858H132.495V386.026ZM133.119 383.946H140.217V384.752H133.119V383.946ZM151.162 375.262H152.241V381.19H151.162V375.262ZM151.942 377.693H153.983V378.59H151.942V377.693ZM143.687 375.769H144.766V380.28H143.687V375.769ZM143.687 379.708H144.61C146.287 379.708 148.042 379.591 149.953 379.201L150.083 380.098C148.107 380.501 146.352 380.618 144.61 380.618H143.687V379.708ZM144.779 381.749H152.241V384.648H145.871V386.429H144.805V383.816H151.175V382.62H144.779V381.749ZM144.805 385.987H152.67V386.858H144.805V385.987ZM165.248 375.509H166.249V386.429H165.248V375.509ZM165.833 380.046H168.004V380.93H165.833V380.046ZM158.865 383.062H159.333C159.788 383.062 160.555 383.049 161.465 382.828L161.556 383.725C160.581 383.959 159.827 383.959 159.333 383.959H158.865V383.062ZM158.865 376.731H161.374V377.615H159.866V383.569H158.865V376.731ZM161.881 383.062H162.375C162.999 383.062 163.818 383.036 164.715 382.789L164.819 383.686C163.857 383.946 163.051 383.959 162.375 383.959H161.881V383.062ZM161.881 376.731H164.468V377.615H162.869V383.53H161.881V376.731ZM167.627 375.262H168.654V387.014H167.627V375.262ZM178.637 375.262H179.703V387.014H178.637V375.262ZM179.365 380.098H181.458V381.008H179.365V380.098ZM173.008 376.523H173.996C173.996 379.357 173.398 382.1 171.292 384.375L170.421 383.764C172.358 381.749 173.008 379.305 173.008 376.64V376.523ZM170.798 376.523H173.411V377.42H170.798V376.523ZM176.206 376.523H177.207C177.207 379.37 176.804 382.594 174.646 385.155L173.775 384.557C175.764 382.256 176.206 379.344 176.206 376.627V376.523ZM174.373 376.523H176.648V377.42H174.373V376.523ZM185.552 376.939H186.423V378.85C186.423 381.333 184.928 383.829 183.056 384.752L182.432 383.894C184.135 383.088 185.552 380.878 185.552 378.85V376.939ZM185.76 376.939H186.631V378.85C186.631 380.839 188.048 382.867 189.777 383.608L189.166 384.466C187.268 383.582 185.76 381.294 185.76 378.85V376.939ZM182.822 376.458H189.387V377.368H182.822V376.458ZM190.973 375.262H192.052V387.014H190.973V375.262ZM195.834 378.785H203.816V379.669H195.834V378.785ZM194.391 381.242H205.051V382.126H194.391V381.242ZM195.834 375.691H196.9V379.227H195.834V375.691ZM195.756 385.844H203.881V386.728H195.756V385.844ZM195.756 383.296H196.822V386.078H195.756V383.296ZM217.838 375.262H218.917V382.828H217.838V375.262ZM218.618 378.525H220.659V379.422H218.618V378.525ZM215.225 382.932C217.604 382.932 219.047 383.673 219.047 384.96C219.047 386.247 217.604 386.988 215.225 386.988C212.859 386.988 211.403 386.247 211.403 384.96C211.403 383.673 212.859 382.932 215.225 382.932ZM215.225 383.764C213.509 383.764 212.469 384.206 212.469 384.96C212.469 385.727 213.509 386.156 215.225 386.156C216.954 386.156 217.994 385.727 217.994 384.96C217.994 384.206 216.954 383.764 215.225 383.764ZM209.83 376.588H216.772V377.446H209.83V376.588ZM213.301 378.044C214.978 378.044 216.109 378.85 216.109 380.111C216.109 381.385 214.978 382.191 213.301 382.191C211.611 382.191 210.48 381.385 210.48 380.111C210.48 378.85 211.611 378.044 213.301 378.044ZM213.301 378.863C212.222 378.863 211.507 379.357 211.507 380.111C211.507 380.878 212.222 381.372 213.301 381.372C214.354 381.372 215.082 380.878 215.082 380.111C215.082 379.357 214.354 378.863 213.301 378.863ZM212.755 375.158H213.834V377.069H212.755V375.158ZM224.61 375.873H225.507V377.069C225.507 379.331 224.233 381.203 222.27 381.97L221.698 381.099C223.466 380.449 224.61 378.863 224.61 377.069V375.873ZM224.805 375.873H225.689V377.147C225.689 378.733 226.859 380.202 228.549 380.787L227.977 381.632C226.092 380.93 224.805 379.188 224.805 377.147V375.873ZM229.797 375.262H230.876V382.386H229.797V375.262ZM230.577 378.291H232.618V379.201H230.577V378.291ZM227.132 382.711C229.537 382.711 230.993 383.504 230.993 384.856C230.993 386.208 229.537 386.988 227.132 386.988C224.727 386.988 223.271 386.208 223.271 384.856C223.271 383.504 224.727 382.711 227.132 382.711ZM227.132 383.569C225.39 383.569 224.324 384.037 224.324 384.856C224.324 385.675 225.39 386.143 227.132 386.143C228.874 386.143 229.94 385.675 229.94 384.856C229.94 384.037 228.874 383.569 227.132 383.569ZM241.92 380.904H242.986V382.698H241.92V380.904ZM238.566 375.444H239.632V376.536H245.313V375.444H246.392V379.318H238.566V375.444ZM239.632 377.368V378.486H245.313V377.368H239.632ZM237.149 380.28H247.77V381.151H237.149V380.28ZM238.436 382.295H246.418V384.908H239.528V386.364H238.462V384.128H245.352V383.114H238.436V382.295ZM238.462 386.052H246.769V386.884H238.462V386.052ZM257.064 375.249H258.156V387.014H257.064V375.249ZM257.857 380.02H260.028V380.917H257.857V380.02ZM254.061 376.523H255.114C255.114 379.864 253.58 382.88 249.784 384.791L249.186 383.959C252.436 382.308 254.061 379.799 254.061 376.692V376.523ZM249.732 376.523H254.62V377.407H249.732V376.523ZM262.523 378.525H270.492V379.409H262.523V378.525ZM262.523 375.496H263.589V378.915H262.523V375.496ZM261.08 380.774H271.701V381.645H261.08V380.774ZM266.371 382.698C268.88 382.698 270.401 383.465 270.401 384.843C270.401 386.195 268.88 386.975 266.371 386.975C263.862 386.975 262.341 386.195 262.341 384.843C262.341 383.465 263.862 382.698 266.371 382.698ZM266.371 383.543C264.538 383.543 263.433 384.011 263.433 384.843C263.433 385.649 264.538 386.117 266.371 386.117C268.217 386.117 269.309 385.649 269.309 384.843C269.309 384.011 268.217 383.543 266.371 383.543ZM281.073 375.275H282.152V384.089H281.073V375.275ZM281.814 379.123H283.894V380.033H281.814V379.123ZM273.065 376.692H280.007V377.563H273.065V376.692ZM276.536 378.213C278.2 378.213 279.344 379.084 279.344 380.41C279.344 381.723 278.2 382.594 276.536 382.594C274.859 382.594 273.715 381.723 273.715 380.41C273.715 379.084 274.859 378.213 276.536 378.213ZM276.536 379.058C275.47 379.058 274.742 379.591 274.742 380.41C274.742 381.216 275.47 381.749 276.536 381.749C277.589 381.749 278.317 381.216 278.317 380.41C278.317 379.591 277.589 379.058 276.536 379.058ZM275.99 375.262H277.069V377.147H275.99V375.262ZM274.833 385.87H282.685V386.754H274.833V385.87ZM274.833 383.387H275.912V386.247H274.833V383.387ZM297.019 375.262H298.098V383.218H297.019V375.262ZM294.497 378.577H297.24V379.461H294.497V378.577ZM293.327 376.185H294.458C294.458 379.227 292.456 381.385 289.089 382.477L288.634 381.619C291.611 380.683 293.327 378.915 293.327 376.614V376.185ZM289.193 376.185H294.094V377.069H289.193V376.185ZM293.769 382.204H294.692V382.737C294.692 384.986 292.638 386.507 290.285 386.988L289.856 386.13C291.936 385.753 293.769 384.453 293.769 382.737V382.204ZM293.925 382.204H294.848V382.737C294.848 384.427 296.655 385.727 298.748 386.104L298.293 386.962C295.953 386.494 293.925 384.973 293.925 382.737V382.204ZM308.991 375.249H310.057V387.027H308.991V375.249ZM306.456 379.968H309.303V380.865H306.456V379.968ZM303.388 378.057H304.246V379.058C304.246 381.541 302.881 383.829 301.022 384.752L300.411 383.92C302.14 383.088 303.388 381.086 303.388 379.058V378.057ZM303.596 378.057H304.441V379.058C304.441 380.995 305.728 382.906 307.457 383.699L306.859 384.531C304.974 383.66 303.596 381.463 303.596 379.058V378.057ZM300.736 377.303H307.054V378.174H300.736V377.303ZM303.375 375.47H304.454V377.784H303.375V375.47ZM314.346 382.815H322.016V386.858H314.346V382.815ZM320.963 383.673H315.399V385.987H320.963V383.673ZM320.937 375.275H322.016V382.165H320.937V375.275ZM318.753 377.888H321.288V378.772H318.753V377.888ZM312.838 380.813H313.735C315.724 380.813 317.206 380.761 318.987 380.475L319.078 381.359C317.245 381.645 315.763 381.697 313.735 381.697H312.838V380.813ZM312.812 375.86H318.025V379.136H313.904V381.463H312.838V378.304H316.959V376.731H312.812V375.86ZM329.056 380.566H337.194V381.463H329.056V380.566ZM327.756 384.505H338.403V385.402H327.756V384.505ZM329.056 376.289H330.135V380.969H329.056V376.289ZM348.256 375.262H349.335V387.014H348.256V375.262ZM345.955 378.434H348.711V379.318H345.955V378.434ZM345.214 381.567H348.594V382.451H345.214V381.567ZM342.198 376.536H343.199C343.199 379.331 342.549 382.087 340.443 384.336L339.598 383.712C341.496 381.723 342.198 379.292 342.198 376.64V376.536ZM340.001 376.536H342.614V377.42H340.001V376.536ZM345.357 376.536H346.358C346.358 379.331 345.929 382.594 343.797 385.129L342.913 384.544C344.863 382.243 345.357 379.331 345.357 376.627V376.536ZM343.563 376.536H345.812V377.42H343.563V376.536ZM348.256 375.262H349.335V387.014H348.256V375.262ZM354.794 376.549H355.691V377.745C355.691 379.903 354.365 381.71 352.389 382.425L351.83 381.567C353.598 380.943 354.794 379.422 354.794 377.745V376.549ZM355.002 376.549H355.899V377.745C355.899 379.331 357.121 380.761 358.863 381.346L358.304 382.191C356.354 381.528 355.002 379.812 355.002 377.745V376.549ZM352.116 376.237H358.551V377.108H352.116V376.237ZM360.215 375.275H361.307V383.868H360.215V375.275ZM353.754 385.87H361.658V386.754H353.754V385.87ZM353.754 383.062H354.82V386.26H353.754V383.062ZM371.576 375.249H372.668V387.027H371.576V375.249ZM372.408 379.89H374.592V380.8H372.408V379.89ZM364.127 383.192H365.05C367.221 383.192 368.742 383.114 370.497 382.789L370.614 383.699C368.807 384.037 367.26 384.102 365.05 384.102H364.127V383.192ZM364.127 376.393H369.587V377.277H365.193V383.595H364.127V376.393ZM376.779 386.088C376.527 386.088 376.31 385.998 376.128 385.82C375.947 385.638 375.856 385.42 375.856 385.164C375.856 384.912 375.947 384.697 376.128 384.518C376.31 384.337 376.527 384.246 376.779 384.246C377.032 384.246 377.249 384.337 377.43 384.518C377.612 384.697 377.703 384.912 377.703 385.164C377.703 385.334 377.659 385.489 377.573 385.631C377.49 385.769 377.379 385.88 377.241 385.963C377.102 386.046 376.949 386.088 376.779 386.088ZM379.457 376.545V379.911H378.312V376.545H379.457ZM381.83 376.545V379.911H380.685V376.545H381.83ZM199.73 396.673V397.873H195.538V396.673H199.73ZM212.752 392.545V402H211.441L206.635 395.066H206.547V402H205.121V392.545H206.441L211.251 399.489H211.339V392.545H212.752ZM217.778 402.143C217.079 402.143 216.478 401.994 215.973 401.695C215.471 401.394 215.083 400.971 214.81 400.426C214.539 399.878 214.403 399.236 214.403 398.501C214.403 397.774 214.539 397.134 214.81 396.58C215.083 396.026 215.465 395.594 215.954 395.283C216.447 394.972 217.022 394.817 217.681 394.817C218.081 394.817 218.469 394.883 218.844 395.015C219.22 395.148 219.557 395.355 219.855 395.638C220.154 395.922 220.389 396.289 220.562 396.742C220.734 397.191 220.82 397.737 220.82 398.381V398.87H215.184V397.836H219.468C219.468 397.473 219.394 397.151 219.246 396.871C219.098 396.588 218.891 396.365 218.623 396.202C218.358 396.039 218.047 395.957 217.69 395.957C217.302 395.957 216.964 396.052 216.675 396.243C216.388 396.431 216.167 396.677 216.01 396.982C215.856 397.283 215.779 397.611 215.779 397.965V398.773C215.779 399.247 215.862 399.65 216.028 399.983C216.198 400.315 216.433 400.569 216.735 400.744C217.036 400.917 217.389 401.003 217.792 401.003C218.053 401.003 218.292 400.966 218.507 400.892C218.723 400.815 218.909 400.701 219.066 400.55C219.223 400.4 219.343 400.213 219.426 399.992L220.733 400.227C220.628 400.612 220.44 400.949 220.169 401.238C219.902 401.525 219.565 401.748 219.158 401.908C218.755 402.065 218.295 402.143 217.778 402.143ZM223.732 392.545V402H222.352V392.545H223.732ZM230.903 396.64L229.652 396.862C229.599 396.702 229.516 396.549 229.402 396.405C229.291 396.26 229.141 396.142 228.95 396.049C228.759 395.957 228.521 395.911 228.234 395.911C227.843 395.911 227.517 395.999 227.256 396.174C226.994 396.346 226.863 396.569 226.863 396.843C226.863 397.08 226.951 397.271 227.126 397.416C227.302 397.56 227.585 397.679 227.976 397.771L229.102 398.03C229.755 398.181 230.241 398.413 230.561 398.727C230.881 399.041 231.041 399.449 231.041 399.95C231.041 400.375 230.918 400.754 230.672 401.086C230.429 401.415 230.089 401.674 229.652 401.862C229.218 402.049 228.714 402.143 228.142 402.143C227.348 402.143 226.7 401.974 226.198 401.635C225.697 401.294 225.389 400.809 225.275 400.181L226.609 399.978C226.692 400.326 226.863 400.589 227.122 400.767C227.38 400.943 227.717 401.031 228.133 401.031C228.585 401.031 228.947 400.937 229.218 400.749C229.488 400.558 229.624 400.326 229.624 400.052C229.624 399.83 229.541 399.644 229.375 399.493C229.211 399.342 228.961 399.229 228.622 399.152L227.422 398.888C226.76 398.738 226.271 398.498 225.954 398.168C225.64 397.839 225.483 397.422 225.483 396.917C225.483 396.499 225.6 396.132 225.834 395.819C226.068 395.505 226.391 395.26 226.803 395.085C227.216 394.906 227.688 394.817 228.22 394.817C228.987 394.817 229.59 394.983 230.03 395.315C230.47 395.645 230.761 396.086 230.903 396.64ZM235.546 402.143C234.881 402.143 234.301 401.991 233.805 401.686C233.31 401.381 232.925 400.955 232.651 400.407C232.377 399.859 232.24 399.219 232.24 398.487C232.24 397.751 232.377 397.108 232.651 396.557C232.925 396.006 233.31 395.578 233.805 395.274C234.301 394.969 234.881 394.817 235.546 394.817C236.21 394.817 236.791 394.969 237.286 395.274C237.782 395.578 238.166 396.006 238.44 396.557C238.714 397.108 238.851 397.751 238.851 398.487C238.851 399.219 238.714 399.859 238.44 400.407C238.166 400.955 237.782 401.381 237.286 401.686C236.791 401.991 236.21 402.143 235.546 402.143ZM235.55 400.984C235.981 400.984 236.338 400.871 236.621 400.643C236.904 400.415 237.114 400.112 237.249 399.733C237.388 399.355 237.457 398.938 237.457 398.482C237.457 398.03 237.388 397.614 237.249 397.236C237.114 396.854 236.904 396.548 236.621 396.317C236.338 396.086 235.981 395.971 235.55 395.971C235.116 395.971 234.756 396.086 234.47 396.317C234.187 396.548 233.976 396.854 233.838 397.236C233.702 397.614 233.634 398.03 233.634 398.482C233.634 398.938 233.702 399.355 233.838 399.733C233.976 400.112 234.187 400.415 234.47 400.643C234.756 400.871 235.116 400.984 235.55 400.984ZM241.772 397.79V402H240.392V394.909H241.717V396.063H241.804C241.968 395.688 242.223 395.386 242.571 395.158C242.922 394.931 243.363 394.817 243.896 394.817C244.379 394.817 244.802 394.918 245.165 395.121C245.528 395.321 245.81 395.62 246.01 396.017C246.21 396.414 246.31 396.905 246.31 397.49V402H244.93V397.656C244.93 397.142 244.796 396.74 244.528 396.451C244.26 396.159 243.893 396.012 243.425 396.012C243.105 396.012 242.82 396.082 242.571 396.22C242.325 396.359 242.129 396.562 241.984 396.83C241.843 397.094 241.772 397.414 241.772 397.79ZM251.713 392.545H253.444L256.454 399.895H256.564L259.574 392.545H261.306V402H259.948V395.158H259.861L257.072 401.986H255.946L253.157 395.154H253.07V402H251.713V392.545ZM265.332 402.157C264.883 402.157 264.477 402.074 264.114 401.908C263.75 401.738 263.463 401.494 263.25 401.174C263.041 400.854 262.936 400.461 262.936 399.996C262.936 399.596 263.013 399.267 263.167 399.009C263.321 398.75 263.529 398.545 263.79 398.395C264.052 398.244 264.344 398.13 264.668 398.053C264.991 397.976 265.32 397.917 265.655 397.877C266.08 397.828 266.425 397.788 266.69 397.757C266.954 397.724 267.147 397.67 267.267 397.596C267.387 397.522 267.447 397.402 267.447 397.236V397.203C267.447 396.8 267.333 396.488 267.105 396.266C266.88 396.045 266.545 395.934 266.099 395.934C265.634 395.934 265.268 396.037 265 396.243C264.735 396.446 264.552 396.673 264.451 396.922L263.153 396.626C263.307 396.196 263.532 395.848 263.827 395.583C264.126 395.315 264.469 395.121 264.857 395.001C265.245 394.878 265.652 394.817 266.08 394.817C266.363 394.817 266.663 394.851 266.98 394.918C267.3 394.983 267.599 395.103 267.876 395.278C268.156 395.454 268.385 395.705 268.564 396.031C268.742 396.354 268.832 396.774 268.832 397.291V402H267.484V401.031H267.428C267.339 401.209 267.205 401.384 267.027 401.557C266.848 401.729 266.619 401.872 266.339 401.986C266.059 402.1 265.723 402.157 265.332 402.157ZM265.632 401.049C266.014 401.049 266.34 400.974 266.611 400.823C266.885 400.672 267.093 400.475 267.234 400.232C267.379 399.986 267.451 399.723 267.451 399.442V398.528C267.402 398.578 267.307 398.624 267.165 398.667C267.027 398.707 266.868 398.742 266.69 398.773C266.511 398.801 266.337 398.827 266.168 398.852C265.999 398.873 265.857 398.892 265.743 398.907C265.475 398.941 265.231 398.998 265.009 399.078C264.791 399.158 264.615 399.273 264.483 399.424C264.354 399.572 264.289 399.769 264.289 400.015C264.289 400.357 264.415 400.615 264.668 400.79C264.92 400.963 265.242 401.049 265.632 401.049ZM272.05 397.79V402H270.67V394.909H271.995V396.063H272.083C272.246 395.688 272.501 395.386 272.849 395.158C273.2 394.931 273.642 394.817 274.174 394.817C274.657 394.817 275.08 394.918 275.444 395.121C275.807 395.321 276.088 395.62 276.288 396.017C276.488 396.414 276.588 396.905 276.588 397.49V402H275.208V397.656C275.208 397.142 275.074 396.74 274.806 396.451C274.539 396.159 274.171 396.012 273.703 396.012C273.383 396.012 273.098 396.082 272.849 396.22C272.603 396.359 272.407 396.562 272.263 396.83C272.121 397.094 272.05 397.414 272.05 397.79ZM281.094 402.138C280.522 402.138 280.011 401.992 279.561 401.7C279.115 401.404 278.764 400.984 278.509 400.44C278.257 399.892 278.13 399.235 278.13 398.468C278.13 397.702 278.258 397.047 278.513 396.502C278.772 395.957 279.126 395.54 279.575 395.251C280.025 394.961 280.534 394.817 281.103 394.817C281.543 394.817 281.897 394.891 282.165 395.038C282.436 395.183 282.645 395.352 282.793 395.546C282.944 395.74 283.061 395.911 283.144 396.059H283.227V392.545H284.607V402H283.259V400.897H283.144C283.061 401.047 282.941 401.22 282.784 401.414C282.63 401.608 282.417 401.777 282.147 401.922C281.876 402.066 281.525 402.138 281.094 402.138ZM281.399 400.961C281.796 400.961 282.131 400.857 282.405 400.647C282.682 400.435 282.891 400.141 283.033 399.766C283.178 399.39 283.25 398.953 283.25 398.455C283.25 397.962 283.179 397.531 283.038 397.162C282.896 396.793 282.688 396.505 282.414 396.299C282.141 396.092 281.802 395.989 281.399 395.989C280.983 395.989 280.637 396.097 280.36 396.312C280.083 396.528 279.874 396.822 279.732 397.194C279.594 397.567 279.525 397.987 279.525 398.455C279.525 398.929 279.595 399.355 279.737 399.733C279.878 400.112 280.088 400.412 280.365 400.634C280.645 400.852 280.989 400.961 281.399 400.961ZM289.633 402.143C288.935 402.143 288.333 401.994 287.828 401.695C287.327 401.394 286.939 400.971 286.665 400.426C286.394 399.878 286.259 399.236 286.259 398.501C286.259 397.774 286.394 397.134 286.665 396.58C286.939 396.026 287.321 395.594 287.81 395.283C288.302 394.972 288.878 394.817 289.536 394.817C289.937 394.817 290.324 394.883 290.7 395.015C291.075 395.148 291.412 395.355 291.711 395.638C292.009 395.922 292.245 396.289 292.417 396.742C292.59 397.191 292.676 397.737 292.676 398.381V398.87H287.039V397.836H291.323C291.323 397.473 291.249 397.151 291.101 396.871C290.954 396.588 290.746 396.365 290.478 396.202C290.214 396.039 289.903 395.957 289.546 395.957C289.158 395.957 288.819 396.052 288.53 396.243C288.244 396.431 288.022 396.677 287.865 396.982C287.711 397.283 287.634 397.611 287.634 397.965V398.773C287.634 399.247 287.718 399.65 287.884 399.983C288.053 400.315 288.289 400.569 288.59 400.744C288.892 400.917 289.244 401.003 289.647 401.003C289.909 401.003 290.147 400.966 290.363 400.892C290.578 400.815 290.764 400.701 290.921 400.55C291.078 400.4 291.198 400.213 291.282 399.992L292.588 400.227C292.483 400.612 292.296 400.949 292.025 401.238C291.757 401.525 291.42 401.748 291.014 401.908C290.611 402.065 290.15 402.143 289.633 402.143ZM295.588 392.545V402H294.207V392.545H295.588ZM299.508 402.157C299.059 402.157 298.652 402.074 298.289 401.908C297.926 401.738 297.638 401.494 297.426 401.174C297.217 400.854 297.112 400.461 297.112 399.996C297.112 399.596 297.189 399.267 297.343 399.009C297.497 398.75 297.705 398.545 297.966 398.395C298.228 398.244 298.52 398.13 298.843 398.053C299.166 397.976 299.496 397.917 299.831 397.877C300.256 397.828 300.601 397.788 300.865 397.757C301.13 397.724 301.322 397.67 301.442 397.596C301.562 397.522 301.622 397.402 301.622 397.236V397.203C301.622 396.8 301.509 396.488 301.281 396.266C301.056 396.045 300.721 395.934 300.274 395.934C299.81 395.934 299.443 396.037 299.176 396.243C298.911 396.446 298.728 396.673 298.626 396.922L297.329 396.626C297.483 396.196 297.708 395.848 298.003 395.583C298.302 395.315 298.645 395.121 299.033 395.001C299.42 394.878 299.828 394.817 300.256 394.817C300.539 394.817 300.839 394.851 301.156 394.918C301.476 394.983 301.775 395.103 302.052 395.278C302.332 395.454 302.561 395.705 302.74 396.031C302.918 396.354 303.007 396.774 303.007 397.291V402H301.659V401.031H301.604C301.515 401.209 301.381 401.384 301.202 401.557C301.024 401.729 300.795 401.872 300.514 401.986C300.234 402.1 299.899 402.157 299.508 402.157ZM299.808 401.049C300.19 401.049 300.516 400.974 300.787 400.823C301.061 400.672 301.268 400.475 301.41 400.232C301.555 399.986 301.627 399.723 301.627 399.442V398.528C301.578 398.578 301.482 398.624 301.341 398.667C301.202 398.707 301.044 398.742 300.865 398.773C300.687 398.801 300.513 398.827 300.344 398.852C300.174 398.873 300.033 398.892 299.919 398.907C299.651 398.941 299.407 398.998 299.185 399.078C298.966 399.158 298.791 399.273 298.659 399.424C298.529 399.572 298.465 399.769 298.465 400.015C298.465 400.357 298.591 400.615 298.843 400.79C299.096 400.963 299.417 401.049 299.808 401.049ZM312.464 397.407V398.602H308.272V397.407H312.464Z" fill="#8F8F8F"/>
<defs>
<filter id="filter0_d_1075_26" x="0" y="0" width="960" height="580" filterUnits="userSpaceOnUse" color-interpolation-filters="sRGB">
<feFlood flood-opacity="0" result="BackgroundImageFix"/>
<feColorMatrix in="SourceAlpha" type="matrix" values="0 0 0 0 0 0 0 0 0 0 0 0 0 0 0 0 0 0 127 0" result="hardAlpha"/>
<feOffset/>
<feGaussianBlur stdDeviation="15"/>
<feComposite in2="hardAlpha" operator="out"/>
<feColorMatrix type="matrix" values="0 0 0 0 0 0 0 0 0 0 0 0 0 0 0 0 0 0 0.15 0"/>
<feBlend mode="normal" in2="BackgroundImageFix" result="effect1_dropShadow_1075_26"/>
<feBlend mode="normal" in="SourceGraphic" in2="effect1_dropShadow_1075_26" result="shape"/>
</filter>
</defs>
</svg>
