<svg width="960" height="580" viewBox="0 0 960 580" fill="none" xmlns="http://www.w3.org/2000/svg">
<g filter="url(#filter0_d_1107_30)">
<rect x="30" y="30" width="900" height="520" rx="10" fill="white"/>
</g>
<path d="M646.299 184.909V214H641.612L627.904 194.185H627.663V214H622.393V184.909H627.109L640.802 204.739H641.058V184.909H646.299ZM658.092 214.44C656.71 214.44 655.464 214.194 654.357 213.702C653.258 213.2 652.387 212.461 651.743 211.486C651.108 210.51 650.791 209.308 650.791 207.878C650.791 206.647 651.018 205.629 651.473 204.824C651.928 204.019 652.548 203.375 653.334 202.892C654.12 202.409 655.005 202.045 655.99 201.798C656.984 201.543 658.012 201.358 659.072 201.244C660.351 201.112 661.388 200.993 662.183 200.889C662.979 200.776 663.556 200.605 663.916 200.378C664.286 200.141 664.47 199.777 664.47 199.284V199.199C664.47 198.129 664.153 197.3 663.518 196.713C662.884 196.126 661.97 195.832 660.777 195.832C659.518 195.832 658.518 196.107 657.78 196.656C657.051 197.205 656.558 197.854 656.303 198.602L651.501 197.92C651.88 196.595 652.505 195.487 653.376 194.597C654.248 193.697 655.313 193.025 656.572 192.58C657.832 192.125 659.224 191.898 660.749 191.898C661.8 191.898 662.846 192.021 663.888 192.267C664.929 192.513 665.881 192.92 666.743 193.489C667.605 194.047 668.296 194.81 668.817 195.776C669.347 196.741 669.612 197.949 669.612 199.398V214H664.669V211.003H664.499C664.186 211.609 663.746 212.177 663.178 212.707C662.619 213.228 661.913 213.65 661.061 213.972C660.218 214.284 659.229 214.44 658.092 214.44ZM659.428 210.662C660.46 210.662 661.355 210.458 662.112 210.051C662.87 209.634 663.452 209.085 663.859 208.403C664.276 207.722 664.484 206.978 664.484 206.173V203.602C664.323 203.735 664.049 203.858 663.661 203.972C663.282 204.085 662.856 204.185 662.382 204.27C661.909 204.355 661.44 204.431 660.976 204.497C660.512 204.563 660.109 204.62 659.768 204.668C659.001 204.772 658.315 204.942 657.709 205.179C657.103 205.416 656.625 205.747 656.274 206.173C655.924 206.59 655.749 207.13 655.749 207.793C655.749 208.74 656.094 209.455 656.786 209.938C657.477 210.42 658.357 210.662 659.428 210.662ZM693.49 192.182L685.72 214H680.038L672.268 192.182H677.751L682.766 208.389H682.993L688.021 192.182H693.49ZM697.048 214V192.182H702.19V214H697.048ZM699.634 189.085C698.819 189.085 698.118 188.815 697.531 188.276C696.944 187.726 696.651 187.068 696.651 186.301C696.651 185.525 696.944 184.866 697.531 184.327C698.118 183.777 698.819 183.503 699.634 183.503C700.457 183.503 701.158 183.777 701.736 184.327C702.323 184.866 702.616 185.525 702.616 186.301C702.616 187.068 702.323 187.726 701.736 188.276C701.158 188.815 700.457 189.085 699.634 189.085ZM716.967 222.636C715.12 222.636 713.534 222.385 712.208 221.884C710.882 221.391 709.817 220.728 709.012 219.895C708.207 219.062 707.648 218.138 707.336 217.125L711.967 216.003C712.175 216.429 712.478 216.85 712.876 217.267C713.273 217.693 713.808 218.044 714.481 218.318C715.163 218.602 716.02 218.744 717.052 218.744C718.51 218.744 719.718 218.389 720.674 217.679C721.63 216.978 722.109 215.823 722.109 214.213V210.08H721.853C721.588 210.61 721.2 211.154 720.688 211.713C720.186 212.272 719.519 212.741 718.685 213.119C717.862 213.498 716.825 213.688 715.575 213.688C713.898 213.688 712.379 213.295 711.015 212.509C709.661 211.713 708.581 210.529 707.776 208.957C706.981 207.376 706.583 205.397 706.583 203.02C706.583 200.624 706.981 198.602 707.776 196.955C708.581 195.297 709.665 194.043 711.029 193.19C712.393 192.329 713.913 191.898 715.589 191.898C716.867 191.898 717.918 192.116 718.742 192.551C719.576 192.977 720.238 193.493 720.731 194.099C721.223 194.696 721.597 195.259 721.853 195.79H722.137V192.182H727.208V214.355C727.208 216.221 726.763 217.764 725.873 218.986C724.983 220.207 723.766 221.121 722.222 221.727C720.679 222.333 718.927 222.636 716.967 222.636ZM717.009 209.653C718.098 209.653 719.026 209.388 719.793 208.858C720.56 208.328 721.143 207.565 721.54 206.571C721.938 205.577 722.137 204.384 722.137 202.991C722.137 201.618 721.938 200.416 721.54 199.384C721.152 198.351 720.575 197.551 719.808 196.983C719.05 196.405 718.117 196.116 717.009 196.116C715.863 196.116 714.907 196.415 714.14 197.011C713.373 197.608 712.795 198.427 712.407 199.469C712.019 200.501 711.825 201.675 711.825 202.991C711.825 204.327 712.019 205.496 712.407 206.5C712.805 207.494 713.387 208.271 714.154 208.83C714.931 209.379 715.882 209.653 717.009 209.653ZM738.756 214.44C737.374 214.44 736.129 214.194 735.021 213.702C733.922 213.2 733.051 212.461 732.407 211.486C731.772 210.51 731.455 209.308 731.455 207.878C731.455 206.647 731.683 205.629 732.137 204.824C732.592 204.019 733.212 203.375 733.998 202.892C734.784 202.409 735.669 202.045 736.654 201.798C737.648 201.543 738.676 201.358 739.737 201.244C741.015 201.112 742.052 200.993 742.847 200.889C743.643 200.776 744.22 200.605 744.58 200.378C744.95 200.141 745.134 199.777 745.134 199.284V199.199C745.134 198.129 744.817 197.3 744.183 196.713C743.548 196.126 742.634 195.832 741.441 195.832C740.182 195.832 739.183 196.107 738.444 196.656C737.715 197.205 737.222 197.854 736.967 198.602L732.165 197.92C732.544 196.595 733.169 195.487 734.04 194.597C734.912 193.697 735.977 193.025 737.237 192.58C738.496 192.125 739.888 191.898 741.413 191.898C742.464 191.898 743.51 192.021 744.552 192.267C745.594 192.513 746.545 192.92 747.407 193.489C748.269 194.047 748.96 194.81 749.481 195.776C750.011 196.741 750.276 197.949 750.276 199.398V214H745.333V211.003H745.163C744.85 211.609 744.41 212.177 743.842 212.707C743.283 213.228 742.577 213.65 741.725 213.972C740.882 214.284 739.893 214.44 738.756 214.44ZM740.092 210.662C741.124 210.662 742.019 210.458 742.776 210.051C743.534 209.634 744.116 209.085 744.523 208.403C744.94 207.722 745.148 206.978 745.148 206.173V203.602C744.987 203.735 744.713 203.858 744.325 203.972C743.946 204.085 743.52 204.185 743.046 204.27C742.573 204.355 742.104 204.431 741.64 204.497C741.176 204.563 740.773 204.62 740.433 204.668C739.665 204.772 738.979 204.942 738.373 205.179C737.767 205.416 737.289 205.747 736.938 206.173C736.588 206.59 736.413 207.13 736.413 207.793C736.413 208.74 736.758 209.455 737.45 209.938C738.141 210.42 739.022 210.662 740.092 210.662ZM766.342 192.182V196.159H753.799V192.182H766.342ZM756.896 186.955H762.038V207.438C762.038 208.129 762.142 208.659 762.35 209.028C762.568 209.388 762.852 209.634 763.202 209.767C763.553 209.9 763.941 209.966 764.367 209.966C764.689 209.966 764.983 209.942 765.248 209.895C765.522 209.848 765.731 209.805 765.873 209.767L766.739 213.787C766.465 213.882 766.072 213.986 765.56 214.099C765.058 214.213 764.443 214.279 763.714 214.298C762.426 214.336 761.266 214.142 760.234 213.716C759.201 213.28 758.382 212.608 757.776 211.699C757.18 210.79 756.886 209.653 756.896 208.29V186.955ZM780.067 214.426C777.879 214.426 775.99 213.972 774.399 213.062C772.818 212.144 771.601 210.847 770.749 209.17C769.896 207.485 769.47 205.501 769.47 203.219C769.47 200.974 769.896 199.005 770.749 197.31C771.61 195.605 772.813 194.279 774.357 193.332C775.9 192.376 777.714 191.898 779.797 191.898C781.142 191.898 782.411 192.116 783.604 192.551C784.806 192.977 785.867 193.64 786.786 194.54C787.714 195.439 788.443 196.585 788.973 197.977C789.503 199.36 789.768 201.008 789.768 202.92V204.497H771.885V201.031H784.839C784.83 200.046 784.617 199.17 784.2 198.403C783.784 197.627 783.201 197.016 782.453 196.571C781.714 196.126 780.853 195.903 779.868 195.903C778.817 195.903 777.893 196.159 777.098 196.67C776.303 197.172 775.682 197.835 775.237 198.659C774.802 199.473 774.579 200.368 774.57 201.344V204.369C774.57 205.638 774.802 206.727 775.266 207.636C775.73 208.536 776.378 209.227 777.212 209.71C778.045 210.184 779.02 210.42 780.138 210.42C780.886 210.42 781.563 210.316 782.169 210.108C782.775 209.89 783.301 209.573 783.746 209.156C784.191 208.74 784.527 208.223 784.754 207.608L789.555 208.148C789.252 209.417 788.675 210.525 787.822 211.472C786.98 212.409 785.9 213.138 784.584 213.659C783.268 214.17 781.762 214.426 780.067 214.426Z" fill="black"/>
<path d="M538.008 376.545V379.911H536.863V376.545H538.008ZM540.38 376.545V379.911H539.236V376.545H540.38ZM549.921 375.262H551V382.243H549.921V375.262ZM550.688 378.317H552.729V379.214H550.688V378.317ZM547.243 382.49C549.622 382.49 551.104 383.335 551.104 384.752C551.104 386.169 549.622 387.001 547.243 387.001C544.864 387.001 543.382 386.169 543.382 384.752C543.382 383.335 544.864 382.49 547.243 382.49ZM547.243 383.374C545.501 383.374 544.435 383.868 544.435 384.752C544.435 385.61 545.501 386.117 547.243 386.117C548.985 386.117 550.051 385.61 550.051 384.752C550.051 383.868 548.985 383.374 547.243 383.374ZM542.394 380.436H543.304C545.735 380.436 547.1 380.358 548.673 380.033L548.803 380.917C547.178 381.242 545.787 381.32 543.304 381.32H542.394V380.436ZM542.394 376.159H547.581V377.043H543.46V381.008H542.394V376.159ZM562.374 375.275H563.466V383.881H562.374V375.275ZM555.913 385.87H563.817V386.754H555.913V385.87ZM555.913 383.088H556.979V386.286H555.913V383.088ZM556.888 375.912H557.785V377.108C557.785 379.396 556.485 381.398 554.509 382.204L553.95 381.333C555.718 380.644 556.888 378.928 556.888 377.108V375.912ZM557.083 375.912H557.967V377.108C557.967 378.876 559.15 380.475 560.905 381.112L560.333 381.983C558.383 381.229 557.083 379.344 557.083 377.108V375.912ZM574.32 375.249H575.399V387.027H574.32V375.249ZM569.198 376.159C570.94 376.159 572.188 377.758 572.188 380.254C572.188 382.763 570.94 384.362 569.198 384.362C567.469 384.362 566.221 382.763 566.221 380.254C566.221 377.758 567.469 376.159 569.198 376.159ZM569.198 377.134C568.054 377.134 567.248 378.356 567.248 380.254C567.248 382.165 568.054 383.413 569.198 383.413C570.355 383.413 571.148 382.165 571.148 380.254C571.148 378.356 570.355 377.134 569.198 377.134ZM589.135 375.249H590.227V387.014H589.135V375.249ZM589.928 380.02H592.099V380.917H589.928V380.02ZM586.132 376.523H587.185C587.185 379.864 585.651 382.88 581.855 384.791L581.257 383.959C584.507 382.308 586.132 379.799 586.132 376.692V376.523ZM581.803 376.523H586.691V377.407H581.803V376.523ZM594.268 376.432H601.834V377.329H594.268V376.432ZM593.15 384.479H603.771V385.376H593.15V384.479ZM597.271 380.28H598.35V384.921H597.271V380.28ZM601.431 376.432H602.497V377.602C602.497 379.058 602.497 380.67 602.068 383.049L600.989 382.906C601.431 380.657 601.431 379.006 601.431 377.602V376.432ZM617.091 375.275H618.183V381.788H617.091V375.275ZM611.605 375.691H612.502V376.835C612.502 379.006 611.15 380.839 609.161 381.554L608.615 380.709C610.383 380.085 611.605 378.525 611.605 376.835V375.691ZM611.8 375.691H612.684V376.835C612.684 378.473 613.919 379.916 615.661 380.488L615.128 381.346C613.152 380.67 611.8 378.941 611.8 376.835V375.691ZM610.409 382.49H618.248V383.374H610.409V382.49ZM610.292 385.987H618.378V386.858H610.292V385.987ZM612.021 382.867H613.074V386.494H612.021V382.867ZM615.583 382.867H616.649V386.494H615.583V382.867ZM620.496 381.437H631.117V382.321H620.496V381.437ZM621.874 385.87H629.947V386.754H621.874V385.87ZM621.874 383.348H622.953V386.143H621.874V383.348ZM625.813 375.652C628.322 375.652 629.947 376.536 629.947 378.005C629.947 379.461 628.322 380.345 625.813 380.345C623.291 380.345 621.679 379.461 621.679 378.005C621.679 376.536 623.291 375.652 625.813 375.652ZM625.813 376.536C623.967 376.536 622.784 377.082 622.784 378.005C622.784 378.928 623.967 379.474 625.813 379.474C627.659 379.474 628.842 378.928 628.842 378.005C628.842 377.082 627.659 376.536 625.813 376.536ZM644.449 375.262H645.541V381.255H644.449V375.262ZM640.861 375.834H642.044C642.044 378.837 639.951 380.696 636.493 381.502L636.103 380.618C639.197 379.942 640.861 378.421 640.861 376.38V375.834ZM636.688 375.834H641.589V376.718H636.688V375.834ZM637.936 381.827H645.541V384.687H639.028V386.468H637.962V383.881H644.462V382.685H637.936V381.827ZM637.962 386.039H645.931V386.897H637.962V386.039ZM653.171 375.457C655.758 375.457 657.305 376.185 657.305 377.498C657.305 378.811 655.758 379.539 653.171 379.539C650.571 379.539 649.037 378.811 649.037 377.498C649.037 376.185 650.571 375.457 653.171 375.457ZM653.171 376.276C651.247 376.276 650.142 376.718 650.142 377.498C650.142 378.278 651.247 378.72 653.171 378.72C655.082 378.72 656.187 378.278 656.187 377.498C656.187 376.718 655.082 376.276 653.171 376.276ZM647.854 380.319H658.475V381.19H647.854V380.319ZM649.141 382.191H657.123V384.843H650.233V386.273H649.167V384.063H656.057V383.023H649.141V382.191ZM649.167 386.039H657.474V386.884H649.167V386.039ZM671.405 375.249H672.484V387.027H671.405V375.249ZM672.003 379.877H674.174V380.774H672.003V379.877ZM663.605 383.036H664.125C664.788 383.036 665.672 383.023 666.686 382.789L666.79 383.686C665.711 383.933 664.84 383.946 664.125 383.946H663.605V383.036ZM663.605 376.497H666.569V377.368H664.671V383.478H663.605V376.497ZM667.232 383.036H667.804C668.948 383.036 669.767 383.01 670.716 382.763L670.82 383.66C669.819 383.907 669.013 383.946 667.804 383.946H667.232V383.036ZM667.232 376.497H670.352V377.368H668.298V383.491H667.232V376.497ZM675.226 384.635H685.873V385.545H675.226V384.635ZM676.513 376.159H684.56V379.721H677.618V382.074H676.552V378.863H683.494V377.043H676.513V376.159ZM676.552 381.619H684.833V382.503H676.552V381.619ZM695.128 375.249H696.22V387.027H695.128V375.249ZM695.96 379.89H698.144V380.8H695.96V379.89ZM687.679 383.192H688.602C690.773 383.192 692.294 383.114 694.049 382.789L694.166 383.699C692.359 384.037 690.812 384.102 688.602 384.102H687.679V383.192ZM687.679 376.393H693.139V377.277H688.745V383.595H687.679V376.393ZM702.584 384.622H713.231V385.519H702.584V384.622ZM707.342 381.814H708.421V384.882H707.342V381.814ZM703.832 376.094H704.898V378.187H710.891V376.094H711.957V382.1H703.832V376.094ZM704.898 379.058V381.216H710.891V379.058H704.898ZM720.172 377.329H723.461V378.213H720.172V377.329ZM720.172 379.838H723.487V380.735H720.172V379.838ZM715.076 376.276H720.445V381.788H715.076V376.276ZM719.379 377.147H716.129V380.917H719.379V377.147ZM723.123 375.275H724.202V383.855H723.123V375.275ZM716.649 385.87H724.488V386.754H716.649V385.87ZM716.649 383.075H717.728V386.273H716.649V383.075ZM728.576 384.707L728.507 385.211C728.46 385.58 728.382 385.965 728.271 386.365C728.163 386.768 728.051 387.142 727.934 387.487C727.82 387.831 727.726 388.105 727.652 388.308H726.674C726.714 388.117 726.769 387.859 726.84 387.533C726.911 387.21 726.98 386.848 727.048 386.448C727.115 386.048 727.166 385.64 727.2 385.224L727.246 384.707H728.576ZM742.115 375.262H743.194V381.255H742.115V375.262ZM738.397 375.834H739.567C739.567 378.798 737.526 380.696 734.094 381.528L733.717 380.644C736.759 379.942 738.397 378.395 738.397 376.367V375.834ZM734.328 375.834H738.891V376.718H734.328V375.834ZM739.151 376.952H742.297V377.81H739.151V376.952ZM739.047 379.201H742.232V380.046H739.047V379.201ZM735.628 381.801H743.194V384.687H736.733V386.559H735.667V383.855H742.128V382.672H735.628V381.801ZM735.667 386.039H743.584V386.897H735.667V386.039ZM746.846 375.808H754.412V376.692H746.846V375.808ZM745.494 380.02H756.141V380.904H745.494V380.02ZM750.265 380.618H751.331V383.387H750.265V380.618ZM753.71 375.808H754.763V376.679C754.763 377.654 754.763 378.837 754.373 380.449L753.32 380.319C753.71 378.746 753.71 377.628 753.71 376.679V375.808ZM746.599 383.036H754.841V387.014H753.762V383.92H746.599V383.036ZM762.038 376.51H769.604V377.381H762.038V376.51ZM760.894 384.401H771.515V385.298H760.894V384.401ZM769.032 376.51H770.085V377.68C770.085 379.188 770.085 380.865 769.643 383.4L768.564 383.296C769.032 380.891 769.032 379.136 769.032 377.68V376.51ZM784.834 375.262H785.926V381.255H784.834V375.262ZM781.246 375.834H782.429C782.429 378.837 780.336 380.696 776.878 381.502L776.488 380.618C779.582 379.942 781.246 378.421 781.246 376.38V375.834ZM777.073 375.834H781.974V376.718H777.073V375.834ZM778.321 381.827H785.926V384.687H779.413V386.468H778.347V383.881H784.847V382.685H778.321V381.827ZM778.347 386.039H786.316V386.897H778.347V386.039ZM793.556 375.457C796.143 375.457 797.69 376.185 797.69 377.498C797.69 378.811 796.143 379.539 793.556 379.539C790.956 379.539 789.422 378.811 789.422 377.498C789.422 376.185 790.956 375.457 793.556 375.457ZM793.556 376.276C791.632 376.276 790.527 376.718 790.527 377.498C790.527 378.278 791.632 378.72 793.556 378.72C795.467 378.72 796.572 378.278 796.572 377.498C796.572 376.718 795.467 376.276 793.556 376.276ZM788.239 380.319H798.86V381.19H788.239V380.319ZM789.526 382.191H797.508V384.843H790.618V386.273H789.552V384.063H796.442V383.023H789.526V382.191ZM789.552 386.039H797.859V386.884H789.552V386.039ZM804.132 376.315H809.527V381.762H804.132V376.315ZM808.474 377.186H805.185V380.891H808.474V377.186ZM811.685 375.249H812.764V383.868H811.685V375.249ZM812.426 378.837H814.506V379.734H812.426V378.837ZM805.445 385.87H813.297V386.754H805.445V385.87ZM805.445 383.049H806.524V386.247H805.445V383.049ZM815.61 380.163H826.231V381.047H815.61V380.163ZM817.014 378.343H824.97V379.214H817.014V378.343ZM817.014 375.639H824.84V376.523H818.08V379.045H817.014V375.639ZM816.884 382.061H824.866V384.83H817.976V386.312H816.91V384.024H823.8V382.906H816.884V382.061ZM816.91 386.026H825.217V386.884H816.91V386.026ZM836.513 375.262H837.553V387.014H836.513V375.262ZM831.417 380.059H834.381V380.93H831.417V380.059ZM834.069 375.561H835.083V386.416H834.069V375.561ZM831.56 376.744H832.6C832.6 379.825 831.365 382.594 828.193 384.479L827.556 383.712C830.325 382.048 831.56 379.708 831.56 376.939V376.744ZM828.076 376.744H831.963V377.628H828.076V376.744ZM844.061 379.097H849.729V379.981H844.061V379.097ZM846.323 379.63H847.402V381.983H846.323V379.63ZM844.061 376.029H849.651V376.913H845.14V379.487H844.061V376.029ZM851.497 375.262H852.576V384.05H851.497V375.262ZM844.984 385.87H852.966V386.754H844.984V385.87ZM844.984 383.478H846.05V386.247H844.984V383.478ZM843.164 382.568L843.021 381.684C845.283 381.684 848.143 381.632 850.561 381.346L850.626 382.139C848.143 382.503 845.361 382.568 843.164 382.568ZM862.871 375.249H863.963V387.027H862.871V375.249ZM863.703 379.89H865.887V380.8H863.703V379.89ZM855.422 383.192H856.345C858.516 383.192 860.037 383.114 861.792 382.789L861.909 383.699C860.102 384.037 858.555 384.102 856.345 384.102H855.422V383.192ZM855.422 376.393H860.882V377.277H856.488V383.595H855.422V376.393ZM868.074 386.088C867.822 386.088 867.605 385.998 867.423 385.82C867.242 385.638 867.151 385.42 867.151 385.164C867.151 384.912 867.242 384.697 867.423 384.518C867.605 384.337 867.822 384.246 868.074 384.246C868.327 384.246 868.544 384.337 868.725 384.518C868.907 384.697 868.997 384.912 868.997 385.164C868.997 385.334 868.954 385.489 868.868 385.631C868.785 385.769 868.674 385.88 868.536 385.963C868.397 386.046 868.243 386.088 868.074 386.088ZM870.752 376.545V379.911H869.607V376.545H870.752ZM873.125 376.545V379.911H871.98V376.545H873.125ZM659.896 396.673V397.873H655.704V396.673H659.896ZM665.287 402V392.545H668.657C669.389 392.545 669.997 392.672 670.48 392.924C670.967 393.176 671.33 393.526 671.57 393.972C671.81 394.415 671.93 394.928 671.93 395.509C671.93 396.088 671.808 396.597 671.565 397.037C671.325 397.474 670.962 397.814 670.476 398.058C669.992 398.301 669.385 398.422 668.652 398.422H666.099V397.194H668.523C668.985 397.194 669.36 397.128 669.649 396.996C669.942 396.863 670.156 396.671 670.291 396.419C670.426 396.166 670.494 395.863 670.494 395.509C670.494 395.152 670.425 394.843 670.286 394.581C670.151 394.32 669.937 394.12 669.645 393.981C669.355 393.84 668.975 393.769 668.504 393.769H666.713V402H665.287ZM669.954 397.734L672.29 402H670.665L668.375 397.734H669.954ZM675.618 402.157C675.169 402.157 674.763 402.074 674.4 401.908C674.037 401.738 673.749 401.494 673.536 401.174C673.327 400.854 673.222 400.461 673.222 399.996C673.222 399.596 673.299 399.267 673.453 399.009C673.607 398.75 673.815 398.545 674.077 398.395C674.338 398.244 674.631 398.13 674.954 398.053C675.277 397.976 675.606 397.917 675.942 397.877C676.366 397.828 676.711 397.788 676.976 397.757C677.24 397.724 677.433 397.67 677.553 397.596C677.673 397.522 677.733 397.402 677.733 397.236V397.203C677.733 396.8 677.619 396.488 677.391 396.266C677.166 396.045 676.831 395.934 676.385 395.934C675.92 395.934 675.554 396.037 675.286 396.243C675.021 396.446 674.838 396.673 674.737 396.922L673.439 396.626C673.593 396.196 673.818 395.848 674.113 395.583C674.412 395.315 674.755 395.121 675.143 395.001C675.531 394.878 675.939 394.817 676.366 394.817C676.649 394.817 676.95 394.851 677.267 394.918C677.587 394.983 677.885 395.103 678.162 395.278C678.442 395.454 678.671 395.705 678.85 396.031C679.028 396.354 679.118 396.774 679.118 397.291V402H677.77V401.031H677.714C677.625 401.209 677.491 401.384 677.313 401.557C677.134 401.729 676.905 401.872 676.625 401.986C676.345 402.1 676.009 402.157 675.618 402.157ZM675.919 401.049C676.3 401.049 676.626 400.974 676.897 400.823C677.171 400.672 677.379 400.475 677.52 400.232C677.665 399.986 677.737 399.723 677.737 399.442V398.528C677.688 398.578 677.593 398.624 677.451 398.667C677.313 398.707 677.154 398.742 676.976 398.773C676.797 398.801 676.623 398.827 676.454 398.852C676.285 398.873 676.143 398.892 676.029 398.907C675.762 398.941 675.517 398.998 675.295 399.078C675.077 399.158 674.901 399.273 674.769 399.424C674.64 399.572 674.575 399.769 674.575 400.015C674.575 400.357 674.701 400.615 674.954 400.79C675.206 400.963 675.528 401.049 675.919 401.049ZM686.768 394.909L684.197 402H682.72L680.144 394.909H681.626L683.421 400.366H683.495L685.286 394.909H686.768ZM690.881 402.143C690.182 402.143 689.58 401.994 689.075 401.695C688.574 401.394 688.186 400.971 687.912 400.426C687.641 399.878 687.506 399.236 687.506 398.501C687.506 397.774 687.641 397.134 687.912 396.58C688.186 396.026 688.568 395.594 689.057 395.283C689.549 394.972 690.125 394.817 690.784 394.817C691.184 394.817 691.571 394.883 691.947 395.015C692.322 395.148 692.659 395.355 692.958 395.638C693.256 395.922 693.492 396.289 693.664 396.742C693.837 397.191 693.923 397.737 693.923 398.381V398.87H688.286V397.836H692.57C692.57 397.473 692.496 397.151 692.349 396.871C692.201 396.588 691.993 396.365 691.725 396.202C691.461 396.039 691.15 395.957 690.793 395.957C690.405 395.957 690.066 396.052 689.777 396.243C689.491 396.431 689.269 396.677 689.112 396.982C688.959 397.283 688.882 397.611 688.882 397.965V398.773C688.882 399.247 688.965 399.65 689.131 399.983C689.3 400.315 689.536 400.569 689.837 400.744C690.139 400.917 690.491 401.003 690.894 401.003C691.156 401.003 691.394 400.966 691.61 400.892C691.825 400.815 692.012 400.701 692.169 400.55C692.325 400.4 692.445 400.213 692.529 399.992L693.835 400.227C693.73 400.612 693.543 400.949 693.272 401.238C693.004 401.525 692.667 401.748 692.261 401.908C691.858 402.065 691.398 402.143 690.881 402.143ZM696.835 397.79V402H695.454V394.909H696.779V396.063H696.867C697.03 395.688 697.285 395.386 697.633 395.158C697.984 394.931 698.426 394.817 698.958 394.817C699.441 394.817 699.865 394.918 700.228 395.121C700.591 395.321 700.872 395.62 701.073 396.017C701.273 396.414 701.373 396.905 701.373 397.49V402H699.992V397.656C699.992 397.142 699.858 396.74 699.591 396.451C699.323 396.159 698.955 396.012 698.487 396.012C698.167 396.012 697.883 396.082 697.633 396.22C697.387 396.359 697.192 396.562 697.047 396.83C696.905 397.094 696.835 397.414 696.835 397.79ZM711.932 395.029C711.882 394.592 711.679 394.254 711.322 394.013C710.965 393.77 710.516 393.649 709.974 393.649C709.586 393.649 709.251 393.71 708.968 393.833C708.685 393.953 708.465 394.12 708.308 394.332C708.154 394.541 708.077 394.78 708.077 395.048C708.077 395.272 708.129 395.466 708.234 395.629C708.342 395.792 708.482 395.929 708.654 396.04C708.829 396.148 709.017 396.239 709.217 396.312C709.417 396.383 709.61 396.442 709.794 396.488L710.718 396.728C711.019 396.802 711.328 396.902 711.645 397.028C711.962 397.154 712.256 397.32 712.527 397.527C712.798 397.733 713.017 397.988 713.183 398.293C713.352 398.598 713.437 398.962 713.437 399.387C713.437 399.923 713.298 400.398 713.021 400.814C712.747 401.229 712.349 401.557 711.825 401.797C711.305 402.037 710.676 402.157 709.937 402.157C709.229 402.157 708.617 402.045 708.1 401.82C707.583 401.595 707.178 401.277 706.886 400.864C706.593 400.449 706.432 399.956 706.401 399.387H707.832C707.86 399.729 707.971 400.013 708.165 400.241C708.362 400.466 708.612 400.634 708.917 400.744C709.225 400.852 709.562 400.906 709.928 400.906C710.331 400.906 710.69 400.843 711.004 400.717C711.321 400.587 711.57 400.409 711.752 400.181C711.933 399.95 712.024 399.681 712.024 399.373C712.024 399.093 711.944 398.864 711.784 398.685C711.627 398.507 711.413 398.359 711.142 398.242C710.874 398.125 710.571 398.022 710.233 397.933L709.116 397.628C708.358 397.422 707.758 397.119 707.315 396.719C706.875 396.319 706.655 395.789 706.655 395.131C706.655 394.586 706.803 394.11 707.098 393.704C707.394 393.298 707.794 392.982 708.298 392.758C708.803 392.53 709.373 392.416 710.007 392.416C710.647 392.416 711.211 392.529 711.701 392.753C712.193 392.978 712.581 393.287 712.864 393.681C713.147 394.072 713.295 394.521 713.307 395.029H711.932ZM715.03 402V394.909H716.411V402H715.03ZM715.728 393.815C715.487 393.815 715.281 393.735 715.109 393.575C714.94 393.412 714.855 393.218 714.855 392.993C714.855 392.766 714.94 392.572 715.109 392.412C715.281 392.248 715.487 392.167 715.728 392.167C715.968 392.167 716.172 392.248 716.342 392.412C716.514 392.572 716.6 392.766 716.6 392.993C716.6 393.218 716.514 393.412 716.342 393.575C716.172 393.735 715.968 393.815 715.728 393.815ZM719.648 397.79V402H718.268V394.909H719.593V396.063H719.68C719.844 395.688 720.099 395.386 720.447 395.158C720.798 394.931 721.239 394.817 721.772 394.817C722.255 394.817 722.678 394.918 723.041 395.121C723.404 395.321 723.686 395.62 723.886 396.017C724.086 396.414 724.186 396.905 724.186 397.49V402H722.806V397.656C722.806 397.142 722.672 396.74 722.404 396.451C722.136 396.159 721.769 396.012 721.301 396.012C720.981 396.012 720.696 396.082 720.447 396.22C720.201 396.359 720.005 396.562 719.86 396.83C719.719 397.094 719.648 397.414 719.648 397.79ZM729.01 404.807C728.447 404.807 727.962 404.733 727.556 404.585C727.153 404.438 726.824 404.242 726.568 403.999C726.313 403.756 726.122 403.49 725.996 403.2L727.182 402.711C727.265 402.846 727.376 402.989 727.515 403.14C727.656 403.294 727.847 403.425 728.087 403.533C728.33 403.64 728.643 403.694 729.024 403.694C729.547 403.694 729.98 403.567 730.321 403.311C730.663 403.059 730.834 402.656 730.834 402.102V400.707H730.746C730.663 400.858 730.543 401.026 730.386 401.211C730.232 401.395 730.02 401.555 729.749 401.691C729.478 401.826 729.126 401.894 728.692 401.894C728.132 401.894 727.627 401.763 727.178 401.501C726.731 401.237 726.377 400.847 726.116 400.333C725.857 399.816 725.728 399.181 725.728 398.427C725.728 397.673 725.856 397.027 726.111 396.488C726.37 395.949 726.724 395.537 727.173 395.251C727.622 394.961 728.132 394.817 728.701 394.817C729.141 394.817 729.497 394.891 729.767 395.038C730.038 395.183 730.249 395.352 730.4 395.546C730.554 395.74 730.672 395.911 730.755 396.059H730.857V394.909H732.21V402.157C732.21 402.766 732.068 403.266 731.785 403.657C731.502 404.048 731.118 404.337 730.635 404.525C730.155 404.713 729.614 404.807 729.01 404.807ZM728.996 400.749C729.393 400.749 729.729 400.657 730.003 400.472C730.28 400.284 730.489 400.016 730.631 399.669C730.775 399.318 730.848 398.898 730.848 398.408C730.848 397.931 730.777 397.511 730.635 397.148C730.494 396.785 730.286 396.502 730.012 396.299C729.738 396.092 729.4 395.989 728.996 395.989C728.581 395.989 728.235 396.097 727.958 396.312C727.681 396.525 727.471 396.814 727.33 397.18C727.191 397.547 727.122 397.956 727.122 398.408C727.122 398.873 727.193 399.281 727.335 399.632C727.476 399.983 727.685 400.257 727.962 400.453C728.242 400.65 728.587 400.749 728.996 400.749ZM737.117 402.143C736.418 402.143 735.817 401.994 735.312 401.695C734.81 401.394 734.422 400.971 734.148 400.426C733.878 399.878 733.742 399.236 733.742 398.501C733.742 397.774 733.878 397.134 734.148 396.58C734.422 396.026 734.804 395.594 735.293 395.283C735.786 394.972 736.361 394.817 737.02 394.817C737.42 394.817 737.808 394.883 738.183 395.015C738.559 395.148 738.896 395.355 739.194 395.638C739.493 395.922 739.728 396.289 739.901 396.742C740.073 397.191 740.159 397.737 740.159 398.381V398.87H734.522V397.836H738.806C738.806 397.473 738.733 397.151 738.585 396.871C738.437 396.588 738.229 396.365 737.962 396.202C737.697 396.039 737.386 395.957 737.029 395.957C736.641 395.957 736.303 396.052 736.013 396.243C735.727 396.431 735.506 396.677 735.349 396.982C735.195 397.283 735.118 397.611 735.118 397.965V398.773C735.118 399.247 735.201 399.65 735.367 399.983C735.536 400.315 735.772 400.569 736.074 400.744C736.375 400.917 736.728 401.003 737.131 401.003C737.392 401.003 737.631 400.966 737.846 400.892C738.062 400.815 738.248 400.701 738.405 400.55C738.562 400.4 738.682 400.213 738.765 399.992L740.071 400.227C739.967 400.612 739.779 400.949 739.508 401.238C739.24 401.525 738.903 401.748 738.497 401.908C738.094 402.065 737.634 402.143 737.117 402.143ZM741.691 402V394.909H743.025V396.036H743.099C743.228 395.654 743.456 395.354 743.782 395.135C744.111 394.914 744.484 394.803 744.899 394.803C744.985 394.803 745.087 394.806 745.204 394.812C745.324 394.818 745.418 394.826 745.485 394.835V396.156C745.43 396.14 745.331 396.123 745.19 396.105C745.048 396.083 744.907 396.072 744.765 396.072C744.439 396.072 744.148 396.142 743.893 396.28C743.64 396.416 743.44 396.605 743.293 396.848C743.145 397.088 743.071 397.362 743.071 397.67V402H741.691ZM754.298 397.407V398.602H750.106V397.407H754.298Z" fill="#8F8F8F"/>
<path d="M562.334 280.612H574.869V283.027H562.334V280.612ZM568.613 283.694C571.672 283.694 573.834 285.281 573.834 287.627C573.834 289.973 571.672 291.537 568.613 291.537C565.531 291.537 563.369 289.973 563.369 287.627C563.369 285.281 565.531 283.694 568.613 283.694ZM568.613 285.994C567.233 285.994 566.313 286.546 566.313 287.627C566.313 288.685 567.233 289.237 568.613 289.237C569.97 289.237 570.913 288.685 570.913 287.627C570.913 286.546 569.97 285.994 568.613 285.994ZM576.042 278.749H579.101V292.112H576.042V278.749ZM578.25 284.246H581.93V286.73H578.25V284.246ZM564.887 292.986H579.101V300.047H576.042V295.424H564.887V292.986ZM567.072 278.634H570.131V281.992H567.072V278.634ZM587.333 280.037H589.725V282.498C589.725 286.109 588.276 289.72 584.803 291.192L583.193 288.823C586.16 287.512 587.333 284.89 587.333 282.498V280.037ZM587.885 280.037H590.277V282.498C590.277 284.775 591.427 287.075 594.233 288.179L592.6 290.502C589.288 289.191 587.885 285.971 587.885 282.498V280.037ZM598.741 278.772H601.639V291.767H598.741V278.772ZM596.188 283.924H599.569V286.385H596.188V283.924ZM594.233 279.163H597.085V291.1H594.233V279.163ZM594.417 292.066C598.879 292.066 601.754 293.561 601.754 296.068C601.754 298.552 598.879 300.047 594.417 300.047C589.932 300.047 587.103 298.552 587.103 296.068C587.103 293.561 589.932 292.066 594.417 292.066ZM594.417 294.366C591.68 294.366 590.139 294.941 590.139 296.068C590.139 297.195 591.68 297.747 594.417 297.747C597.154 297.747 598.672 297.195 598.672 296.068C598.672 294.941 597.154 294.366 594.417 294.366ZM604.673 287.006H623.947V289.421H604.673V287.006ZM607.042 283.464H621.67V285.856H607.042V283.464ZM607.042 279.14H621.486V281.578H610.078V285.534H607.042V279.14ZM606.858 290.617H621.578V296.252H609.894V298.092H606.881V294.09H618.565V292.917H606.858V290.617ZM606.881 297.54H622.13V299.886H606.881V297.54ZM632.663 280.152C636.021 280.152 638.528 282.337 638.528 285.396C638.528 288.478 636.021 290.663 632.663 290.663C629.328 290.663 626.775 288.478 626.775 285.396C626.775 282.337 629.328 280.152 632.663 280.152ZM632.663 282.774C631.03 282.774 629.788 283.74 629.788 285.396C629.788 287.075 631.03 288.041 632.663 288.041C634.296 288.041 635.538 287.075 635.538 285.396C635.538 283.74 634.296 282.774 632.663 282.774ZM640.529 278.726H643.588V300.093H640.529V278.726ZM626.269 295.769L625.901 293.308C629.65 293.308 634.871 293.262 639.356 292.595L639.586 294.803C634.963 295.723 629.949 295.769 626.269 295.769ZM667.3 278.749H670.382V289.444H667.3V278.749ZM660.607 279.531H663.965C663.965 285.373 660.768 288.524 654.052 289.881L652.994 287.42C658.675 286.408 660.607 284.108 660.607 281.279V279.531ZM654.121 279.531H662.769V281.969H654.121V279.531ZM656.168 290.318H670.382V296.091H659.273V298.414H656.214V293.906H667.3V292.664H656.168V290.318ZM656.214 297.471H670.911V299.84H656.214V297.471ZM678.522 280.727H681.006V282.084C681.006 285.971 679.097 289.444 674.957 290.709L673.462 288.294C677.004 287.213 678.522 284.637 678.522 282.084V280.727ZM679.12 280.727H681.627V282.061C681.627 284.43 683.076 286.868 686.526 287.88L685.1 290.249C681.029 289.076 679.12 285.741 679.12 282.061V280.727ZM674.267 279.899H685.79V282.337H674.267V279.899ZM687.538 278.749H690.597V290.502H687.538V278.749ZM689.746 283.257H693.426V285.764H689.746V283.257ZM676.682 291.353H679.718V293.239H687.561V291.353H690.597V299.817H676.682V291.353ZM679.718 295.585V297.402H687.561V295.585H679.718ZM709.593 278.726H712.675V300.093H709.593V278.726ZM701.198 280.221C704.418 280.221 706.787 283.165 706.787 287.811C706.787 292.503 704.418 295.447 701.198 295.447C697.978 295.447 695.609 292.503 695.609 287.811C695.609 283.165 697.978 280.221 701.198 280.221ZM701.198 283.004C699.611 283.004 698.53 284.683 698.53 287.811C698.53 290.985 699.611 292.687 701.198 292.687C702.785 292.687 703.843 290.985 703.843 287.811C703.843 284.683 702.785 283.004 701.198 283.004ZM729.763 278.726H732.845V300.024H729.763V278.726ZM732.04 286.868H735.789V289.375H732.04V286.868ZM724.174 280.934H727.164C727.164 287.328 724.726 292.802 717.642 296.367L715.94 294.044C721.529 291.146 724.174 287.236 724.174 281.463V280.934ZM717.113 280.934H725.738V283.395H717.113V280.934ZM744.459 287.374H755.591V289.812H744.459V287.374ZM748.461 289.352H751.543V293.837H748.461V289.352ZM744.459 280.635H755.453V283.05H747.518V288.133H744.459V280.635ZM757.73 278.726H760.789V300.093H757.73V278.726ZM743.47 295.884L743.102 293.423C747.173 293.423 752.187 293.4 756.557 292.917L756.787 295.148C752.187 295.861 747.426 295.907 743.47 295.884ZM770.01 280.221C773.184 280.221 775.507 283.165 775.507 287.811C775.507 292.503 773.184 295.447 770.01 295.447C766.813 295.447 764.513 292.503 764.513 287.811C764.513 283.165 766.813 280.221 770.01 280.221ZM770.01 283.004C768.469 283.004 767.434 284.683 767.434 287.811C767.434 290.985 768.469 292.687 770.01 292.687C771.574 292.687 772.586 290.985 772.586 287.811C772.586 284.683 771.574 283.004 770.01 283.004ZM779.003 278.726H782.039V300.093H779.003V278.726ZM774.61 286.408H780.291V288.869H774.61V286.408ZM793.215 281.118H795.86V281.739C795.86 285.488 792.801 288.547 787.396 289.283L786.269 286.891C790.961 286.316 793.215 283.924 793.215 281.739V281.118ZM794.089 281.118H796.734V281.739C796.734 283.924 798.988 286.316 803.68 286.891L802.576 289.283C797.148 288.547 794.089 285.488 794.089 281.739V281.118ZM793.376 292.25H796.412V300.07H793.376V292.25ZM785.349 290.502H804.6V292.94H785.349V290.502ZM787.051 279.83H802.852V282.245H787.051V279.83ZM808.876 284.499H823.642V286.914H808.876V284.499ZM806.484 289.122H825.781V291.56H806.484V289.122ZM808.876 279.508H811.912V285.695H808.876V279.508ZM808.669 297.149H823.757V299.587H808.669V297.149ZM808.669 293.262H811.728V297.793H808.669V293.262ZM834.521 288.041H836.338C840.731 288.041 843.284 287.995 846.205 287.512L846.504 289.881C843.514 290.387 840.823 290.433 836.338 290.433H834.521V288.041ZM834.521 279.968H844.756V282.383H837.557V289.03H834.521V279.968ZM836.614 283.993H844.135V286.362H836.614V283.993ZM847.976 278.772H851.058V291.399H847.976V278.772ZM836.89 292.273H851.058V299.817H836.89V292.273ZM848.045 294.665H839.88V297.402H848.045V294.665Z" fill="black"/>
<defs>
<filter id="filter0_d_1107_30" x="0" y="0" width="960" height="580" filterUnits="userSpaceOnUse" color-interpolation-filters="sRGB">
<feFlood flood-opacity="0" result="BackgroundImageFix"/>
<feColorMatrix in="SourceAlpha" type="matrix" values="0 0 0 0 0 0 0 0 0 0 0 0 0 0 0 0 0 0 127 0" result="hardAlpha"/>
<feOffset/>
<feGaussianBlur stdDeviation="15"/>
<feComposite in2="hardAlpha" operator="out"/>
<feColorMatrix type="matrix" values="0 0 0 0 0 0 0 0 0 0 0 0 0 0 0 0 0 0 0.15 0"/>
<feBlend mode="normal" in2="BackgroundImageFix" result="effect1_dropShadow_1107_30"/>
<feBlend mode="normal" in="SourceGraphic" in2="effect1_dropShadow_1107_30" result="shape"/>
</filter>
</defs>
</svg>
