<svg width="35" height="38" viewBox="0 0 35 38" fill="none" xmlns="http://www.w3.org/2000/svg">
<path fill-rule="evenodd" clip-rule="evenodd" d="M22.906 17.8804C23.1794 18.1773 23.333 18.58 23.333 18.9998C23.333 19.4196 23.1794 19.8223 22.906 20.1192L14.6562 29.0761C14.5217 29.2274 14.3608 29.348 14.1829 29.431C14.0049 29.5139 13.8136 29.5576 13.6199 29.5594C13.4263 29.5613 13.2343 29.5212 13.055 29.4416C12.8758 29.362 12.713 29.2444 12.5761 29.0958C12.4391 28.9471 12.3308 28.7703 12.2575 28.5757C12.1842 28.3811 12.1473 28.1726 12.149 27.9624C12.1507 27.7522 12.1909 27.5444 12.2673 27.3512C12.3438 27.1581 12.4549 26.9834 12.5941 26.8373L19.8129 18.9998L12.5941 11.1623C12.3285 10.8637 12.1815 10.4637 12.1848 10.0486C12.1881 9.63343 12.3415 9.23631 12.6119 8.94275C12.8823 8.64919 13.2481 8.48267 13.6304 8.47906C14.0128 8.47546 14.3812 8.63505 14.6562 8.92346L22.906 17.8804Z" fill="#0C1B4D"/>
</svg>
