<svg width="55" height="55" viewBox="0 0 55 55" fill="none" xmlns="http://www.w3.org/2000/svg">
<circle cx="27.5" cy="27.5" r="27.5" fill="white"/>
<path d="M29.3596 19.4647C29.6811 19.1671 30.1171 19 30.5717 19C31.0262 19 31.4622 19.1671 31.7837 19.4647L39.4981 26.6063C39.8195 26.9039 40 27.3075 40 27.7284C40 28.1492 39.8195 28.5528 39.4981 28.8504L31.7837 35.992C31.4603 36.2811 31.0273 36.4411 30.5778 36.4375C30.1283 36.4339 29.6984 36.267 29.3805 35.9727C29.0627 35.6785 28.8824 35.2804 28.8785 34.8643C28.8746 34.4482 29.0474 34.0473 29.3596 33.748L34.0003 29.3154H17.7143C17.2596 29.3154 16.8236 29.1482 16.5021 28.8506C16.1806 28.5529 16 28.1493 16 27.7284C16 27.3074 16.1806 26.9038 16.5021 26.6062C16.8236 26.3085 17.2596 26.1413 17.7143 26.1413H34.0003L29.3596 21.7087C29.0382 21.4111 28.8577 21.0075 28.8577 20.5867C28.8577 20.1659 29.0382 19.7623 29.3596 19.4647Z" fill="#010335"/>
</svg>
