<svg width="960" height="580" viewBox="0 0 960 580" fill="none" xmlns="http://www.w3.org/2000/svg">
<g filter="url(#filter0_d_1075_28)">
<rect x="30" y="30" width="900" height="520" rx="10" fill="white"/>
</g>
<path d="M191.128 177.906C190.996 176.666 190.437 175.7 189.452 175.009C188.477 174.317 187.208 173.972 185.645 173.972C184.547 173.972 183.605 174.137 182.819 174.469C182.033 174.8 181.431 175.25 181.015 175.818C180.598 176.386 180.385 177.035 180.375 177.764C180.375 178.37 180.513 178.896 180.787 179.341C181.071 179.786 181.455 180.165 181.938 180.477C182.421 180.78 182.956 181.036 183.543 181.244C184.13 181.453 184.722 181.628 185.319 181.77L188.046 182.452C189.144 182.707 190.2 183.053 191.213 183.489C192.236 183.924 193.15 184.473 193.955 185.136C194.769 185.799 195.413 186.599 195.887 187.537C196.36 188.474 196.597 189.573 196.597 190.832C196.597 192.537 196.161 194.038 195.29 195.335C194.419 196.623 193.159 197.632 191.512 198.361C189.873 199.08 187.89 199.44 185.56 199.44C183.297 199.44 181.332 199.09 179.665 198.389C178.008 197.688 176.711 196.666 175.773 195.321C174.845 193.976 174.343 192.338 174.267 190.406H179.452C179.528 191.42 179.84 192.262 180.39 192.935C180.939 193.607 181.654 194.109 182.534 194.44C183.425 194.772 184.419 194.938 185.517 194.938C186.663 194.938 187.667 194.767 188.529 194.426C189.4 194.076 190.082 193.593 190.574 192.977C191.067 192.352 191.318 191.623 191.327 190.79C191.318 190.032 191.095 189.407 190.659 188.915C190.224 188.413 189.613 187.996 188.827 187.665C188.051 187.324 187.141 187.021 186.1 186.756L182.79 185.903C180.394 185.288 178.5 184.355 177.108 183.105C175.726 181.846 175.034 180.174 175.034 178.091C175.034 176.377 175.498 174.876 176.426 173.588C177.364 172.3 178.638 171.301 180.248 170.591C181.857 169.871 183.68 169.511 185.716 169.511C187.781 169.511 189.589 169.871 191.142 170.591C192.705 171.301 193.931 172.291 194.821 173.56C195.712 174.819 196.171 176.268 196.199 177.906H191.128ZM214.974 189.824V177.182H220.116V199H215.13V195.122H214.903C214.411 196.344 213.601 197.343 212.474 198.119C211.357 198.896 209.979 199.284 208.341 199.284C206.911 199.284 205.646 198.967 204.548 198.332C203.459 197.688 202.607 196.756 201.991 195.534C201.376 194.303 201.068 192.816 201.068 191.074V177.182H206.21V190.278C206.21 191.661 206.589 192.759 207.346 193.574C208.104 194.388 209.098 194.795 210.329 194.795C211.087 194.795 211.821 194.611 212.531 194.241C213.241 193.872 213.824 193.323 214.278 192.594C214.742 191.855 214.974 190.932 214.974 189.824ZM234.921 199.426C232.743 199.426 230.873 198.948 229.31 197.991C227.757 197.035 226.559 195.714 225.716 194.028C224.883 192.333 224.466 190.383 224.466 188.176C224.466 185.96 224.892 184.005 225.745 182.31C226.597 180.605 227.8 179.279 229.353 178.332C230.915 177.376 232.762 176.898 234.892 176.898C236.663 176.898 238.23 177.224 239.594 177.878C240.967 178.522 242.061 179.436 242.875 180.619C243.69 181.794 244.154 183.167 244.267 184.739H239.353C239.154 183.687 238.68 182.812 237.932 182.111C237.194 181.401 236.204 181.045 234.963 181.045C233.912 181.045 232.989 181.33 232.194 181.898C231.398 182.456 230.778 183.261 230.333 184.312C229.897 185.364 229.679 186.623 229.679 188.091C229.679 189.578 229.897 190.856 230.333 191.926C230.768 192.987 231.379 193.806 232.165 194.384C232.961 194.952 233.893 195.236 234.963 195.236C235.721 195.236 236.398 195.094 236.995 194.81C237.601 194.516 238.107 194.095 238.515 193.545C238.922 192.996 239.201 192.329 239.353 191.543H244.267C244.144 193.086 243.69 194.455 242.904 195.648C242.118 196.831 241.048 197.759 239.694 198.432C238.339 199.095 236.748 199.426 234.921 199.426ZM258.007 199.426C255.829 199.426 253.958 198.948 252.396 197.991C250.843 197.035 249.645 195.714 248.802 194.028C247.969 192.333 247.552 190.383 247.552 188.176C247.552 185.96 247.978 184.005 248.831 182.31C249.683 180.605 250.886 179.279 252.439 178.332C254.001 177.376 255.848 176.898 257.978 176.898C259.749 176.898 261.316 177.224 262.68 177.878C264.053 178.522 265.147 179.436 265.961 180.619C266.776 181.794 267.24 183.167 267.353 184.739H262.439C262.24 183.687 261.766 182.812 261.018 182.111C260.279 181.401 259.29 181.045 258.049 181.045C256.998 181.045 256.075 181.33 255.279 181.898C254.484 182.456 253.864 183.261 253.419 184.312C252.983 185.364 252.765 186.623 252.765 188.091C252.765 189.578 252.983 190.856 253.419 191.926C253.854 192.987 254.465 193.806 255.251 194.384C256.047 194.952 256.979 195.236 258.049 195.236C258.807 195.236 259.484 195.094 260.081 194.81C260.687 194.516 261.193 194.095 261.6 193.545C262.008 192.996 262.287 192.329 262.439 191.543H267.353C267.23 193.086 266.776 194.455 265.99 195.648C265.204 196.831 264.134 197.759 262.779 198.432C261.425 199.095 259.834 199.426 258.007 199.426ZM281.235 199.426C279.047 199.426 277.158 198.972 275.567 198.062C273.986 197.144 272.769 195.847 271.917 194.17C271.064 192.485 270.638 190.501 270.638 188.219C270.638 185.974 271.064 184.005 271.917 182.31C272.778 180.605 273.981 179.279 275.525 178.332C277.068 177.376 278.882 176.898 280.965 176.898C282.31 176.898 283.578 177.116 284.772 177.551C285.974 177.977 287.035 178.64 287.953 179.54C288.882 180.439 289.611 181.585 290.141 182.977C290.671 184.36 290.936 186.008 290.936 187.92V189.497H273.053V186.031H286.007C285.998 185.046 285.785 184.17 285.368 183.403C284.952 182.627 284.369 182.016 283.621 181.571C282.882 181.126 282.021 180.903 281.036 180.903C279.985 180.903 279.061 181.159 278.266 181.67C277.471 182.172 276.85 182.835 276.405 183.659C275.97 184.473 275.747 185.368 275.738 186.344V189.369C275.738 190.638 275.97 191.727 276.434 192.636C276.898 193.536 277.546 194.227 278.38 194.71C279.213 195.184 280.188 195.42 281.306 195.42C282.054 195.42 282.731 195.316 283.337 195.108C283.943 194.89 284.469 194.573 284.914 194.156C285.359 193.74 285.695 193.223 285.922 192.608L290.723 193.148C290.42 194.417 289.843 195.525 288.99 196.472C288.148 197.409 287.068 198.138 285.752 198.659C284.435 199.17 282.93 199.426 281.235 199.426ZM312.531 182.949L307.843 183.46C307.711 182.987 307.479 182.542 307.147 182.125C306.825 181.708 306.39 181.372 305.841 181.116C305.291 180.861 304.619 180.733 303.824 180.733C302.753 180.733 301.854 180.965 301.125 181.429C300.405 181.893 300.05 182.494 300.059 183.233C300.05 183.867 300.282 184.384 300.755 184.781C301.238 185.179 302.034 185.506 303.142 185.761L306.863 186.557C308.928 187.002 310.462 187.707 311.466 188.673C312.479 189.639 312.99 190.903 313 192.466C312.99 193.839 312.588 195.051 311.792 196.102C311.006 197.144 309.913 197.958 308.511 198.545C307.109 199.133 305.5 199.426 303.681 199.426C301.011 199.426 298.861 198.867 297.233 197.75C295.604 196.623 294.633 195.056 294.321 193.048L299.335 192.565C299.562 193.55 300.045 194.294 300.784 194.795C301.522 195.297 302.484 195.548 303.667 195.548C304.889 195.548 305.869 195.297 306.608 194.795C307.356 194.294 307.73 193.673 307.73 192.935C307.73 192.31 307.488 191.794 307.005 191.386C306.532 190.979 305.793 190.667 304.789 190.449L301.068 189.668C298.975 189.232 297.427 188.498 296.423 187.466C295.419 186.424 294.922 185.108 294.931 183.517C294.922 182.172 295.287 181.008 296.025 180.023C296.773 179.028 297.81 178.261 299.136 177.722C300.471 177.172 302.01 176.898 303.752 176.898C306.309 176.898 308.322 177.442 309.789 178.531C311.267 179.62 312.181 181.093 312.531 182.949ZM334.484 182.949L329.797 183.46C329.664 182.987 329.432 182.542 329.1 182.125C328.779 181.708 328.343 181.372 327.794 181.116C327.244 180.861 326.572 180.733 325.777 180.733C324.707 180.733 323.807 180.965 323.078 181.429C322.358 181.893 322.003 182.494 322.012 183.233C322.003 183.867 322.235 184.384 322.708 184.781C323.191 185.179 323.987 185.506 325.095 185.761L328.816 186.557C330.881 187.002 332.415 187.707 333.419 188.673C334.432 189.639 334.943 190.903 334.953 192.466C334.943 193.839 334.541 195.051 333.745 196.102C332.959 197.144 331.866 197.958 330.464 198.545C329.063 199.133 327.453 199.426 325.635 199.426C322.964 199.426 320.815 198.867 319.186 197.75C317.557 196.623 316.586 195.056 316.274 193.048L321.288 192.565C321.515 193.55 321.998 194.294 322.737 194.795C323.475 195.297 324.437 195.548 325.62 195.548C326.842 195.548 327.822 195.297 328.561 194.795C329.309 194.294 329.683 193.673 329.683 192.935C329.683 192.31 329.441 191.794 328.958 191.386C328.485 190.979 327.746 190.667 326.743 190.449L323.021 189.668C320.928 189.232 319.38 188.498 318.376 187.466C317.372 186.424 316.875 185.108 316.885 183.517C316.875 182.172 317.24 181.008 317.978 180.023C318.726 179.028 319.763 178.261 321.089 177.722C322.424 177.172 323.963 176.898 325.706 176.898C328.262 176.898 330.275 177.442 331.743 178.531C333.22 179.62 334.134 181.093 334.484 182.949Z" fill="black"/>
<path d="M76.8001 280.185H74.5842C74.4989 279.711 74.3403 279.295 74.1083 278.935C73.8763 278.575 73.5922 278.269 73.256 278.018C72.9199 277.768 72.5434 277.578 72.1268 277.45C71.7148 277.322 71.2769 277.259 70.8129 277.259C69.9748 277.259 69.2243 277.469 68.5614 277.891C67.9033 278.312 67.3825 278.93 66.9989 279.744C66.6201 280.559 66.4308 281.553 66.4308 282.727C66.4308 283.911 66.6201 284.91 66.9989 285.724C67.3825 286.539 67.9057 287.154 68.5685 287.571C69.2314 287.988 69.9772 288.196 70.8058 288.196C71.265 288.196 71.7006 288.134 72.1126 288.011C72.5292 287.884 72.9057 287.696 73.2418 287.45C73.578 287.204 73.8621 286.903 74.0941 286.548C74.3308 286.188 74.4942 285.777 74.5842 285.312L76.8001 285.32C76.6817 286.035 76.4521 286.693 76.1112 287.294C75.775 287.891 75.3417 288.407 74.8114 288.842C74.2859 289.273 73.6845 289.607 73.0075 289.844C72.3304 290.08 71.5917 290.199 70.7915 290.199C69.5321 290.199 68.4099 289.901 67.4251 289.304C66.4402 288.703 65.6637 287.843 65.0955 286.726C64.5321 285.608 64.2504 284.276 64.2504 282.727C64.2504 281.174 64.5344 279.841 65.1026 278.729C65.6708 277.611 66.4473 276.754 67.4322 276.158C68.417 275.556 69.5368 275.256 70.7915 275.256C71.5633 275.256 72.283 275.367 72.9506 275.589C73.623 275.807 74.2267 276.129 74.7617 276.555C75.2968 276.977 75.7395 277.493 76.0898 278.104C76.4402 278.71 76.677 279.403 76.8001 280.185ZM91.1662 275.455V290H89.1491L81.7557 279.332H81.6207V290H79.4261V275.455H81.4574L88.858 286.136H88.9929V275.455H91.1662ZM102.301 279.276C102.225 278.603 101.913 278.082 101.363 277.713C100.814 277.339 100.123 277.152 99.2894 277.152C98.6928 277.152 98.1767 277.247 97.7411 277.436C97.3055 277.621 96.967 277.876 96.7255 278.203C96.4888 278.525 96.3704 278.892 96.3704 279.304C96.3704 279.65 96.4509 279.948 96.6119 280.199C96.7776 280.45 96.993 280.661 97.2582 280.831C97.5281 280.997 97.8169 281.136 98.1246 281.25C98.4324 281.359 98.7283 281.449 99.0124 281.52L100.433 281.889C100.897 282.003 101.373 282.157 101.86 282.351C102.348 282.545 102.8 282.801 103.217 283.118C103.634 283.435 103.97 283.828 104.225 284.297C104.486 284.766 104.616 285.327 104.616 285.98C104.616 286.804 104.403 287.536 103.977 288.175C103.556 288.814 102.942 289.318 102.137 289.688C101.337 290.057 100.369 290.241 99.2326 290.241C98.1436 290.241 97.2013 290.069 96.4059 289.723C95.6104 289.377 94.9878 288.887 94.538 288.253C94.0882 287.614 93.8396 286.856 93.7923 285.98H95.994C96.0366 286.506 96.207 286.944 96.5053 287.294C96.8084 287.64 97.1942 287.898 97.663 288.068C98.1365 288.234 98.6549 288.317 99.2184 288.317C99.8387 288.317 100.39 288.22 100.873 288.026C101.361 287.827 101.744 287.552 102.024 287.202C102.303 286.847 102.443 286.432 102.443 285.959C102.443 285.528 102.32 285.175 102.074 284.901C101.832 284.626 101.503 284.399 101.086 284.219C100.674 284.039 100.208 283.88 99.6871 283.743L97.9684 283.274C96.8036 282.957 95.8803 282.491 95.1985 281.875C94.5214 281.259 94.1829 280.445 94.1829 279.432C94.1829 278.594 94.4102 277.862 94.8647 277.237C95.3192 276.612 95.9348 276.127 96.7113 275.781C97.4878 275.431 98.3638 275.256 99.3391 275.256C100.324 275.256 101.193 275.429 101.946 275.774C102.703 276.12 103.3 276.596 103.735 277.202C104.171 277.803 104.398 278.494 104.417 279.276H102.301ZM108.841 278.9H121.121V280.26H108.841V278.9ZM106.621 282.68H123.021V284.04H106.621V282.68ZM108.841 274.14H110.481V279.58H108.841V274.14ZM108.721 289.76H121.221V291.12H108.721V289.76ZM108.721 285.84H110.361V290.12H108.721V285.84ZM130.332 287.88H146.712V289.26H130.332V287.88ZM137.652 283.2H139.312V288.26H137.652V283.2ZM132.232 274.98H144.712V283.5H132.232V274.98ZM143.112 276.32H133.852V282.16H143.112V276.32ZM150.97 280.2H163.05V281.56H150.97V280.2ZM148.71 283.9H165.11V285.28H148.71V283.9ZM156.03 284.66H157.67V291.5H156.03V284.66ZM150.97 274.54H162.81V275.9H152.65V280.86H150.97V274.54ZM174.449 280.5H177.869V281.88H174.449V280.5ZM180.889 273.48H182.489V291.56H180.889V273.48ZM177.309 273.86H178.889V290.66H177.309V273.86ZM171.189 274.98C173.529 274.98 175.049 277.4 175.049 281.28C175.049 285.16 173.529 287.58 171.189 287.58C168.849 287.58 167.349 285.16 167.349 281.28C167.349 277.4 168.849 274.98 171.189 274.98ZM171.189 276.52C169.769 276.52 168.869 278.36 168.869 281.28C168.869 284.2 169.769 286.04 171.189 286.04C172.629 286.04 173.529 284.2 173.529 281.28C173.529 278.36 172.629 276.52 171.189 276.52ZM199.287 273.48H200.887V291.56H199.287V273.48ZM191.447 280.86H196.007V282.2H191.447V280.86ZM195.527 273.94H197.087V290.64H195.527V273.94ZM191.667 275.76H193.267C193.267 280.5 191.367 284.76 186.487 287.66L185.507 286.48C189.767 283.92 191.667 280.32 191.667 276.06V275.76ZM186.307 275.76H192.287V277.12H186.307V275.76ZM216.539 278.84H218.179V281.6H216.539V278.84ZM216.299 274.58H217.759V275.14C217.759 277.86 214.399 279.6 210.599 279.96L210.059 278.7C213.319 278.44 216.299 277.04 216.299 275.14V274.58ZM217.019 274.58H218.459V275.14C218.459 277.02 221.439 278.44 224.699 278.7L224.159 279.96C220.379 279.6 217.019 277.86 217.019 275.14V274.58ZM210.699 274.04H224.079V275.34H210.699V274.04ZM210.719 284.7H224.039V286.02H210.719V284.7ZM209.199 280.98H225.599V282.32H209.199V280.98ZM217.379 286.9C220.859 286.9 222.799 287.72 222.799 289.28C222.799 290.86 220.859 291.66 217.379 291.66C213.899 291.66 211.939 290.86 211.939 289.28C211.939 287.72 213.899 286.9 217.379 286.9ZM217.379 288.04C214.979 288.04 213.639 288.46 213.639 289.28C213.639 290.1 214.979 290.52 217.379 290.52C219.759 290.52 221.119 290.1 221.119 289.28C221.119 288.46 219.759 288.04 217.379 288.04ZM216.559 283.04H218.199V285.54H216.559V283.04ZM227.597 282.98H243.937V284.34H227.597V282.98ZM229.717 289.8H242.137V291.16H229.717V289.8ZM229.717 285.92H231.377V290.22H229.717V285.92ZM235.777 274.08C239.637 274.08 242.137 275.44 242.137 277.7C242.137 279.94 239.637 281.3 235.777 281.3C231.897 281.3 229.417 279.94 229.417 277.7C229.417 275.44 231.897 274.08 235.777 274.08ZM235.777 275.44C232.937 275.44 231.117 276.28 231.117 277.7C231.117 279.12 232.937 279.96 235.777 279.96C238.617 279.96 240.437 279.12 240.437 277.7C240.437 276.28 238.617 275.44 235.777 275.44ZM260.329 279.6H265.369V280.96H260.329V279.6ZM255.969 275.04H257.329V278.26C257.329 282.32 255.189 286.2 252.329 287.74L251.269 286.42C253.929 285.1 255.969 281.62 255.969 278.26V275.04ZM256.289 275.04H257.629V278.26C257.629 281.56 259.669 284.84 262.289 286.08L261.309 287.42C258.389 285.94 256.289 282.22 256.289 278.26V275.04ZM264.549 273.46H266.189V291.58H264.549V273.46ZM282.827 273.46H284.487V291.58H282.827V273.46ZM270.727 275H272.367V279.78H277.587V275H279.247V287.22H270.727V275ZM272.367 281.1V285.86H277.587V281.1H272.367ZM295.345 274.72H296.785V276.1C296.785 280.04 293.125 283.1 289.505 283.92L288.765 282.54C291.945 281.94 295.345 279.18 295.345 276.1V274.72ZM295.645 274.72H297.085V276.1C297.085 279.2 300.505 281.94 303.665 282.54L302.925 283.92C299.325 283.1 295.645 280.06 295.645 276.1V274.72ZM288.105 287.76H304.485V289.12H288.105V287.76ZM306.484 281.88H322.884V283.14H306.484V281.88ZM308.424 284.6H320.824V288.46H310.124V290.58H308.484V287.32H319.204V285.78H308.424V284.6ZM308.484 290.14H321.404V291.34H308.484V290.14ZM308.564 274H320.764V277.76H310.244V279.72H308.604V276.64H319.144V275.18H308.564V274ZM308.604 279.32H321.104V280.52H308.604V279.32ZM343.935 273.48H345.535V291.56H343.935V273.48ZM337.355 279.96H340.815V281.34H337.355V279.96ZM340.315 273.9H341.875V290.64H340.315V273.9ZM333.875 276.28H335.155V278.58C335.155 282.54 333.635 286.28 330.975 287.96L329.955 286.72C332.475 285.2 333.875 281.9 333.875 278.58V276.28ZM334.215 276.28H335.495V278.58C335.495 281.72 336.855 284.86 339.335 286.3L338.315 287.52C335.675 285.92 334.215 282.36 334.215 278.58V276.28ZM330.455 275.58H338.715V276.96H330.455V275.58ZM356.694 284.88C360.534 284.88 362.994 286.14 362.994 288.22C362.994 290.28 360.534 291.52 356.694 291.52C352.834 291.52 350.394 290.28 350.394 288.22C350.394 286.14 352.834 284.88 356.694 284.88ZM356.694 286.18C353.854 286.18 352.034 286.96 352.034 288.22C352.034 289.46 353.854 290.24 356.694 290.24C359.534 290.24 361.334 289.46 361.334 288.22C361.334 286.96 359.534 286.18 356.694 286.18ZM350.534 274.38H362.174V275.74H350.534V274.38ZM348.594 281.9H364.914V283.24H348.594V281.9ZM355.294 278.42H356.934V282.28H355.294V278.42ZM361.214 274.38H362.834V275.92C362.834 277.38 362.834 278.84 362.354 280.72L360.714 280.52C361.214 278.66 361.214 277.34 361.214 275.92V274.38ZM379.232 273.48H380.892V291.56H379.232V273.48ZM380.492 280.9H383.852V282.3H380.492V280.9ZM366.892 276.36H377.552V277.72H366.892V276.36ZM372.292 279.22C374.852 279.22 376.692 280.94 376.692 283.38C376.692 285.82 374.852 287.54 372.292 287.54C369.752 287.54 367.892 285.82 367.892 283.38C367.892 280.94 369.752 279.22 372.292 279.22ZM372.292 280.6C370.652 280.6 369.472 281.74 369.472 283.38C369.472 285 370.652 286.16 372.292 286.16C373.932 286.16 375.112 285 375.112 283.38C375.112 281.74 373.932 280.6 372.292 280.6ZM371.432 273.7H373.092V276.98H371.432V273.7ZM398.551 273.48H400.211V291.56H398.551V273.48ZM393.251 275.42H394.891C394.891 280.66 392.531 285.24 386.491 288.2L385.611 286.86C390.831 284.34 393.251 280.5 393.251 275.7V275.42ZM386.431 275.42H393.971V276.78H386.431V275.42ZM414.982 274.32C417.682 274.32 419.602 275.82 419.602 278.04C419.602 280.24 417.682 281.78 414.982 281.78C412.302 281.78 410.382 280.24 410.382 278.04C410.382 275.82 412.302 274.32 414.982 274.32ZM414.982 275.7C413.222 275.7 411.962 276.66 411.962 278.04C411.962 279.44 413.222 280.38 414.982 280.38C416.742 280.38 418.002 279.44 418.002 278.04C418.002 276.66 416.742 275.7 414.982 275.7ZM414.242 283.78H415.902V291H414.242V283.78ZM422.242 273.48H423.882V291.58H422.242V273.48ZM409.262 284.68L409.042 283.28C412.402 283.28 416.982 283.24 420.962 282.64L421.082 283.88C417.002 284.62 412.562 284.68 409.262 284.68ZM427.44 276.56H436.4V277.92H427.44V276.56ZM431.92 279.12C434.18 279.12 435.82 280.82 435.82 283.26C435.82 285.68 434.18 287.38 431.92 287.38C429.68 287.38 428.04 285.68 428.04 283.26C428.04 280.82 429.68 279.12 431.92 279.12ZM431.92 280.54C430.54 280.54 429.54 281.66 429.54 283.26C429.54 284.86 430.54 285.98 431.92 285.98C433.32 285.98 434.34 284.86 434.34 283.26C434.34 281.66 433.32 280.54 431.92 280.54ZM441.18 273.48H442.78V291.56H441.18V273.48ZM438.3 281.08H441.72V282.46H438.3V281.08ZM437.32 273.88H438.88V290.68H437.32V273.88ZM431.12 274H432.76V277.4H431.12V274ZM127.799 297.48H129.459V309.12H127.799V297.48ZM128.999 302.5H132.139V303.88H128.999V302.5ZM123.779 309.28C127.439 309.28 129.659 310.42 129.659 312.4C129.659 314.38 127.439 315.52 123.779 315.52C120.139 315.52 117.899 314.38 117.899 312.4C117.899 310.42 120.139 309.28 123.779 309.28ZM123.779 310.56C121.139 310.56 119.539 311.24 119.539 312.4C119.539 313.58 121.139 314.24 123.779 314.24C126.439 314.24 128.039 313.58 128.039 312.4C128.039 311.24 126.439 310.56 123.779 310.56ZM115.479 299.52H126.159V300.84H115.479V299.52ZM120.819 301.76C123.399 301.76 125.139 303 125.139 304.94C125.139 306.9 123.399 308.14 120.819 308.14C118.219 308.14 116.479 306.9 116.479 304.94C116.479 303 118.219 301.76 120.819 301.76ZM120.819 303.02C119.159 303.02 118.059 303.78 118.059 304.94C118.059 306.12 119.159 306.88 120.819 306.88C122.439 306.88 123.559 306.12 123.559 304.94C123.559 303.78 122.439 303.02 120.819 303.02ZM119.979 297.32H121.639V300.26H119.979V297.32ZM138.218 298.42H139.598V300.26C139.598 303.74 137.638 306.62 134.618 307.8L133.738 306.46C136.458 305.46 138.218 303.02 138.218 300.26V298.42ZM138.518 298.42H139.878V300.38C139.878 302.82 141.678 305.08 144.278 305.98L143.398 307.28C140.498 306.2 138.518 303.52 138.518 300.38V298.42ZM146.198 297.48H147.858V308.44H146.198V297.48ZM147.398 302.14H150.538V303.54H147.398V302.14ZM142.098 308.94C145.798 308.94 148.038 310.16 148.038 312.24C148.038 314.32 145.798 315.52 142.098 315.52C138.398 315.52 136.158 314.32 136.158 312.24C136.158 310.16 138.398 308.94 142.098 308.94ZM142.098 310.26C139.418 310.26 137.778 310.98 137.778 312.24C137.778 313.5 139.418 314.22 142.098 314.22C144.778 314.22 146.418 313.5 146.418 312.24C146.418 310.98 144.778 310.26 142.098 310.26ZM159.249 299.28H170.889V300.66H159.249V299.28ZM157.529 311.66H173.869V313.04H157.529V311.66ZM163.869 305.2H165.529V312.34H163.869V305.2ZM170.269 299.28H171.909V301.08C171.909 303.32 171.909 305.8 171.249 309.46L169.589 309.24C170.269 305.78 170.269 303.24 170.269 301.08V299.28ZM176.868 299.04H185.288V307.46H176.868V299.04ZM183.688 300.38H178.468V306.12H183.688V300.38ZM189.068 297.5H190.748V310.48H189.068V297.5ZM179.128 313.6H191.288V314.98H179.128V313.6ZM179.128 309.24H180.768V314.16H179.128V309.24ZM206.566 297.48H208.226V315.56H206.566V297.48ZM207.826 304.9H211.186V306.3H207.826V304.9ZM194.226 300.36H204.886V301.72H194.226V300.36ZM199.626 303.22C202.186 303.22 204.026 304.94 204.026 307.38C204.026 309.82 202.186 311.54 199.626 311.54C197.086 311.54 195.226 309.82 195.226 307.38C195.226 304.94 197.086 303.22 199.626 303.22ZM199.626 304.6C197.986 304.6 196.806 305.74 196.806 307.38C196.806 309 197.986 310.16 199.626 310.16C201.266 310.16 202.446 309 202.446 307.38C202.446 305.74 201.266 304.6 199.626 304.6ZM198.766 297.7H200.426V300.98H198.766V297.7ZM221.025 301.8H226.605V303.16H221.025V301.8ZM221.025 306.78H226.605V308.16H221.025V306.78ZM213.445 299.24H221.665V311H213.445V299.24ZM220.025 300.58H215.065V309.66H220.025V300.58ZM225.965 297.46H227.605V315.58H225.965V297.46ZM238.416 305.68H250.936V307.04H238.416V305.68ZM236.416 311.86H252.796V313.24H236.416V311.86ZM243.756 306.52H245.396V312.3H243.756V306.52ZM238.416 299H240.076V306.28H238.416V299ZM255.554 306.44H256.854C260.414 306.44 262.174 306.38 264.334 306L264.514 307.34C262.274 307.74 260.474 307.8 256.854 307.8H255.554V306.44ZM255.514 298.56H263.314V303.7H257.194V307.26H255.554V302.4H261.674V299.92H255.514V298.56ZM268.014 297.5H269.674V308.6H268.014V297.5ZM264.514 300.16H268.394V301.52H264.514V300.16ZM264.514 303.9H268.394V305.26H264.514V303.9ZM257.574 309.58H269.674V315.6H268.014V310.94H257.574V309.58ZM285.453 297.48H287.113V315.56H285.453V297.48ZM286.713 304.9H290.073V306.3H286.713V304.9ZM273.113 300.36H283.773V301.72H273.113V300.36ZM278.513 303.22C281.073 303.22 282.913 304.94 282.913 307.38C282.913 309.82 281.073 311.54 278.513 311.54C275.973 311.54 274.113 309.82 274.113 307.38C274.113 304.94 275.973 303.22 278.513 303.22ZM278.513 304.6C276.873 304.6 275.693 305.74 275.693 307.38C275.693 309 276.873 310.16 278.513 310.16C280.153 310.16 281.333 309 281.333 307.38C281.333 305.74 280.153 304.6 278.513 304.6ZM277.653 297.7H279.313V300.98H277.653V297.7ZM293.811 302.9H306.091V304.26H293.811V302.9ZM291.591 306.68H307.991V308.04H291.591V306.68ZM293.811 298.14H295.451V303.58H293.811V298.14ZM293.691 313.76H306.191V315.12H293.691V313.76ZM293.691 309.84H295.331V314.12H293.691V309.84ZM316.343 305.84H317.803C321.703 305.84 323.843 305.76 326.383 305.32L326.563 306.64C323.943 307.1 321.743 307.16 317.803 307.16H316.343V305.84ZM316.343 298.58H324.943V299.92H317.983V306.52H316.343V298.58ZM317.443 302.14H324.443V303.48H317.443V302.14ZM328.443 297.5H330.123V308.26H328.443V297.5ZM318.443 309.16H330.123V315.32H318.443V309.16ZM328.483 310.5H320.063V313.98H328.483V310.5ZM346.841 297.48H348.521V307.18H346.841V297.48ZM336.861 308.08H338.501V310.28H346.881V308.08H348.521V315.32H336.861V308.08ZM338.501 311.6V313.98H346.881V311.6H338.501ZM338.821 298.34C341.561 298.34 343.521 300.04 343.521 302.5C343.521 304.98 341.561 306.68 338.821 306.68C336.081 306.68 334.101 304.98 334.101 302.5C334.101 300.04 336.081 298.34 338.821 298.34ZM338.821 299.72C337.021 299.72 335.721 300.86 335.721 302.5C335.721 304.14 337.021 305.28 338.821 305.28C340.621 305.28 341.921 304.14 341.921 302.5C341.921 300.86 340.621 299.72 338.821 299.72ZM365.24 297.48H366.9V315.56H365.24V297.48ZM353.24 299.24H354.88V310.44H353.24V299.24ZM353.24 309.46H354.72C357.46 309.46 360.32 309.26 363.38 308.62L363.58 310.04C360.44 310.68 357.58 310.9 354.72 310.9H353.24V309.46ZM382.718 297.46H384.398V315.58H382.718V297.46ZM383.998 304.6H387.358V306H383.998V304.6ZM371.258 309.68H372.678C376.018 309.68 378.358 309.56 381.058 309.06L381.238 310.46C378.458 310.98 376.078 311.08 372.678 311.08H371.258V309.68ZM371.258 299.22H379.658V300.58H372.898V310.3H371.258V299.22ZM390.723 314.135C390.335 314.135 390.001 313.998 389.722 313.723C389.442 313.444 389.303 313.107 389.303 312.714C389.303 312.326 389.442 311.995 389.722 311.72C390.001 311.441 390.335 311.301 390.723 311.301C391.111 311.301 391.445 311.441 391.725 311.72C392.004 311.995 392.144 312.326 392.144 312.714C392.144 312.975 392.077 313.214 391.945 313.432C391.817 313.645 391.646 313.815 391.433 313.943C391.22 314.071 390.984 314.135 390.723 314.135Z" fill="black"/>
<path d="M80.2854 361.545V364.911H79.1405V361.545H80.2854ZM82.6583 361.545V364.911H81.5134V361.545H82.6583ZM87.103 360.925H88V362.134C88 364.409 86.713 366.268 84.698 367.022L84.139 366.138C85.933 365.501 87.103 363.928 87.103 362.134V360.925ZM87.298 360.925H88.182V362.095C88.182 363.759 89.326 365.228 91.042 365.826L90.457 366.671C88.559 365.956 87.298 364.227 87.298 362.095V360.925ZM92.732 360.262H93.811V367.217H92.732V360.262ZM89.95 367.555C92.368 367.555 93.863 368.374 93.863 369.778C93.863 371.182 92.368 371.988 89.95 371.988C87.519 371.988 86.024 371.182 86.024 369.778C86.024 368.374 87.519 367.555 89.95 367.555ZM89.95 368.413C88.182 368.413 87.103 368.92 87.103 369.778C87.103 370.636 88.182 371.143 89.95 371.143C91.718 371.143 92.797 370.636 92.797 369.778C92.797 368.92 91.718 368.413 89.95 368.413ZM90.184 362.745H92.966V363.642H90.184V362.745ZM101.376 367.672C103.872 367.672 105.471 368.491 105.471 369.843C105.471 371.182 103.872 371.988 101.376 371.988C98.8669 371.988 97.2809 371.182 97.2809 369.843C97.2809 368.491 98.8669 367.672 101.376 367.672ZM101.376 368.517C99.5299 368.517 98.3469 369.024 98.3469 369.843C98.3469 370.649 99.5299 371.156 101.376 371.156C103.222 371.156 104.392 370.649 104.392 369.843C104.392 369.024 103.222 368.517 101.376 368.517ZM97.3719 360.847H104.938V361.731H97.3719V360.847ZM96.1109 365.735H106.719V366.606H96.1109V365.735ZM100.466 363.473H101.532V365.982H100.466V363.473ZM104.314 360.847H105.367V361.848C105.367 362.797 105.367 363.746 105.055 364.968L103.989 364.838C104.314 363.629 104.314 362.771 104.314 361.848V360.847ZM108.057 366.437H118.678V367.321H108.057V366.437ZM109.435 370.87H117.508V371.754H109.435V370.87ZM109.435 368.348H110.514V371.143H109.435V368.348ZM113.374 360.652C115.883 360.652 117.508 361.536 117.508 363.005C117.508 364.461 115.883 365.345 113.374 365.345C110.852 365.345 109.24 364.461 109.24 363.005C109.24 361.536 110.852 360.652 113.374 360.652ZM113.374 361.536C111.528 361.536 110.345 362.082 110.345 363.005C110.345 363.928 111.528 364.474 113.374 364.474C115.22 364.474 116.403 363.928 116.403 363.005C116.403 362.082 115.22 361.536 113.374 361.536ZM128.019 363.525H130.632V364.396H128.019V363.525ZM127.928 366.476H130.606V367.347H127.928V366.476ZM132.413 360.262H133.453V372.014H132.413V360.262ZM130.06 360.561H131.074V371.416H130.06V360.561ZM127.434 361.744H128.474C128.474 364.825 127.239 367.594 124.08 369.479L123.456 368.712C126.199 367.048 127.434 364.708 127.434 361.939V361.744ZM123.976 361.744H127.863V362.628H123.976V361.744ZM135.857 361.328H142.734V362.134H135.857V361.328ZM139.302 362.589C140.992 362.589 142.097 363.265 142.097 364.331C142.097 365.41 140.992 366.086 139.302 366.086C137.625 366.086 136.52 365.41 136.52 364.331C136.52 363.265 137.625 362.589 139.302 362.589ZM139.302 363.343C138.249 363.343 137.534 363.72 137.534 364.331C137.534 364.929 138.249 365.332 139.302 365.332C140.381 365.332 141.07 364.929 141.07 364.331C141.07 363.72 140.381 363.343 139.302 363.343ZM138.756 360.184H139.848V361.757H138.756V360.184ZM138.756 365.657H139.848V367.256H138.756V365.657ZM143.956 360.275H145.035V368.14H143.956V360.275ZM137.157 368.686H145.035V372.014H143.956V369.544H137.157V368.686ZM135.623 367.776L135.48 366.905C137.638 366.905 140.55 366.892 143.02 366.554L143.098 367.308C140.537 367.737 137.742 367.776 135.623 367.776ZM152.167 367.152H153.181V368.621H155.235V367.152H156.236V371.858H152.167V367.152ZM153.181 369.427V371.013H155.235V369.427H153.181ZM158.511 367.087H159.343V368.062C159.343 369.661 158.537 371.273 156.912 371.962L156.366 371.143C157.783 370.545 158.511 369.258 158.511 368.062V367.087ZM158.732 367.087H159.564V368.062C159.564 369.323 160.292 370.597 161.709 371.143L161.163 371.962C159.525 371.286 158.732 369.726 158.732 368.062V367.087ZM156.73 363.018H159.889V363.915H156.73V363.018ZM154.026 360.782C155.781 360.782 157.055 361.874 157.055 363.486C157.055 365.085 155.781 366.19 154.026 366.19C152.271 366.19 150.997 365.085 150.997 363.486C150.997 361.874 152.271 360.782 154.026 360.782ZM154.026 361.679C152.869 361.679 152.037 362.42 152.037 363.486C152.037 364.539 152.869 365.293 154.026 365.293C155.183 365.293 156.015 364.539 156.015 363.486C156.015 362.42 155.183 361.679 154.026 361.679ZM159.408 360.262H160.487V366.489H159.408V360.262ZM171.315 360.249H172.394V372.027H171.315V360.249ZM166.193 361.159C167.935 361.159 169.183 362.758 169.183 365.254C169.183 367.763 167.935 369.362 166.193 369.362C164.464 369.362 163.216 367.763 163.216 365.254C163.216 362.758 164.464 361.159 166.193 361.159ZM166.193 362.134C165.049 362.134 164.243 363.356 164.243 365.254C164.243 367.165 165.049 368.413 166.193 368.413C167.35 368.413 168.143 367.165 168.143 365.254C168.143 363.356 167.35 362.134 166.193 362.134ZM180.253 367.672H187.923V368.543H181.319V371.429H180.253V367.672ZM180.253 370.987H188.105V371.858H180.253V370.987ZM186.766 360.262H187.845V367.009H186.766V360.262ZM183.958 363.213H187.065V364.11H183.958V363.213ZM181.384 360.886C183.113 360.886 184.413 362.043 184.413 363.681C184.413 365.319 183.113 366.476 181.384 366.476C179.642 366.476 178.355 365.319 178.355 363.681C178.355 362.043 179.642 360.886 181.384 360.886ZM181.384 361.809C180.24 361.809 179.395 362.576 179.395 363.681C179.395 364.786 180.24 365.566 181.384 365.566C182.528 365.566 183.373 364.786 183.373 363.681C183.373 362.576 182.528 361.809 181.384 361.809ZM193.278 361.159C194.981 361.159 196.203 362.758 196.203 365.254C196.203 367.763 194.981 369.362 193.278 369.362C191.562 369.362 190.353 367.763 190.353 365.254C190.353 362.758 191.562 361.159 193.278 361.159ZM193.278 362.134C192.147 362.134 191.38 363.356 191.38 365.254C191.38 367.165 192.147 368.413 193.278 368.413C194.409 368.413 195.176 367.165 195.176 365.254C195.176 363.356 194.409 362.134 193.278 362.134ZM198.751 360.249H199.817V372.027H198.751V360.249ZM195.852 364.734H199.219V365.618H195.852V364.734ZM205.211 361.939H206.082V363.85C206.082 366.333 204.587 368.829 202.715 369.752L202.091 368.894C203.794 368.088 205.211 365.878 205.211 363.85V361.939ZM205.419 361.939H206.29V363.85C206.29 365.839 207.707 367.867 209.436 368.608L208.825 369.466C206.927 368.582 205.419 366.294 205.419 363.85V361.939ZM202.481 361.458H209.046V362.368H202.481V361.458ZM210.632 360.262H211.711V372.014H210.632V360.262ZM215.493 363.785H223.475V364.669H215.493V363.785ZM214.05 366.242H224.71V367.126H214.05V366.242ZM215.493 360.691H216.559V364.227H215.493V360.691ZM215.415 370.844H223.54V371.728H215.415V370.844ZM215.415 368.296H216.481V371.078H215.415V368.296ZM238.043 360.262H239.122V368.218H238.043V360.262ZM235.521 363.577H238.264V364.461H235.521V363.577ZM234.351 361.185H235.482C235.482 364.227 233.48 366.385 230.113 367.477L229.658 366.619C232.634 365.683 234.351 363.915 234.351 361.614V361.185ZM230.217 361.185H235.118V362.069H230.217V361.185ZM234.793 367.204H235.716V367.737C235.716 369.986 233.662 371.507 231.309 371.988L230.88 371.13C232.96 370.753 234.793 369.453 234.793 367.737V367.204ZM234.949 367.204H235.872V367.737C235.872 369.427 237.679 370.727 239.772 371.104L239.317 371.962C236.977 371.494 234.949 369.973 234.949 367.737V367.204ZM249.949 360.249H251.028V372.027H249.949V360.249ZM244.827 361.159C246.569 361.159 247.817 362.758 247.817 365.254C247.817 367.763 246.569 369.362 244.827 369.362C243.098 369.362 241.85 367.763 241.85 365.254C241.85 362.758 243.098 361.159 244.827 361.159ZM244.827 362.134C243.683 362.134 242.877 363.356 242.877 365.254C242.877 367.165 243.683 368.413 244.827 368.413C245.984 368.413 246.777 367.165 246.777 365.254C246.777 363.356 245.984 362.134 244.827 362.134ZM259.941 361.159C261.67 361.159 262.892 362.758 262.892 365.254C262.892 367.763 261.67 369.362 259.941 369.362C258.212 369.362 256.99 367.763 256.99 365.254C256.99 362.758 258.212 361.159 259.941 361.159ZM259.941 362.134C258.797 362.134 258.017 363.356 258.017 365.254C258.017 367.165 258.797 368.413 259.941 368.413C261.072 368.413 261.865 367.165 261.865 365.254C261.865 363.356 261.072 362.134 259.941 362.134ZM264.764 360.262H265.856V372.014H264.764V360.262ZM265.596 364.955H267.78V365.865H265.596V364.955ZM277.321 360.262H278.4V372.014H277.321V360.262ZM269.521 361.406H270.587V368.686H269.521V361.406ZM269.521 368.049H270.483C272.264 368.049 274.123 367.919 276.112 367.503L276.242 368.426C274.201 368.842 272.342 368.985 270.483 368.985H269.521V368.049ZM288.695 360.249H289.774V372.027H288.695V360.249ZM289.514 364.929H291.698V365.839H289.514V364.929ZM281.207 368.296H282.143C284.353 368.296 285.887 368.218 287.668 367.88L287.785 368.777C285.952 369.102 284.392 369.193 282.143 369.193H281.207V368.296ZM281.181 361.354H286.498V365.566H282.273V368.66H281.207V364.682H285.432V362.238H281.181V361.354ZM300.688 363.525H303.301V364.396H300.688V363.525ZM300.597 366.476H303.275V367.347H300.597V366.476ZM305.082 360.262H306.122V372.014H305.082V360.262ZM302.729 360.561H303.743V371.416H302.729V360.561ZM300.103 361.744H301.143C301.143 364.825 299.908 367.594 296.749 369.479L296.125 368.712C298.868 367.048 300.103 364.708 300.103 361.939V361.744ZM296.645 361.744H300.532V362.628H296.645V361.744ZM308.526 361.328H315.403V362.134H308.526V361.328ZM311.971 362.589C313.661 362.589 314.766 363.265 314.766 364.331C314.766 365.41 313.661 366.086 311.971 366.086C310.294 366.086 309.189 365.41 309.189 364.331C309.189 363.265 310.294 362.589 311.971 362.589ZM311.971 363.343C310.918 363.343 310.203 363.72 310.203 364.331C310.203 364.929 310.918 365.332 311.971 365.332C313.05 365.332 313.739 364.929 313.739 364.331C313.739 363.72 313.05 363.343 311.971 363.343ZM311.425 360.184H312.517V361.757H311.425V360.184ZM311.425 365.657H312.517V367.256H311.425V365.657ZM316.625 360.275H317.704V368.14H316.625V360.275ZM309.826 368.686H317.704V372.014H316.625V369.544H309.826V368.686ZM308.292 367.776L308.149 366.905C310.307 366.905 313.219 366.892 315.689 366.554L315.767 367.308C313.206 367.737 310.411 367.776 308.292 367.776ZM320.576 361.549H325.893V362.42H320.576V361.549ZM322.409 364.903H323.475V368.881H322.409V364.903ZM325.451 361.549H326.504V362.173C326.504 363.135 326.504 364.669 326.166 366.853L325.1 366.749C325.451 364.63 325.451 363.122 325.451 362.173V361.549ZM327.986 360.262H329.052V372.014H327.986V360.262ZM328.766 365.176H330.937V366.086H328.766V365.176ZM320.056 369.453L319.926 368.543C322.058 368.543 324.892 368.504 327.271 368.205L327.323 368.998C324.892 369.388 322.136 369.44 320.056 369.453ZM336.756 365.592H344.894V366.476H336.756V365.592ZM335.456 369.609H346.103V370.506H335.456V369.609ZM340.227 366.138H341.293V369.895H340.227V366.138ZM336.756 361.25H337.835V365.982H336.756V361.25ZM347.896 366.086H348.741C351.055 366.086 352.199 366.047 353.603 365.8L353.72 366.671C352.264 366.931 351.094 366.97 348.741 366.97H347.896V366.086ZM347.87 360.964H352.94V364.305H348.962V366.619H347.896V363.46H351.874V361.848H347.87V360.964ZM355.995 360.275H357.074V367.49H355.995V360.275ZM353.72 362.004H356.242V362.888H353.72V362.004ZM353.72 364.435H356.242V365.319H353.72V364.435ZM349.209 368.127H357.074V372.04H355.995V369.011H349.209V368.127ZM363.183 361.107C365.016 361.107 366.329 362.238 366.329 363.876C366.329 365.527 365.016 366.658 363.183 366.658C361.35 366.658 360.024 365.527 360.024 363.876C360.024 362.238 361.35 361.107 363.183 361.107ZM363.183 362.043C361.961 362.043 361.077 362.784 361.077 363.876C361.077 364.968 361.961 365.722 363.183 365.722C364.392 365.722 365.276 364.968 365.276 363.876C365.276 362.784 364.392 362.043 363.183 362.043ZM367.863 360.249H368.942V372.027H367.863V360.249ZM359.582 369.453L359.426 368.556C361.571 368.556 364.535 368.543 367.096 368.14L367.187 368.933C364.548 369.44 361.675 369.453 359.582 369.453ZM383.353 360.262H384.432V366.255H383.353V360.262ZM379.635 360.834H380.805C380.805 363.798 378.764 365.696 375.332 366.528L374.955 365.644C377.997 364.942 379.635 363.395 379.635 361.367V360.834ZM375.566 360.834H380.129V361.718H375.566V360.834ZM380.389 361.952H383.535V362.81H380.389V361.952ZM380.285 364.201H383.47V365.046H380.285V364.201ZM376.866 366.801H384.432V369.687H377.971V371.559H376.905V368.855H383.366V367.672H376.866V366.801ZM376.905 371.039H384.822V371.897H376.905V371.039ZM387.252 361.549H392.569V362.42H387.252V361.549ZM389.085 364.903H390.151V368.881H389.085V364.903ZM392.127 361.549H393.18V362.173C393.18 363.135 393.18 364.669 392.842 366.853L391.776 366.749C392.127 364.63 392.127 363.122 392.127 362.173V361.549ZM394.662 360.262H395.728V372.014H394.662V360.262ZM395.442 365.176H397.613V366.086H395.442V365.176ZM386.732 369.453L386.602 368.543C388.734 368.543 391.568 368.504 393.947 368.205L393.999 368.998C391.568 369.388 388.812 369.44 386.732 369.453ZM407.219 360.249H408.298V372.027H407.219V360.249ZM402.097 361.159C403.839 361.159 405.087 362.758 405.087 365.254C405.087 367.763 403.839 369.362 402.097 369.362C400.368 369.362 399.12 367.763 399.12 365.254C399.12 362.758 400.368 361.159 402.097 361.159ZM402.097 362.134C400.953 362.134 400.147 363.356 400.147 365.254C400.147 367.165 400.953 368.413 402.097 368.413C403.254 368.413 404.047 367.165 404.047 365.254C404.047 363.356 403.254 362.134 402.097 362.134ZM418.593 360.249H419.685V372.027H418.593V360.249ZM419.425 364.89H421.609V365.8H419.425V364.89ZM411.144 368.192H412.067C414.238 368.192 415.759 368.114 417.514 367.789L417.631 368.699C415.824 369.037 414.277 369.102 412.067 369.102H411.144V368.192ZM411.144 361.393H416.604V362.277H412.21V368.595H411.144V361.393ZM423.796 371.088C423.544 371.088 423.327 370.998 423.145 370.82C422.964 370.638 422.873 370.42 422.873 370.164C422.873 369.912 422.964 369.697 423.145 369.518C423.327 369.337 423.544 369.246 423.796 369.246C424.049 369.246 424.266 369.337 424.447 369.518C424.629 369.697 424.72 369.912 424.72 370.164C424.72 370.334 424.677 370.489 424.59 370.631C424.507 370.769 424.396 370.88 424.258 370.963C424.119 371.046 423.966 371.088 423.796 371.088ZM426.474 361.545V364.911H425.329V361.545H426.474ZM428.847 361.545V364.911H427.702V361.545H428.847ZM214.577 381.673V382.873H210.385V381.673H214.577ZM219.968 387V377.545H223.43C224.101 377.545 224.657 377.656 225.097 377.878C225.537 378.096 225.866 378.393 226.085 378.769C226.303 379.141 226.413 379.561 226.413 380.029C226.413 380.423 226.34 380.755 226.196 381.026C226.051 381.294 225.857 381.509 225.614 381.673C225.374 381.833 225.109 381.95 224.82 382.023V382.116C225.134 382.131 225.44 382.233 225.739 382.42C226.04 382.605 226.289 382.868 226.486 383.21C226.683 383.551 226.782 383.967 226.782 384.456C226.782 384.94 226.668 385.373 226.44 385.758C226.216 386.14 225.868 386.443 225.397 386.668C224.926 386.889 224.324 387 223.592 387H219.968ZM221.394 385.777H223.453C224.137 385.777 224.626 385.644 224.921 385.38C225.217 385.115 225.365 384.784 225.365 384.387C225.365 384.089 225.289 383.815 225.138 383.565C224.988 383.316 224.772 383.118 224.492 382.97C224.215 382.822 223.886 382.748 223.504 382.748H221.394V385.777ZM221.394 381.636H223.306C223.626 381.636 223.913 381.574 224.169 381.451C224.427 381.328 224.632 381.156 224.783 380.934C224.937 380.709 225.014 380.445 225.014 380.14C225.014 379.749 224.877 379.421 224.603 379.157C224.329 378.892 223.909 378.76 223.343 378.76H221.394V381.636ZM228.363 387V379.909H229.697V381.036H229.771C229.9 380.654 230.128 380.354 230.454 380.135C230.784 379.914 231.156 379.803 231.571 379.803C231.658 379.803 231.759 379.806 231.876 379.812C231.996 379.818 232.09 379.826 232.158 379.835V381.156C232.102 381.14 232.004 381.123 231.862 381.105C231.721 381.083 231.579 381.072 231.438 381.072C231.111 381.072 230.82 381.142 230.565 381.28C230.313 381.416 230.113 381.605 229.965 381.848C229.817 382.088 229.743 382.362 229.743 382.67V387H228.363ZM233.352 387V379.909H234.733V387H233.352ZM234.049 378.815C233.809 378.815 233.603 378.735 233.431 378.575C233.261 378.412 233.177 378.218 233.177 377.993C233.177 377.766 233.261 377.572 233.431 377.412C233.603 377.248 233.809 377.167 234.049 377.167C234.289 377.167 234.494 377.248 234.663 377.412C234.836 377.572 234.922 377.766 234.922 377.993C234.922 378.218 234.836 378.412 234.663 378.575C234.494 378.735 234.289 378.815 234.049 378.815ZM238.653 387.157C238.204 387.157 237.798 387.074 237.434 386.908C237.071 386.738 236.783 386.494 236.571 386.174C236.362 385.854 236.257 385.461 236.257 384.996C236.257 384.596 236.334 384.267 236.488 384.009C236.642 383.75 236.85 383.545 237.111 383.395C237.373 383.244 237.665 383.13 237.988 383.053C238.311 382.976 238.641 382.917 238.976 382.877C239.401 382.828 239.746 382.788 240.01 382.757C240.275 382.724 240.467 382.67 240.587 382.596C240.707 382.522 240.767 382.402 240.767 382.236V382.203C240.767 381.8 240.654 381.488 240.426 381.266C240.201 381.045 239.866 380.934 239.419 380.934C238.955 380.934 238.588 381.037 238.321 381.243C238.056 381.446 237.873 381.673 237.771 381.922L236.474 381.626C236.628 381.196 236.853 380.848 237.148 380.583C237.447 380.315 237.79 380.121 238.178 380.001C238.565 379.878 238.973 379.817 239.401 379.817C239.684 379.817 239.984 379.851 240.301 379.918C240.621 379.983 240.92 380.103 241.197 380.278C241.477 380.454 241.706 380.705 241.885 381.031C242.063 381.354 242.152 381.774 242.152 382.291V387H240.804V386.031H240.749C240.66 386.209 240.526 386.384 240.347 386.557C240.169 386.729 239.94 386.872 239.659 386.986C239.379 387.1 239.044 387.157 238.653 387.157ZM238.953 386.049C239.335 386.049 239.661 385.974 239.932 385.823C240.206 385.672 240.414 385.475 240.555 385.232C240.7 384.986 240.772 384.723 240.772 384.442V383.528C240.723 383.578 240.627 383.624 240.486 383.667C240.347 383.707 240.189 383.742 240.01 383.773C239.832 383.801 239.658 383.827 239.489 383.852C239.319 383.873 239.178 383.892 239.064 383.907C238.796 383.941 238.552 383.998 238.33 384.078C238.111 384.158 237.936 384.273 237.804 384.424C237.674 384.572 237.61 384.769 237.61 385.015C237.61 385.357 237.736 385.615 237.988 385.79C238.241 385.963 238.562 386.049 238.953 386.049ZM245.371 382.79V387H243.991V379.909H245.316V381.063H245.404C245.567 380.688 245.822 380.386 246.17 380.158C246.521 379.931 246.962 379.817 247.495 379.817C247.978 379.817 248.401 379.918 248.764 380.121C249.128 380.321 249.409 380.62 249.609 381.017C249.809 381.414 249.909 381.905 249.909 382.49V387H248.529V382.656C248.529 382.142 248.395 381.74 248.127 381.451C247.86 381.159 247.492 381.012 247.024 381.012C246.704 381.012 246.419 381.082 246.17 381.22C245.924 381.359 245.728 381.562 245.584 381.83C245.442 382.094 245.371 382.414 245.371 382.79ZM254.845 378.773V377.545H262.163V378.773H259.213V387H257.791V378.773H254.845ZM262.932 387V379.909H264.266V381.036H264.34C264.47 380.654 264.697 380.354 265.024 380.135C265.353 379.914 265.725 379.803 266.141 379.803C266.227 379.803 266.328 379.806 266.445 379.812C266.565 379.818 266.659 379.826 266.727 379.835V381.156C266.672 381.14 266.573 381.123 266.432 381.105C266.29 381.083 266.148 381.072 266.007 381.072C265.681 381.072 265.39 381.142 265.134 381.28C264.882 381.416 264.682 381.605 264.534 381.848C264.386 382.088 264.313 382.362 264.313 382.67V387H262.932ZM269.922 387.157C269.472 387.157 269.066 387.074 268.703 386.908C268.34 386.738 268.052 386.494 267.84 386.174C267.63 385.854 267.526 385.461 267.526 384.996C267.526 384.596 267.603 384.267 267.757 384.009C267.91 383.75 268.118 383.545 268.38 383.395C268.641 383.244 268.934 383.13 269.257 383.053C269.58 382.976 269.909 382.917 270.245 382.877C270.67 382.828 271.014 382.788 271.279 382.757C271.544 382.724 271.736 382.67 271.856 382.596C271.976 382.522 272.036 382.402 272.036 382.236V382.203C272.036 381.8 271.922 381.488 271.694 381.266C271.47 381.045 271.134 380.934 270.688 380.934C270.223 380.934 269.857 381.037 269.589 381.243C269.325 381.446 269.141 381.673 269.04 381.922L267.743 381.626C267.897 381.196 268.121 380.848 268.417 380.583C268.715 380.315 269.058 380.121 269.446 380.001C269.834 379.878 270.242 379.817 270.67 379.817C270.953 379.817 271.253 379.851 271.57 379.918C271.89 379.983 272.188 380.103 272.465 380.278C272.745 380.454 272.975 380.705 273.153 381.031C273.332 381.354 273.421 381.774 273.421 382.291V387H272.073V386.031H272.018C271.928 386.209 271.794 386.384 271.616 386.557C271.437 386.729 271.208 386.872 270.928 386.986C270.648 387.1 270.313 387.157 269.922 387.157ZM270.222 386.049C270.603 386.049 270.93 385.974 271.2 385.823C271.474 385.672 271.682 385.475 271.824 385.232C271.968 384.986 272.041 384.723 272.041 384.442V383.528C271.991 383.578 271.896 383.624 271.754 383.667C271.616 383.707 271.457 383.742 271.279 383.773C271.1 383.801 270.927 383.827 270.757 383.852C270.588 383.873 270.446 383.892 270.333 383.907C270.065 383.941 269.82 383.998 269.598 384.078C269.38 384.158 269.205 384.273 269.072 384.424C268.943 384.572 268.878 384.769 268.878 385.015C268.878 385.357 269.005 385.615 269.257 385.79C269.509 385.963 269.831 386.049 270.222 386.049ZM278.246 387.143C277.56 387.143 276.969 386.988 276.474 386.677C275.981 386.363 275.603 385.931 275.338 385.38C275.073 384.829 274.941 384.198 274.941 383.487C274.941 382.767 275.076 382.131 275.347 381.58C275.618 381.026 276 380.594 276.492 380.283C276.984 379.972 277.565 379.817 278.232 379.817C278.771 379.817 279.251 379.917 279.673 380.117C280.094 380.314 280.435 380.591 280.693 380.948C280.955 381.305 281.11 381.722 281.159 382.199H279.816C279.742 381.866 279.573 381.58 279.308 381.34C279.047 381.1 278.696 380.98 278.256 380.98C277.871 380.98 277.534 381.082 277.245 381.285C276.958 381.485 276.735 381.771 276.575 382.143C276.415 382.513 276.335 382.95 276.335 383.455C276.335 383.972 276.414 384.418 276.571 384.793C276.727 385.169 276.949 385.46 277.235 385.666C277.525 385.872 277.865 385.975 278.256 385.975C278.517 385.975 278.754 385.927 278.966 385.832C279.182 385.734 279.362 385.594 279.507 385.412C279.654 385.23 279.757 385.012 279.816 384.756H281.159C281.11 385.215 280.961 385.624 280.712 385.984C280.462 386.344 280.128 386.628 279.71 386.834C279.294 387.04 278.806 387.143 278.246 387.143ZM283.508 389.659C283.302 389.659 283.114 389.642 282.945 389.608C282.775 389.578 282.649 389.544 282.566 389.507L282.899 388.376C283.151 388.443 283.376 388.473 283.573 388.463C283.77 388.454 283.943 388.38 284.094 388.242C284.248 388.103 284.384 387.877 284.5 387.563L284.671 387.092L282.077 379.909H283.554L285.35 385.412H285.424L287.22 379.909H288.701L285.779 387.946C285.644 388.316 285.471 388.628 285.262 388.884C285.053 389.142 284.804 389.336 284.514 389.465C284.225 389.594 283.89 389.659 283.508 389.659ZM297.617 382.407V383.602H293.425V382.407H297.617Z" fill="#8F8F8F"/>
<defs>
<filter id="filter0_d_1075_28" x="0" y="0" width="960" height="580" filterUnits="userSpaceOnUse" color-interpolation-filters="sRGB">
<feFlood flood-opacity="0" result="BackgroundImageFix"/>
<feColorMatrix in="SourceAlpha" type="matrix" values="0 0 0 0 0 0 0 0 0 0 0 0 0 0 0 0 0 0 127 0" result="hardAlpha"/>
<feOffset/>
<feGaussianBlur stdDeviation="15"/>
<feComposite in2="hardAlpha" operator="out"/>
<feColorMatrix type="matrix" values="0 0 0 0 0 0 0 0 0 0 0 0 0 0 0 0 0 0 0.15 0"/>
<feBlend mode="normal" in2="BackgroundImageFix" result="effect1_dropShadow_1075_28"/>
<feBlend mode="normal" in="SourceGraphic" in2="effect1_dropShadow_1075_28" result="shape"/>
</filter>
</defs>
</svg>
