<svg width="35" height="38" viewBox="0 0 35 38" fill="none" xmlns="http://www.w3.org/2000/svg">
<path fill-rule="evenodd" clip-rule="evenodd" d="M12.094 20.1196C11.8206 19.8227 11.667 19.42 11.667 19.0002C11.667 18.5804 11.8206 18.1777 12.094 17.8808L20.3438 8.92387C20.4783 8.77264 20.6392 8.65202 20.8171 8.56904C20.9951 8.48606 21.1864 8.44238 21.3801 8.44055C21.5737 8.43873 21.7657 8.47879 21.945 8.5584C22.1242 8.63801 22.287 8.75558 22.4239 8.90424C22.5609 9.05291 22.6692 9.22969 22.7425 9.42427C22.8158 9.61886 22.8527 9.82735 22.851 10.0376C22.8493 10.2478 22.8091 10.4556 22.7327 10.6488C22.6562 10.8419 22.5451 11.0166 22.4059 11.1627L15.1871 19.0002L22.4059 26.8377C22.6715 27.1363 22.8185 27.5363 22.8152 27.9514C22.8119 28.3666 22.6585 28.7637 22.3881 29.0572C22.1177 29.3508 21.7519 29.5173 21.3696 29.5209C20.9872 29.5245 20.6188 29.365 20.3438 29.0765L12.094 20.1196Z" fill="#0C1B4D"/>
</svg>
